<svg width="428" height="44" viewBox="0 0 428 44" fill="none" xmlns="http://www.w3.org/2000/svg">
<path d="M0 10.1451C0 4.62229 4.47715 0.145142 10 0.145142H418C423.523 0.145142 428 4.62229 428 10.1451V43.1451H0V10.1451Z" fill="#68108A"/>
<path d="M34.4457 18.2891C33.8137 18.2891 33.2217 18.1771 32.6697 17.9531C32.1177 17.7211 31.6337 17.3971 31.2177 16.9811C30.8097 16.5651 30.4897 16.0771 30.2577 15.5171C30.0257 14.9491 29.9097 14.3331 29.9097 13.6691C29.9097 12.9971 30.0257 12.3811 30.2577 11.8211C30.4897 11.2611 30.8097 10.7731 31.2177 10.3571C31.6337 9.94114 32.1137 9.62114 32.6577 9.39714C33.2097 9.17314 33.8057 9.06114 34.4457 9.06114C35.0857 9.06114 35.6777 9.17714 36.2217 9.40914C36.7737 9.63314 37.2537 9.95314 37.6617 10.3691C38.0777 10.7771 38.4017 11.2611 38.6337 11.8211C38.8737 12.3811 38.9937 12.9971 38.9937 13.6691C38.9937 14.3331 38.8737 14.9491 38.6337 15.5171C38.4017 16.0771 38.0777 16.5651 37.6617 16.9811C37.2537 17.3971 36.7737 17.7211 36.2217 17.9531C35.6777 18.1771 35.0857 18.2891 34.4457 18.2891ZM34.4457 17.1971C34.9417 17.1971 35.3937 17.1091 35.8017 16.9331C36.2097 16.7491 36.5617 16.4971 36.8577 16.1771C37.1617 15.8491 37.3937 15.4731 37.5537 15.0491C37.7217 14.6171 37.8057 14.1571 37.8057 13.6691C37.8057 13.1811 37.7217 12.7251 37.5537 12.3011C37.3937 11.8771 37.1617 11.5051 36.8577 11.1851C36.5617 10.8571 36.2097 10.6051 35.8017 10.4291C35.3937 10.2451 34.9417 10.1531 34.4457 10.1531C33.9577 10.1531 33.5097 10.2451 33.1017 10.4291C32.6937 10.6051 32.3377 10.8571 32.0337 11.1851C31.7377 11.5051 31.5057 11.8771 31.3377 12.3011C31.1697 12.7251 31.0857 13.1811 31.0857 13.6691C31.0857 14.1571 31.1697 14.6171 31.3377 15.0491C31.5057 15.4731 31.7377 15.8491 32.0337 16.1771C32.3377 16.4971 32.6937 16.7491 33.1017 16.9331C33.5097 17.1091 33.9577 17.1971 34.4457 17.1971ZM40.5769 20.5451V11.6771H41.6689V13.0691L41.5249 12.7931C41.7649 12.4091 42.0929 12.1051 42.5089 11.8811C42.9249 11.6491 43.4009 11.5331 43.9369 11.5331C44.5449 11.5331 45.0889 11.6811 45.5689 11.9771C46.0569 12.2731 46.4409 12.6771 46.7209 13.1891C47.0009 13.6931 47.1409 14.2691 47.1409 14.9171C47.1409 15.5491 47.0009 16.1211 46.7209 16.6331C46.4409 17.1451 46.0569 17.5491 45.5689 17.8451C45.0889 18.1411 44.5409 18.2891 43.9249 18.2891C43.4049 18.2891 42.9289 18.1731 42.4969 17.9411C42.0729 17.7091 41.7449 17.3811 41.5129 16.9571L41.6929 16.7651V20.5451H40.5769ZM43.8409 17.2091C44.2489 17.2091 44.6129 17.1091 44.9329 16.9091C45.2529 16.7091 45.5009 16.4371 45.6769 16.0931C45.8609 15.7411 45.9529 15.3491 45.9529 14.9171C45.9529 14.4691 45.8609 14.0771 45.6769 13.7411C45.5009 13.3971 45.2529 13.1251 44.9329 12.9251C44.6129 12.7171 44.2489 12.6131 43.8409 12.6131C43.4329 12.6131 43.0649 12.7131 42.7369 12.9131C42.4169 13.1131 42.1609 13.3891 41.9689 13.7411C41.7849 14.0851 41.6929 14.4771 41.6929 14.9171C41.6929 15.3491 41.7849 15.7411 41.9689 16.0931C42.1609 16.4371 42.4169 16.7091 42.7369 16.9091C43.0649 17.1091 43.4329 17.2091 43.8409 17.2091ZM48.6042 18.1451V11.6771H49.7202V18.1451H48.6042ZM48.6042 10.6451V9.20514H49.7202V10.6451H48.6042ZM51.4519 18.1451V11.6771H52.5439V12.9371L52.3639 12.8291C52.5239 12.4211 52.7799 12.1051 53.1319 11.8811C53.4919 11.6491 53.9119 11.5331 54.3919 11.5331C54.8559 11.5331 55.2679 11.6371 55.6279 11.8451C55.9959 12.0531 56.2839 12.3411 56.4919 12.7091C56.7079 13.0771 56.8159 13.4931 56.8159 13.9571V18.1451H55.6879V14.3171C55.6879 13.9571 55.6239 13.6531 55.4959 13.4051C55.3679 13.1571 55.1839 12.9651 54.9439 12.8291C54.7119 12.6851 54.4439 12.6131 54.1399 12.6131C53.8359 12.6131 53.5639 12.6851 53.3239 12.8291C53.0919 12.9651 52.9079 13.1611 52.7719 13.4171C52.6359 13.6651 52.5679 13.9651 52.5679 14.3171V18.1451H51.4519ZM58.4128 18.1451V11.6771H59.5288V18.1451H58.4128ZM58.4128 10.6451V9.20514H59.5288V10.6451H58.4128ZM64.3325 18.2891C63.7085 18.2891 63.1445 18.1451 62.6405 17.8571C62.1365 17.5611 61.7365 17.1571 61.4405 16.6451C61.1445 16.1331 60.9965 15.5531 60.9965 14.9051C60.9965 14.2571 61.1405 13.6811 61.4285 13.1771C61.7245 12.6731 62.1245 12.2731 62.6285 11.9771C63.1325 11.6811 63.7005 11.5331 64.3325 11.5331C64.9565 11.5331 65.5205 11.6811 66.0245 11.9771C66.5285 12.2651 66.9245 12.6611 67.2125 13.1651C67.5085 13.6691 67.6565 14.2491 67.6565 14.9051C67.6565 15.5611 67.5045 16.1451 67.2005 16.6571C66.8965 17.1611 66.4925 17.5611 65.9885 17.8571C65.4925 18.1451 64.9405 18.2891 64.3325 18.2891ZM64.3325 17.2091C64.7325 17.2091 65.0925 17.1091 65.4125 16.9091C65.7405 16.7091 65.9965 16.4331 66.1805 16.0811C66.3725 15.7291 66.4685 15.3371 66.4685 14.9051C66.4685 14.4651 66.3725 14.0771 66.1805 13.7411C65.9965 13.3971 65.7405 13.1251 65.4125 12.9251C65.0925 12.7171 64.7325 12.6131 64.3325 12.6131C63.9245 12.6131 63.5565 12.7171 63.2285 12.9251C62.9085 13.1251 62.6525 13.3971 62.4605 13.7411C62.2685 14.0771 62.1725 14.4651 62.1725 14.9051C62.1725 15.3371 62.2685 15.7291 62.4605 16.0811C62.6525 16.4331 62.9085 16.7091 63.2285 16.9091C63.5565 17.1091 63.9245 17.2091 64.3325 17.2091ZM69.112 18.1451V11.6771H70.204V12.9371L70.024 12.8291C70.184 12.4211 70.44 12.1051 70.792 11.8811C71.152 11.6491 71.572 11.5331 72.052 11.5331C72.516 11.5331 72.928 11.6371 73.288 11.8451C73.656 12.0531 73.944 12.3411 74.152 12.7091C74.368 13.0771 74.476 13.4931 74.476 13.9571V18.1451H73.348V14.3171C73.348 13.9571 73.284 13.6531 73.156 13.4051C73.028 13.1571 72.844 12.9651 72.604 12.8291C72.372 12.6851 72.104 12.6131 71.8 12.6131C71.496 12.6131 71.224 12.6851 70.984 12.8291C70.752 12.9651 70.568 13.1611 70.432 13.4171C70.296 13.6651 70.228 13.9651 70.228 14.3171V18.1451H69.112ZM77.4152 18.1451L80.6192 9.20514H82.0112L85.2152 18.1451H83.9552L83.2232 16.0451H79.4072L78.6752 18.1451H77.4152ZM79.7792 14.9651H82.8512L81.1472 10.0571H81.4832L79.7792 14.9651ZM86.3417 18.1451V9.20514H87.5177V18.1451H86.3417ZM89.5658 12.1931V11.6531C89.8138 11.5891 89.9978 11.4731 90.1178 11.3051C90.2458 11.1291 90.3218 10.9091 90.3458 10.6451H89.8058V9.20514H90.9698V10.2251C90.9698 10.7451 90.8498 11.1771 90.6098 11.5211C90.3778 11.8571 90.0298 12.0811 89.5658 12.1931ZM93.3077 20.7851C93.1637 20.7851 93.0197 20.7731 92.8757 20.7491C92.7317 20.7251 92.5957 20.6851 92.4677 20.6291V19.6331C92.5557 19.6491 92.6637 19.6651 92.7917 19.6811C92.9277 19.7051 93.0597 19.7171 93.1877 19.7171C93.5637 19.7171 93.8477 19.6331 94.0397 19.4651C94.2397 19.3051 94.4277 19.0251 94.6037 18.6251L95.0117 17.6531L94.9877 18.6251L92.2277 11.6771H93.4397L95.5877 17.1971H95.2277L97.3637 11.6771H98.5997L95.6837 18.9131C95.5477 19.2571 95.3717 19.5691 95.1557 19.8491C94.9477 20.1371 94.6917 20.3651 94.3877 20.5331C94.0837 20.7011 93.7237 20.7851 93.3077 20.7851ZM102.451 18.2891C101.827 18.2891 101.271 18.1411 100.783 17.8451C100.295 17.5491 99.9113 17.1451 99.6313 16.6331C99.3513 16.1131 99.2113 15.5331 99.2113 14.8931C99.2113 14.2451 99.3473 13.6691 99.6193 13.1651C99.8993 12.6611 100.275 12.2651 100.747 11.9771C101.227 11.6811 101.763 11.5331 102.355 11.5331C102.835 11.5331 103.259 11.6211 103.627 11.7971C104.003 11.9651 104.319 12.1971 104.575 12.4931C104.839 12.7811 105.039 13.1131 105.175 13.4891C105.319 13.8571 105.391 14.2411 105.391 14.6411C105.391 14.7291 105.383 14.8291 105.367 14.9411C105.359 15.0451 105.347 15.1451 105.331 15.2411H100.027V14.2811H104.683L104.155 14.7131C104.227 14.2971 104.187 13.9251 104.035 13.5971C103.883 13.2691 103.659 13.0091 103.363 12.8171C103.067 12.6251 102.731 12.5291 102.355 12.5291C101.979 12.5291 101.635 12.6251 101.323 12.8171C101.011 13.0091 100.767 13.2851 100.591 13.6451C100.423 13.9971 100.355 14.4171 100.387 14.9051C100.355 15.3771 100.427 15.7931 100.603 16.1531C100.787 16.5051 101.043 16.7811 101.371 16.9811C101.707 17.1731 102.071 17.2691 102.463 17.2691C102.895 17.2691 103.259 17.1691 103.555 16.9691C103.851 16.7691 104.091 16.5131 104.275 16.2011L105.211 16.6811C105.083 16.9771 104.883 17.2491 104.611 17.4971C104.347 17.7371 104.031 17.9291 103.663 18.0731C103.303 18.2171 102.899 18.2891 102.451 18.2891ZM108.921 18.1451V11.6771H110.037V18.1451H108.921ZM108.921 10.6451V9.20514H110.037V10.6451H108.921ZM111.768 18.1451V9.06114H112.884V18.1451H111.768ZM117.592 18.2891C116.968 18.2891 116.412 18.1411 115.924 17.8451C115.436 17.5491 115.052 17.1451 114.772 16.6331C114.492 16.1131 114.352 15.5331 114.352 14.8931C114.352 14.2451 114.488 13.6691 114.76 13.1651C115.04 12.6611 115.416 12.2651 115.888 11.9771C116.368 11.6811 116.904 11.5331 117.496 11.5331C117.976 11.5331 118.4 11.6211 118.768 11.7971C119.144 11.9651 119.46 12.1971 119.716 12.4931C119.98 12.7811 120.18 13.1131 120.316 13.4891C120.46 13.8571 120.532 14.2411 120.532 14.6411C120.532 14.7291 120.524 14.8291 120.508 14.9411C120.5 15.0451 120.488 15.1451 120.472 15.2411H115.168V14.2811H119.824L119.296 14.7131C119.368 14.2971 119.328 13.9251 119.176 13.5971C119.024 13.2691 118.8 13.0091 118.504 12.8171C118.208 12.6251 117.872 12.5291 117.496 12.5291C117.12 12.5291 116.776 12.6251 116.464 12.8171C116.152 13.0091 115.908 13.2851 115.732 13.6451C115.564 13.9971 115.496 14.4171 115.528 14.9051C115.496 15.3771 115.568 15.7931 115.744 16.1531C115.928 16.5051 116.184 16.7811 116.512 16.9811C116.848 17.1731 117.212 17.2691 117.604 17.2691C118.036 17.2691 118.4 17.1691 118.696 16.9691C118.992 16.7691 119.232 16.5131 119.416 16.2011L120.352 16.6811C120.224 16.9771 120.024 17.2491 119.752 17.4971C119.488 17.7371 119.172 17.9291 118.804 18.0731C118.444 18.2171 118.04 18.2891 117.592 18.2891ZM124.615 18.2171C123.983 18.2171 123.495 18.0371 123.151 17.6771C122.815 17.3171 122.647 16.8091 122.647 16.1531V12.7451H121.471V11.6771H121.711C121.999 11.6771 122.227 11.5891 122.395 11.4131C122.563 11.2371 122.647 11.0051 122.647 10.7171V10.1891H123.763V11.6771H125.215V12.7451H123.763V16.1171C123.763 16.3331 123.795 16.5211 123.859 16.6811C123.931 16.8411 124.047 16.9691 124.207 17.0651C124.367 17.1531 124.579 17.1971 124.843 17.1971C124.899 17.1971 124.967 17.1931 125.047 17.1851C125.135 17.1771 125.215 17.1691 125.287 17.1611V18.1451C125.183 18.1691 125.067 18.1851 124.939 18.1931C124.811 18.2091 124.703 18.2171 124.615 18.2171ZM126.745 18.1451V11.6771H127.861V18.1451H126.745ZM126.745 10.6451V9.20514H127.861V10.6451H126.745ZM134.751 20.7851C134.295 20.7851 133.871 20.7131 133.479 20.5691C133.095 20.4251 132.763 20.2251 132.483 19.9691C132.211 19.7211 132.003 19.4291 131.859 19.0931L132.903 18.6131C133.015 18.9171 133.227 19.1731 133.539 19.3811C133.859 19.5971 134.259 19.7051 134.739 19.7051C135.107 19.7051 135.439 19.6331 135.735 19.4891C136.039 19.3531 136.279 19.1451 136.455 18.8651C136.631 18.5931 136.719 18.2611 136.719 17.8691V16.4171L136.923 16.6331C136.699 17.0731 136.375 17.4091 135.951 17.6411C135.535 17.8731 135.075 17.9891 134.571 17.9891C133.963 17.9891 133.419 17.8491 132.939 17.5691C132.459 17.2811 132.083 16.8931 131.811 16.4051C131.539 15.9091 131.403 15.3611 131.403 14.7611C131.403 14.1531 131.539 13.6051 131.811 13.1171C132.083 12.6291 132.455 12.2451 132.927 11.9651C133.407 11.6771 133.951 11.5331 134.559 11.5331C135.063 11.5331 135.519 11.6491 135.927 11.8811C136.343 12.1051 136.675 12.4171 136.923 12.8171L136.755 13.1171V11.6771H137.847V17.8691C137.847 18.4291 137.715 18.9291 137.451 19.3691C137.187 19.8091 136.819 20.1531 136.347 20.4011C135.883 20.6571 135.351 20.7851 134.751 20.7851ZM134.667 16.9091C135.051 16.9091 135.395 16.8131 135.699 16.6211C136.011 16.4291 136.259 16.1731 136.443 15.8531C136.627 15.5251 136.719 15.1611 136.719 14.7611C136.719 14.3691 136.627 14.0091 136.443 13.6811C136.259 13.3531 136.011 13.0931 135.699 12.9011C135.395 12.7091 135.051 12.6131 134.667 12.6131C134.275 12.6131 133.919 12.7091 133.599 12.9011C133.279 13.0931 133.027 13.3531 132.843 13.6811C132.667 14.0011 132.579 14.3611 132.579 14.7611C132.579 15.1611 132.667 15.5251 132.843 15.8531C133.027 16.1731 133.275 16.4291 133.587 16.6211C133.907 16.8131 134.267 16.9091 134.667 16.9091ZM142.649 18.2891C142.025 18.2891 141.461 18.1451 140.957 17.8571C140.453 17.5611 140.053 17.1571 139.757 16.6451C139.461 16.1331 139.313 15.5531 139.313 14.9051C139.313 14.2571 139.457 13.6811 139.745 13.1771C140.041 12.6731 140.441 12.2731 140.945 11.9771C141.449 11.6811 142.017 11.5331 142.649 11.5331C143.273 11.5331 143.837 11.6811 144.341 11.9771C144.845 12.2651 145.241 12.6611 145.529 13.1651C145.825 13.6691 145.973 14.2491 145.973 14.9051C145.973 15.5611 145.821 16.1451 145.517 16.6571C145.213 17.1611 144.809 17.5611 144.305 17.8571C143.809 18.1451 143.257 18.2891 142.649 18.2891ZM142.649 17.2091C143.049 17.2091 143.409 17.1091 143.729 16.9091C144.057 16.7091 144.313 16.4331 144.497 16.0811C144.689 15.7291 144.785 15.3371 144.785 14.9051C144.785 14.4651 144.689 14.0771 144.497 13.7411C144.313 13.3971 144.057 13.1251 143.729 12.9251C143.409 12.7171 143.049 12.6131 142.649 12.6131C142.241 12.6131 141.873 12.7171 141.545 12.9251C141.225 13.1251 140.969 13.3971 140.777 13.7411C140.585 14.0771 140.489 14.4651 140.489 14.9051C140.489 15.3371 140.585 15.7291 140.777 16.0811C140.969 16.4331 141.225 16.7091 141.545 16.9091C141.873 17.1091 142.241 17.2091 142.649 17.2091ZM140.825 10.4651V9.10914H142.169V10.4651H140.825ZM143.129 10.4651V9.10914H144.485V10.4651H143.129ZM147.428 18.1451V11.6771H148.52V12.9371L148.34 12.8291C148.5 12.4211 148.756 12.1051 149.108 11.8811C149.468 11.6491 149.888 11.5331 150.368 11.5331C150.832 11.5331 151.244 11.6371 151.604 11.8451C151.972 12.0531 152.26 12.3411 152.468 12.7091C152.684 13.0771 152.792 13.4931 152.792 13.9571V18.1451H151.664V14.3171C151.664 13.9571 151.6 13.6531 151.472 13.4051C151.344 13.1571 151.16 12.9651 150.92 12.8291C150.688 12.6851 150.42 12.6131 150.116 12.6131C149.812 12.6131 149.54 12.6851 149.3 12.8291C149.068 12.9651 148.884 13.1611 148.748 13.4171C148.612 13.6651 148.544 13.9651 148.544 14.3171V18.1451H147.428ZM157.329 18.2891C156.721 18.2891 156.173 18.1411 155.685 17.8451C155.205 17.5491 154.825 17.1451 154.545 16.6331C154.265 16.1211 154.125 15.5491 154.125 14.9171C154.125 14.2691 154.265 13.6931 154.545 13.1891C154.825 12.6771 155.205 12.2731 155.685 11.9771C156.173 11.6811 156.721 11.5331 157.329 11.5331C157.865 11.5331 158.341 11.6491 158.757 11.8811C159.173 12.1051 159.501 12.4091 159.741 12.7931L159.561 13.0691V9.06114H160.689V18.1451H159.597V16.7651L159.741 16.9571C159.517 17.3811 159.189 17.7091 158.757 17.9411C158.333 18.1731 157.857 18.2891 157.329 18.2891ZM157.425 17.2091C157.833 17.2091 158.197 17.1091 158.517 16.9091C158.837 16.7091 159.089 16.4371 159.273 16.0931C159.465 15.7411 159.561 15.3491 159.561 14.9171C159.561 14.4771 159.465 14.0851 159.273 13.7411C159.089 13.3891 158.837 13.1131 158.517 12.9131C158.197 12.7131 157.833 12.6131 157.425 12.6131C157.025 12.6131 156.661 12.7171 156.333 12.9251C156.013 13.1251 155.761 13.3971 155.577 13.7411C155.393 14.0771 155.301 14.4691 155.301 14.9171C155.301 15.3491 155.393 15.7411 155.577 16.0931C155.761 16.4371 156.013 16.7091 156.333 16.9091C156.653 17.1091 157.017 17.2091 157.425 17.2091ZM165.393 18.2891C164.769 18.2891 164.213 18.1411 163.725 17.8451C163.237 17.5491 162.853 17.1451 162.573 16.6331C162.293 16.1131 162.153 15.5331 162.153 14.8931C162.153 14.2451 162.289 13.6691 162.561 13.1651C162.841 12.6611 163.217 12.2651 163.689 11.9771C164.169 11.6811 164.705 11.5331 165.297 11.5331C165.777 11.5331 166.201 11.6211 166.569 11.7971C166.945 11.9651 167.261 12.1971 167.517 12.4931C167.781 12.7811 167.981 13.1131 168.117 13.4891C168.261 13.8571 168.333 14.2411 168.333 14.6411C168.333 14.7291 168.325 14.8291 168.309 14.9411C168.301 15.0451 168.289 15.1451 168.273 15.2411H162.969V14.2811H167.625L167.097 14.7131C167.169 14.2971 167.129 13.9251 166.977 13.5971C166.825 13.2691 166.601 13.0091 166.305 12.8171C166.009 12.6251 165.673 12.5291 165.297 12.5291C164.921 12.5291 164.577 12.6251 164.265 12.8171C163.953 13.0091 163.709 13.2851 163.533 13.6451C163.365 13.9971 163.297 14.4171 163.329 14.9051C163.297 15.3771 163.369 15.7931 163.545 16.1531C163.729 16.5051 163.985 16.7811 164.313 16.9811C164.649 17.1731 165.013 17.2691 165.405 17.2691C165.837 17.2691 166.201 17.1691 166.497 16.9691C166.793 16.7691 167.033 16.5131 167.217 16.2011L168.153 16.6811C168.025 16.9771 167.825 17.2491 167.553 17.4971C167.289 17.7371 166.973 17.9291 166.605 18.0731C166.245 18.2171 165.841 18.2891 165.393 18.2891ZM169.788 18.1451V11.6771H170.88V12.8651L170.76 12.6971C170.912 12.3291 171.144 12.0571 171.456 11.8811C171.768 11.6971 172.148 11.6051 172.596 11.6051H172.992V12.6611H172.428C171.972 12.6611 171.604 12.8051 171.324 13.0931C171.044 13.3731 170.904 13.7731 170.904 14.2931V18.1451H169.788ZM176.959 18.2891C176.335 18.2891 175.779 18.1411 175.291 17.8451C174.803 17.5491 174.419 17.1451 174.139 16.6331C173.859 16.1131 173.719 15.5331 173.719 14.8931C173.719 14.2451 173.855 13.6691 174.127 13.1651C174.407 12.6611 174.783 12.2651 175.255 11.9771C175.735 11.6811 176.271 11.5331 176.863 11.5331C177.343 11.5331 177.767 11.6211 178.135 11.7971C178.511 11.9651 178.827 12.1971 179.083 12.4931C179.347 12.7811 179.547 13.1131 179.683 13.4891C179.827 13.8571 179.899 14.2411 179.899 14.6411C179.899 14.7291 179.891 14.8291 179.875 14.9411C179.867 15.0451 179.855 15.1451 179.839 15.2411H174.535V14.2811H179.191L178.663 14.7131C178.735 14.2971 178.695 13.9251 178.543 13.5971C178.391 13.2691 178.167 13.0091 177.871 12.8171C177.575 12.6251 177.239 12.5291 176.863 12.5291C176.487 12.5291 176.143 12.6251 175.831 12.8171C175.519 13.0091 175.275 13.2851 175.099 13.6451C174.931 13.9971 174.863 14.4171 174.895 14.9051C174.863 15.3771 174.935 15.7931 175.111 16.1531C175.295 16.5051 175.551 16.7811 175.879 16.9811C176.215 17.1731 176.579 17.2691 176.971 17.2691C177.403 17.2691 177.767 17.1691 178.063 16.9691C178.359 16.7691 178.599 16.5131 178.783 16.2011L179.719 16.6811C179.591 16.9771 179.391 17.2491 179.119 17.4971C178.855 17.7371 178.539 17.9291 178.171 18.0731C177.811 18.2171 177.407 18.2891 176.959 18.2891ZM181.354 18.1451V11.6771H182.446V12.8651L182.326 12.6971C182.478 12.3291 182.71 12.0571 183.022 11.8811C183.334 11.6971 183.714 11.6051 184.162 11.6051H184.558V12.6611H183.994C183.538 12.6611 183.17 12.8051 182.89 13.0931C182.61 13.3731 182.47 13.7731 182.47 14.2931V18.1451H181.354ZM188.526 18.2891C187.902 18.2891 187.346 18.1411 186.858 17.8451C186.37 17.5491 185.986 17.1451 185.706 16.6331C185.426 16.1131 185.286 15.5331 185.286 14.8931C185.286 14.2451 185.422 13.6691 185.694 13.1651C185.974 12.6611 186.35 12.2651 186.822 11.9771C187.302 11.6811 187.838 11.5331 188.43 11.5331C188.91 11.5331 189.334 11.6211 189.702 11.7971C190.078 11.9651 190.394 12.1971 190.65 12.4931C190.914 12.7811 191.114 13.1131 191.25 13.4891C191.394 13.8571 191.466 14.2411 191.466 14.6411C191.466 14.7291 191.458 14.8291 191.442 14.9411C191.434 15.0451 191.422 15.1451 191.406 15.2411H186.102V14.2811H190.758L190.23 14.7131C190.302 14.2971 190.262 13.9251 190.11 13.5971C189.958 13.2691 189.734 13.0091 189.438 12.8171C189.142 12.6251 188.806 12.5291 188.43 12.5291C188.054 12.5291 187.71 12.6251 187.398 12.8171C187.086 13.0091 186.842 13.2851 186.666 13.6451C186.498 13.9971 186.43 14.4171 186.462 14.9051C186.43 15.3771 186.502 15.7931 186.678 16.1531C186.862 16.5051 187.118 16.7811 187.446 16.9811C187.782 17.1731 188.146 17.2691 188.538 17.2691C188.97 17.2691 189.334 17.1691 189.63 16.9691C189.926 16.7691 190.166 16.5131 190.35 16.2011L191.286 16.6811C191.158 16.9771 190.958 17.2491 190.686 17.4971C190.422 17.7371 190.106 17.9291 189.738 18.0731C189.378 18.2171 188.974 18.2891 188.526 18.2891ZM192.921 18.1451V9.06114H194.037V15.2891L193.581 15.1811L197.013 11.6771H198.441L195.957 14.2811L198.609 18.1451H197.289L194.865 14.6411L195.561 14.6051L193.677 16.5731L194.037 15.7571V18.1451H192.921ZM204.89 18.2891C204.322 18.2891 203.802 18.1851 203.33 17.9771C202.858 17.7611 202.458 17.4691 202.13 17.1011C201.802 16.7331 201.566 16.3211 201.422 15.8651L202.442 15.4451C202.658 16.0211 202.978 16.4651 203.402 16.7771C203.834 17.0811 204.338 17.2331 204.914 17.2331C205.266 17.2331 205.574 17.1771 205.838 17.0651C206.102 16.9531 206.306 16.7971 206.45 16.5971C206.602 16.3891 206.678 16.1491 206.678 15.8771C206.678 15.5011 206.57 15.2051 206.354 14.9891C206.146 14.7651 205.838 14.5971 205.43 14.4851L203.786 13.9811C203.138 13.7811 202.642 13.4651 202.298 13.0331C201.954 12.6011 201.782 12.1051 201.782 11.5451C201.782 11.0571 201.898 10.6291 202.13 10.2611C202.37 9.88514 202.698 9.59314 203.114 9.38514C203.538 9.16914 204.018 9.06114 204.554 9.06114C205.09 9.06114 205.574 9.15714 206.006 9.34914C206.446 9.54114 206.818 9.80114 207.122 10.1291C207.426 10.4491 207.65 10.8171 207.794 11.2331L206.786 11.6531C206.594 11.1491 206.306 10.7691 205.922 10.5131C205.538 10.2491 205.086 10.1171 204.566 10.1171C204.246 10.1171 203.962 10.1731 203.714 10.2851C203.474 10.3891 203.286 10.5451 203.15 10.7531C203.022 10.9531 202.958 11.1931 202.958 11.4731C202.958 11.8011 203.062 12.0931 203.27 12.3491C203.478 12.6051 203.794 12.8011 204.218 12.9371L205.718 13.3811C206.422 13.5971 206.954 13.9051 207.314 14.3051C207.674 14.7051 207.854 15.2011 207.854 15.7931C207.854 16.2811 207.726 16.7131 207.47 17.0891C207.222 17.4651 206.874 17.7611 206.426 17.9771C205.986 18.1851 205.474 18.2891 204.89 18.2891ZM205.022 20.9291C204.798 20.9291 204.566 20.8891 204.326 20.8091C204.086 20.7371 203.89 20.6371 203.738 20.5091L204.014 19.7771C204.134 19.8811 204.27 19.9611 204.422 20.0171C204.574 20.0731 204.722 20.1011 204.866 20.1011C205.042 20.1011 205.182 20.0571 205.286 19.9691C205.39 19.8891 205.442 19.7811 205.442 19.6451C205.442 19.4691 205.35 19.3291 205.166 19.2251C204.982 19.1291 204.69 19.0571 204.29 19.0091L204.566 18.0251H205.298L205.166 18.5651C205.582 18.6451 205.898 18.7851 206.114 18.9851C206.338 19.1851 206.45 19.4291 206.45 19.7171C206.45 20.0771 206.314 20.3691 206.042 20.5931C205.778 20.8171 205.438 20.9291 205.022 20.9291ZM211.164 18.2891C210.74 18.2891 210.364 18.2131 210.036 18.0611C209.716 17.9011 209.464 17.6851 209.28 17.4131C209.096 17.1331 209.004 16.8131 209.004 16.4531C209.004 16.1091 209.076 15.8011 209.22 15.5291C209.372 15.2491 209.604 15.0131 209.916 14.8211C210.236 14.6291 210.636 14.4931 211.116 14.4131L213.516 14.0171V14.9531L211.368 15.3131C210.952 15.3851 210.648 15.5171 210.456 15.7091C210.272 15.9011 210.18 16.1371 210.18 16.4171C210.18 16.6811 210.284 16.9011 210.492 17.0771C210.708 17.2531 210.976 17.3411 211.296 17.3411C211.704 17.3411 212.056 17.2571 212.352 17.0891C212.656 16.9131 212.892 16.6771 213.06 16.3811C213.236 16.0851 213.324 15.7571 213.324 15.3971V13.7531C213.324 13.4011 213.192 13.1171 212.928 12.9011C212.672 12.6771 212.332 12.5651 211.908 12.5651C211.54 12.5651 211.212 12.6611 210.924 12.8531C210.644 13.0371 210.436 13.2851 210.3 13.5971L209.328 13.0931C209.448 12.7971 209.64 12.5331 209.904 12.3011C210.168 12.0611 210.476 11.8731 210.828 11.7371C211.18 11.6011 211.548 11.5331 211.932 11.5331C212.428 11.5331 212.864 11.6291 213.24 11.8211C213.616 12.0051 213.908 12.2651 214.116 12.6011C214.332 12.9291 214.44 13.3131 214.44 13.7531V18.1451H213.348V16.9211L213.552 16.9931C213.416 17.2491 213.232 17.4731 213 17.6651C212.768 17.8571 212.496 18.0091 212.184 18.1211C211.872 18.2331 211.532 18.2891 211.164 18.2891ZM216.171 18.1451V11.6771H217.263V12.8651L217.143 12.6971C217.295 12.3291 217.527 12.0571 217.839 11.8811C218.151 11.6971 218.531 11.6051 218.979 11.6051H219.375V12.6611H218.811C218.355 12.6611 217.987 12.8051 217.707 13.0931C217.427 13.3731 217.287 13.7731 217.287 14.2931V18.1451H216.171ZM223.053 18.2171C222.421 18.2171 221.933 18.0371 221.589 17.6771C221.253 17.3171 221.085 16.8091 221.085 16.1531V12.7451H219.909V11.6771H220.149C220.437 11.6771 220.665 11.5891 220.833 11.4131C221.001 11.2371 221.085 11.0051 221.085 10.7171V10.1891H222.201V11.6771H223.653V12.7451H222.201V16.1171C222.201 16.3331 222.233 16.5211 222.297 16.6811C222.369 16.8411 222.485 16.9691 222.645 17.0651C222.805 17.1531 223.017 17.1971 223.281 17.1971C223.337 17.1971 223.405 17.1931 223.485 17.1851C223.573 17.1771 223.653 17.1691 223.725 17.1611V18.1451C223.621 18.1691 223.505 18.1851 223.377 18.1931C223.249 18.2091 223.141 18.2171 223.053 18.2171ZM225.182 18.1451V9.06114H226.298V18.1451H225.182ZM229.926 18.2891C229.502 18.2891 229.126 18.2131 228.798 18.0611C228.478 17.9011 228.226 17.6851 228.042 17.4131C227.858 17.1331 227.766 16.8131 227.766 16.4531C227.766 16.1091 227.838 15.8011 227.982 15.5291C228.134 15.2491 228.366 15.0131 228.678 14.8211C228.998 14.6291 229.398 14.4931 229.878 14.4131L232.278 14.0171V14.9531L230.13 15.3131C229.714 15.3851 229.41 15.5171 229.218 15.7091C229.034 15.9011 228.942 16.1371 228.942 16.4171C228.942 16.6811 229.046 16.9011 229.254 17.0771C229.47 17.2531 229.738 17.3411 230.058 17.3411C230.466 17.3411 230.818 17.2571 231.114 17.0891C231.418 16.9131 231.654 16.6771 231.822 16.3811C231.998 16.0851 232.086 15.7571 232.086 15.3971V13.7531C232.086 13.4011 231.954 13.1171 231.69 12.9011C231.434 12.6771 231.094 12.5651 230.67 12.5651C230.302 12.5651 229.974 12.6611 229.686 12.8531C229.406 13.0371 229.198 13.2851 229.062 13.5971L228.09 13.0931C228.21 12.7971 228.402 12.5331 228.666 12.3011C228.93 12.0611 229.238 11.8731 229.59 11.7371C229.942 11.6011 230.31 11.5331 230.694 11.5331C231.19 11.5331 231.626 11.6291 232.002 11.8211C232.378 12.0051 232.67 12.2651 232.878 12.6011C233.094 12.9291 233.202 13.3131 233.202 13.7531V18.1451H232.11V16.9211L232.314 16.9931C232.178 17.2491 231.994 17.4731 231.762 17.6651C231.53 17.8571 231.258 18.0091 230.946 18.1211C230.634 18.2331 230.294 18.2891 229.926 18.2891ZM234.932 18.1451V11.6771H236.024V12.8651L235.904 12.6971C236.056 12.3291 236.288 12.0571 236.6 11.8811C236.912 11.6971 237.292 11.6051 237.74 11.6051H238.136V12.6611H237.572C237.116 12.6611 236.748 12.8051 236.468 13.0931C236.188 13.3731 236.048 13.7731 236.048 14.2931V18.1451H234.932ZM238.96 18.1451V11.6771H240.076V18.1451H238.96ZM241.635 18.1451V11.6771H242.727V12.9971L242.571 12.7931C242.731 12.3851 242.987 12.0731 243.339 11.8571C243.691 11.6411 244.087 11.5331 244.527 11.5331C245.031 11.5331 245.483 11.6731 245.883 11.9531C246.291 12.2331 246.571 12.6011 246.723 13.0571L246.411 13.0691C246.579 12.5651 246.863 12.1851 247.263 11.9291C247.663 11.6651 248.107 11.5331 248.595 11.5331C249.043 11.5331 249.447 11.6371 249.807 11.8451C250.175 12.0531 250.467 12.3411 250.683 12.7091C250.899 13.0771 251.007 13.4931 251.007 13.9571V18.1451H249.879V14.3171C249.879 13.9571 249.815 13.6531 249.687 13.4051C249.559 13.1571 249.383 12.9651 249.159 12.8291C248.943 12.6851 248.687 12.6131 248.391 12.6131C248.103 12.6131 247.843 12.6851 247.611 12.8291C247.387 12.9651 247.207 13.1611 247.071 13.4171C246.943 13.6651 246.879 13.9651 246.879 14.3171V18.1451H245.751V14.3171C245.751 13.9571 245.687 13.6531 245.559 13.4051C245.431 13.1571 245.255 12.9651 245.031 12.8291C244.815 12.6851 244.559 12.6131 244.263 12.6131C243.975 12.6131 243.715 12.6851 243.483 12.8291C243.259 12.9651 243.079 13.1611 242.943 13.4171C242.815 13.6651 242.751 13.9651 242.751 14.3171V18.1451H241.635ZM252.425 18.1451V11.6771H253.541V18.1451H252.425ZM254.464 18.1451V17.1971L258.316 12.3371L258.508 12.7451H254.656V11.6771H259.504V12.6251L255.688 17.4971L255.496 17.0771H259.528V18.1451H254.464ZM260.452 18.1451V11.6771H261.568V18.1451H260.452ZM265.202 18.1451V9.06114H266.318V15.2891L265.862 15.1811L269.294 11.6771H270.722L268.238 14.2811L270.89 18.1451H269.57L267.146 14.6411L267.842 14.6051L265.958 16.5731L266.318 15.7571V18.1451H265.202ZM273.789 18.2891C273.365 18.2891 272.989 18.2131 272.661 18.0611C272.341 17.9011 272.089 17.6851 271.905 17.4131C271.721 17.1331 271.629 16.8131 271.629 16.4531C271.629 16.1091 271.701 15.8011 271.845 15.5291C271.997 15.2491 272.229 15.0131 272.541 14.8211C272.861 14.6291 273.261 14.4931 273.741 14.4131L276.141 14.0171V14.9531L273.993 15.3131C273.577 15.3851 273.273 15.5171 273.081 15.7091C272.897 15.9011 272.805 16.1371 272.805 16.4171C272.805 16.6811 272.909 16.9011 273.117 17.0771C273.333 17.2531 273.601 17.3411 273.921 17.3411C274.329 17.3411 274.681 17.2571 274.977 17.0891C275.281 16.9131 275.517 16.6771 275.685 16.3811C275.861 16.0851 275.949 15.7571 275.949 15.3971V13.7531C275.949 13.4011 275.817 13.1171 275.553 12.9011C275.297 12.6771 274.957 12.5651 274.533 12.5651C274.165 12.5651 273.837 12.6611 273.549 12.8531C273.269 13.0371 273.061 13.2851 272.925 13.5971L271.953 13.0931C272.073 12.7971 272.265 12.5331 272.529 12.3011C272.793 12.0611 273.101 11.8731 273.453 11.7371C273.805 11.6011 274.173 11.5331 274.557 11.5331C275.053 11.5331 275.489 11.6291 275.865 11.8211C276.241 12.0051 276.533 12.2651 276.741 12.6011C276.957 12.9291 277.065 13.3131 277.065 13.7531V18.1451H275.973V16.9211L276.177 16.9931C276.041 17.2491 275.857 17.4731 275.625 17.6651C275.393 17.8571 275.121 18.0091 274.809 18.1211C274.497 18.2331 274.157 18.2891 273.789 18.2891ZM282.144 18.2891C281.624 18.2891 281.148 18.1731 280.716 17.9411C280.292 17.7091 279.964 17.3811 279.732 16.9571L279.888 16.7651V18.1451H278.796V9.06114H279.912V13.0691L279.744 12.7931C279.984 12.4091 280.312 12.1051 280.728 11.8811C281.144 11.6491 281.62 11.5331 282.156 11.5331C282.764 11.5331 283.308 11.6811 283.788 11.9771C284.276 12.2731 284.66 12.6771 284.94 13.1891C285.22 13.6931 285.36 14.2691 285.36 14.9171C285.36 15.5491 285.22 16.1211 284.94 16.6331C284.66 17.1451 284.276 17.5491 283.788 17.8451C283.308 18.1411 282.76 18.2891 282.144 18.2891ZM282.06 17.2091C282.468 17.2091 282.832 17.1091 283.152 16.9091C283.472 16.7091 283.72 16.4371 283.896 16.0931C284.08 15.7411 284.172 15.3491 284.172 14.9171C284.172 14.4691 284.08 14.0771 283.896 13.7411C283.72 13.3971 283.472 13.1251 283.152 12.9251C282.832 12.7171 282.468 12.6131 282.06 12.6131C281.652 12.6131 281.284 12.7131 280.956 12.9131C280.636 13.1131 280.38 13.3891 280.188 13.7411C280.004 14.0851 279.912 14.4771 279.912 14.9171C279.912 15.3491 280.004 15.7411 280.188 16.0931C280.38 16.4371 280.636 16.7091 280.956 16.9091C281.284 17.1091 281.652 17.2091 282.06 17.2091ZM289.115 18.2891C288.651 18.2891 288.231 18.1811 287.855 17.9651C287.487 17.7491 287.199 17.4491 286.991 17.0651C286.791 16.6731 286.691 16.2251 286.691 15.7211V11.6771H287.807V15.6011C287.807 15.9211 287.871 16.2011 287.999 16.4411C288.135 16.6811 288.319 16.8691 288.551 17.0051C288.791 17.1411 289.063 17.2091 289.367 17.2091C289.671 17.2091 289.939 17.1411 290.171 17.0051C290.411 16.8691 290.595 16.6731 290.723 16.4171C290.859 16.1611 290.927 15.8571 290.927 15.5051V11.6771H292.055V18.1451H290.963V16.8851L291.143 16.9931C290.991 17.4011 290.731 17.7211 290.363 17.9531C290.003 18.1771 289.587 18.2891 289.115 18.2891ZM293.784 18.1451V9.06114H294.9V18.1451H293.784ZM301.682 18.2891C301.058 18.2891 300.502 18.1411 300.014 17.8451C299.526 17.5491 299.142 17.1451 298.862 16.6331C298.582 16.1131 298.442 15.5331 298.442 14.8931C298.442 14.2451 298.578 13.6691 298.85 13.1651C299.13 12.6611 299.506 12.2651 299.978 11.9771C300.458 11.6811 300.994 11.5331 301.586 11.5331C302.066 11.5331 302.49 11.6211 302.858 11.7971C303.234 11.9651 303.55 12.1971 303.806 12.4931C304.07 12.7811 304.27 13.1131 304.406 13.4891C304.55 13.8571 304.622 14.2411 304.622 14.6411C304.622 14.7291 304.614 14.8291 304.598 14.9411C304.59 15.0451 304.578 15.1451 304.562 15.2411H299.258V14.2811H303.914L303.386 14.7131C303.458 14.2971 303.418 13.9251 303.266 13.5971C303.114 13.2691 302.89 13.0091 302.594 12.8171C302.298 12.6251 301.962 12.5291 301.586 12.5291C301.21 12.5291 300.866 12.6251 300.554 12.8171C300.242 13.0091 299.998 13.2851 299.822 13.6451C299.654 13.9971 299.586 14.4171 299.618 14.9051C299.586 15.3771 299.658 15.7931 299.834 16.1531C300.018 16.5051 300.274 16.7811 300.602 16.9811C300.938 17.1731 301.302 17.2691 301.694 17.2691C302.126 17.2691 302.49 17.1691 302.786 16.9691C303.082 16.7691 303.322 16.5131 303.506 16.2011L304.442 16.6811C304.314 16.9771 304.114 17.2491 303.842 17.4971C303.578 17.7371 303.262 17.9291 302.894 18.0731C302.534 18.2171 302.13 18.2891 301.682 18.2891ZM308.705 18.2171C308.073 18.2171 307.585 18.0371 307.241 17.6771C306.905 17.3171 306.737 16.8091 306.737 16.1531V12.7451H305.561V11.6771H305.801C306.089 11.6771 306.317 11.5891 306.485 11.4131C306.653 11.2371 306.737 11.0051 306.737 10.7171V10.1891H307.853V11.6771H309.305V12.7451H307.853V16.1171C307.853 16.3331 307.885 16.5211 307.949 16.6811C308.021 16.8411 308.137 16.9691 308.297 17.0651C308.457 17.1531 308.669 17.1971 308.933 17.1971C308.989 17.1971 309.057 17.1931 309.137 17.1851C309.225 17.1771 309.305 17.1691 309.377 17.1611V18.1451C309.273 18.1691 309.157 18.1851 309.029 18.1931C308.901 18.2091 308.793 18.2171 308.705 18.2171ZM310.835 18.1451V11.6771H311.927V12.9971L311.771 12.7931C311.931 12.3851 312.187 12.0731 312.539 11.8571C312.891 11.6411 313.287 11.5331 313.727 11.5331C314.231 11.5331 314.683 11.6731 315.083 11.9531C315.491 12.2331 315.771 12.6011 315.923 13.0571L315.611 13.0691C315.779 12.5651 316.063 12.1851 316.463 11.9291C316.863 11.6651 317.307 11.5331 317.795 11.5331C318.243 11.5331 318.647 11.6371 319.007 11.8451C319.375 12.0531 319.667 12.3411 319.883 12.7091C320.099 13.0771 320.207 13.4931 320.207 13.9571V18.1451H319.079V14.3171C319.079 13.9571 319.015 13.6531 318.887 13.4051C318.759 13.1571 318.583 12.9651 318.359 12.8291C318.143 12.6851 317.887 12.6131 317.591 12.6131C317.303 12.6131 317.043 12.6851 316.811 12.8291C316.587 12.9651 316.407 13.1611 316.271 13.4171C316.143 13.6651 316.079 13.9651 316.079 14.3171V18.1451H314.951V14.3171C314.951 13.9571 314.887 13.6531 314.759 13.4051C314.631 13.1571 314.455 12.9651 314.231 12.8291C314.015 12.6851 313.759 12.6131 313.463 12.6131C313.175 12.6131 312.915 12.6851 312.683 12.8291C312.459 12.9651 312.279 13.1611 312.143 13.4171C312.015 13.6651 311.951 13.9651 311.951 14.3171V18.1451H310.835ZM321.792 18.1451V11.6771H322.908V18.1451H321.792ZM321.792 10.6451V9.20514H322.908V10.6451H321.792ZM326.955 18.2891C326.307 18.2891 325.743 18.1291 325.263 17.8091C324.783 17.4891 324.443 17.0571 324.243 16.5131L325.131 16.0811C325.315 16.4651 325.567 16.7691 325.887 16.9931C326.207 17.2171 326.563 17.3291 326.955 17.3291C327.307 17.3291 327.599 17.2451 327.831 17.0771C328.063 16.9091 328.179 16.6891 328.179 16.4171C328.179 16.2251 328.123 16.0731 328.011 15.9611C327.907 15.8411 327.779 15.7491 327.627 15.6851C327.475 15.6131 327.335 15.5611 327.207 15.5291L326.235 15.2531C325.651 15.0851 325.223 14.8451 324.951 14.5331C324.687 14.2211 324.555 13.8571 324.555 13.4411C324.555 13.0571 324.651 12.7251 324.843 12.4451C325.043 12.1571 325.311 11.9331 325.647 11.7731C325.991 11.6131 326.375 11.5331 326.799 11.5331C327.367 11.5331 327.875 11.6771 328.323 11.9651C328.779 12.2531 329.103 12.6571 329.295 13.1771L328.383 13.5971C328.239 13.2611 328.023 12.9971 327.735 12.8051C327.447 12.6051 327.123 12.5051 326.763 12.5051C326.435 12.5051 326.175 12.5891 325.983 12.7571C325.791 12.9171 325.695 13.1211 325.695 13.3691C325.695 13.5531 325.743 13.7051 325.839 13.8251C325.935 13.9371 326.051 14.0251 326.187 14.0891C326.323 14.1451 326.455 14.1931 326.583 14.2331L327.639 14.5451C328.167 14.6971 328.575 14.9331 328.863 15.2531C329.159 15.5731 329.307 15.9571 329.307 16.4051C329.307 16.7651 329.207 17.0891 329.007 17.3771C328.807 17.6651 328.531 17.8891 328.179 18.0491C327.827 18.2091 327.419 18.2891 326.955 18.2891ZM326.991 20.9291C326.767 20.9291 326.535 20.8891 326.295 20.8091C326.055 20.7371 325.859 20.6371 325.707 20.5091L325.983 19.7771C326.103 19.8811 326.239 19.9611 326.391 20.0171C326.543 20.0731 326.691 20.1011 326.835 20.1011C327.011 20.1011 327.151 20.0571 327.255 19.9691C327.359 19.8891 327.411 19.7811 327.411 19.6451C327.411 19.4691 327.319 19.3291 327.135 19.2251C326.951 19.1291 326.659 19.0571 326.259 19.0091L326.535 18.0251H327.267L327.135 18.5651C327.551 18.6451 327.867 18.7851 328.083 18.9851C328.307 19.1851 328.419 19.4291 328.419 19.7171C328.419 20.0771 328.283 20.3691 328.011 20.5931C327.747 20.8171 327.407 20.9291 326.991 20.9291ZM330.96 19.8131V19.2731C331.208 19.2091 331.396 19.0851 331.524 18.9011C331.652 18.7171 331.724 18.4651 331.74 18.1451H331.2V16.7051H332.364V17.7251C332.364 18.3011 332.244 18.7651 332.004 19.1171C331.772 19.4691 331.424 19.7011 330.96 19.8131ZM340.688 18.2891C340.056 18.2891 339.472 18.1771 338.936 17.9531C338.4 17.7211 337.936 17.3971 337.544 16.9811C337.152 16.5651 336.844 16.0771 336.62 15.5171C336.404 14.9571 336.296 14.3451 336.296 13.6811C336.296 13.0091 336.404 12.3931 336.62 11.8331C336.836 11.2731 337.14 10.7851 337.532 10.3691C337.924 9.95314 338.388 9.63314 338.924 9.40914C339.46 9.17714 340.044 9.06114 340.676 9.06114C341.292 9.06114 341.844 9.16914 342.332 9.38514C342.828 9.60114 343.244 9.88114 343.58 10.2251C343.924 10.5691 344.168 10.9371 344.312 11.3291L343.256 11.8451C343.048 11.3251 342.724 10.9131 342.284 10.6091C341.844 10.3051 341.308 10.1531 340.676 10.1531C340.052 10.1531 339.496 10.3011 339.008 10.5971C338.528 10.8931 338.152 11.3051 337.88 11.8331C337.608 12.3611 337.472 12.9771 337.472 13.6811C337.472 14.3771 337.608 14.9891 337.88 15.5171C338.16 16.0451 338.54 16.4571 339.02 16.7531C339.508 17.0491 340.064 17.1971 340.688 17.1971C341.232 17.1971 341.724 17.0811 342.164 16.8491C342.604 16.6171 342.952 16.2971 343.208 15.8891C343.464 15.4811 343.592 15.0091 343.592 14.4731V13.9211L344.132 14.4251H340.676V13.4051H344.78V14.1971C344.78 14.8211 344.672 15.3851 344.456 15.8891C344.24 16.3931 343.944 16.8251 343.568 17.1851C343.192 17.5371 342.756 17.8091 342.26 18.0011C341.764 18.1931 341.24 18.2891 340.688 18.2891ZM346.237 18.1451V11.6771H347.353V18.1451H346.237ZM346.237 10.6451V9.20514H347.353V10.6451H346.237ZM348.449 18.1451V17.1971L352.301 12.3371L352.493 12.7451H348.641V11.6771H353.489V12.6251L349.673 17.4971L349.481 17.0771H353.513V18.1451H348.449ZM354.604 18.1451V9.06114H355.72V18.1451H354.604ZM357.452 18.1451V11.6771H358.568V18.1451H357.452ZM357.452 10.6451V9.20514H358.568V10.6451H357.452ZM360.3 18.1451V9.06114H361.416V18.1451H360.3ZM363.147 18.1451V11.6771H364.263V18.1451H363.147ZM363.147 10.6451V9.20514H364.263V10.6451H363.147ZM365.995 18.1451V9.06114H367.111V15.2891L366.655 15.1811L370.087 11.6771H371.515L369.031 14.2811L371.683 18.1451H370.363L367.939 14.6411L368.635 14.6051L366.751 16.5731L367.111 15.7571V18.1451H365.995ZM62.248 30.1451V21.2051H65.404C65.996 21.2051 66.516 21.3171 66.964 21.5411C67.412 21.7651 67.76 22.0851 68.008 22.5011C68.264 22.9171 68.392 23.4051 68.392 23.9651C68.392 24.5251 68.264 25.0131 68.008 25.4291C67.76 25.8371 67.412 26.1571 66.964 26.3891C66.524 26.6131 66.004 26.7251 65.404 26.7251H63.424V30.1451H62.248ZM63.424 25.6451H65.44C65.8 25.6451 66.112 25.5771 66.376 25.4411C66.64 25.3051 66.844 25.1091 66.988 24.8531C67.132 24.5971 67.204 24.3011 67.204 23.9651C67.204 23.6211 67.132 23.3251 66.988 23.0771C66.844 22.8211 66.64 22.6251 66.376 22.4891C66.112 22.3531 65.8 22.2851 65.44 22.2851H63.424V25.6451ZM72.688 30.2891C72.064 30.2891 71.5 30.1451 70.996 29.8571C70.492 29.5611 70.092 29.1571 69.796 28.6451C69.5 28.1331 69.352 27.5531 69.352 26.9051C69.352 26.2571 69.496 25.6811 69.784 25.1771C70.08 24.6731 70.48 24.2731 70.984 23.9771C71.488 23.6811 72.056 23.5331 72.688 23.5331C73.312 23.5331 73.876 23.6811 74.38 23.9771C74.884 24.2651 75.28 24.6611 75.568 25.1651C75.864 25.6691 76.012 26.2491 76.012 26.9051C76.012 27.5611 75.86 28.1451 75.556 28.6571C75.252 29.1611 74.848 29.5611 74.344 29.8571C73.848 30.1451 73.296 30.2891 72.688 30.2891ZM72.688 29.2091C73.088 29.2091 73.448 29.1091 73.768 28.9091C74.096 28.7091 74.352 28.4331 74.536 28.0811C74.728 27.7291 74.824 27.3371 74.824 26.9051C74.824 26.4651 74.728 26.0771 74.536 25.7411C74.352 25.3971 74.096 25.1251 73.768 24.9251C73.448 24.7171 73.088 24.6131 72.688 24.6131C72.28 24.6131 71.912 24.7171 71.584 24.9251C71.264 25.1251 71.008 25.3971 70.816 25.7411C70.624 26.0771 70.528 26.4651 70.528 26.9051C70.528 27.3371 70.624 27.7291 70.816 28.0811C71.008 28.4331 71.264 28.7091 71.584 28.9091C71.912 29.1091 72.28 29.2091 72.688 29.2091ZM77.4675 30.1451V21.0611H78.5835V30.1451H77.4675ZM80.3152 30.1451V23.6771H81.4312V30.1451H80.3152ZM80.3152 22.6451V21.2051H81.4312V22.6451H80.3152ZM85.7908 30.2171C85.1588 30.2171 84.6708 30.0371 84.3268 29.6771C83.9908 29.3171 83.8228 28.8091 83.8228 28.1531V24.7451H82.6468V23.6771H82.8868C83.1748 23.6771 83.4028 23.5891 83.5708 23.4131C83.7388 23.2371 83.8228 23.0051 83.8228 22.7171V22.1891H84.9388V23.6771H86.3908V24.7451H84.9388V28.1171C84.9388 28.3331 84.9708 28.5211 85.0348 28.6811C85.1068 28.8411 85.2228 28.9691 85.3828 29.0651C85.5428 29.1531 85.7548 29.1971 86.0188 29.1971C86.0748 29.1971 86.1428 29.1931 86.2228 29.1851C86.3108 29.1771 86.3908 29.1691 86.4628 29.1611V30.1451C86.3588 30.1691 86.2428 30.1851 86.1148 30.1931C85.9868 30.2091 85.8788 30.2171 85.7908 30.2171ZM87.9206 30.1451V23.6771H89.0366V30.1451H87.9206ZM87.9206 22.6451V21.2051H89.0366V22.6451H87.9206ZM90.7683 30.1451V21.0611H91.8843V27.2891L91.4283 27.1811L94.8603 23.6771H96.2883L93.8043 26.2811L96.4563 30.1451H95.1363L92.7123 26.6411L93.4083 26.6051L91.5243 28.5731L91.8843 27.7571V30.1451H90.7683ZM99.3557 30.2891C98.9317 30.2891 98.5557 30.2131 98.2277 30.0611C97.9077 29.9011 97.6557 29.6851 97.4717 29.4131C97.2877 29.1331 97.1957 28.8131 97.1957 28.4531C97.1957 28.1091 97.2677 27.8011 97.4117 27.5291C97.5637 27.2491 97.7957 27.0131 98.1077 26.8211C98.4277 26.6291 98.8277 26.4931 99.3077 26.4131L101.708 26.0171V26.9531L99.5597 27.3131C99.1437 27.3851 98.8397 27.5171 98.6477 27.7091C98.4637 27.9011 98.3717 28.1371 98.3717 28.4171C98.3717 28.6811 98.4757 28.9011 98.6837 29.0771C98.8997 29.2531 99.1677 29.3411 99.4877 29.3411C99.8957 29.3411 100.248 29.2571 100.544 29.0891C100.848 28.9131 101.084 28.6771 101.252 28.3811C101.428 28.0851 101.516 27.7571 101.516 27.3971V25.7531C101.516 25.4011 101.384 25.1171 101.12 24.9011C100.864 24.6771 100.524 24.5651 100.1 24.5651C99.7317 24.5651 99.4037 24.6611 99.1157 24.8531C98.8357 25.0371 98.6277 25.2851 98.4917 25.5971L97.5197 25.0931C97.6397 24.7971 97.8317 24.5331 98.0957 24.3011C98.3597 24.0611 98.6677 23.8731 99.0197 23.7371C99.3717 23.6011 99.7397 23.5331 100.124 23.5331C100.62 23.5331 101.056 23.6291 101.432 23.8211C101.808 24.0051 102.1 24.2651 102.308 24.6011C102.524 24.9291 102.632 25.3131 102.632 25.7531V30.1451H101.54V28.9211L101.744 28.9931C101.608 29.2491 101.424 29.4731 101.192 29.6651C100.96 29.8571 100.688 30.0091 100.376 30.1211C100.064 30.2331 99.7237 30.2891 99.3557 30.2891ZM104.362 30.1451V23.6771H105.454V24.9971L105.298 24.7931C105.458 24.3851 105.714 24.0731 106.066 23.8571C106.418 23.6411 106.814 23.5331 107.254 23.5331C107.758 23.5331 108.21 23.6731 108.61 23.9531C109.018 24.2331 109.298 24.6011 109.45 25.0571L109.138 25.0691C109.306 24.5651 109.59 24.1851 109.99 23.9291C110.39 23.6651 110.834 23.5331 111.322 23.5331C111.77 23.5331 112.174 23.6371 112.534 23.8451C112.902 24.0531 113.194 24.3411 113.41 24.7091C113.626 25.0771 113.734 25.4931 113.734 25.9571V30.1451H112.606V26.3171C112.606 25.9571 112.542 25.6531 112.414 25.4051C112.286 25.1571 112.11 24.9651 111.886 24.8291C111.67 24.6851 111.414 24.6131 111.118 24.6131C110.83 24.6131 110.57 24.6851 110.338 24.8291C110.114 24.9651 109.934 25.1611 109.798 25.4171C109.67 25.6651 109.606 25.9651 109.606 26.3171V30.1451H108.478V26.3171C108.478 25.9571 108.414 25.6531 108.286 25.4051C108.158 25.1571 107.982 24.9651 107.758 24.8291C107.542 24.6851 107.286 24.6131 106.99 24.6131C106.702 24.6131 106.442 24.6851 106.21 24.8291C105.986 24.9651 105.806 25.1611 105.67 25.4171C105.542 25.6651 105.478 25.9651 105.478 26.3171V30.1451H104.362ZM115.151 30.1451V23.6771H116.267V30.1451H115.151ZM117.191 30.1451V29.1971L121.043 24.3371L121.235 24.7451H117.383V23.6771H122.231V24.6251L118.415 29.4971L118.223 29.0771H122.255V30.1451H117.191ZM123.178 30.1451V23.6771H124.294V30.1451H123.178ZM131 30.2891C130.376 30.2891 129.812 30.1451 129.308 29.8571C128.804 29.5611 128.404 29.1571 128.108 28.6451C127.812 28.1331 127.664 27.5531 127.664 26.9051C127.664 26.2571 127.808 25.6811 128.096 25.1771C128.392 24.6731 128.792 24.2731 129.296 23.9771C129.8 23.6811 130.368 23.5331 131 23.5331C131.624 23.5331 132.188 23.6811 132.692 23.9771C133.196 24.2651 133.592 24.6611 133.88 25.1651C134.176 25.6691 134.324 26.2491 134.324 26.9051C134.324 27.5611 134.172 28.1451 133.868 28.6571C133.564 29.1611 133.16 29.5611 132.656 29.8571C132.16 30.1451 131.608 30.2891 131 30.2891ZM131 29.2091C131.4 29.2091 131.76 29.1091 132.08 28.9091C132.408 28.7091 132.664 28.4331 132.848 28.0811C133.04 27.7291 133.136 27.3371 133.136 26.9051C133.136 26.4651 133.04 26.0771 132.848 25.7411C132.664 25.3971 132.408 25.1251 132.08 24.9251C131.76 24.7171 131.4 24.6131 131 24.6131C130.592 24.6131 130.224 24.7171 129.896 24.9251C129.576 25.1251 129.32 25.3971 129.128 25.7411C128.936 26.0771 128.84 26.4651 128.84 26.9051C128.84 27.3371 128.936 27.7291 129.128 28.0811C129.32 28.4331 129.576 28.7091 129.896 28.9091C130.224 29.1091 130.592 29.2091 131 29.2091ZM135.78 30.1451V21.0611H136.896V27.2891L136.44 27.1811L139.872 23.6771H141.3L138.816 26.2811L141.468 30.1451H140.148L137.724 26.6411L138.42 26.6051L136.536 28.5731L136.896 27.7571V30.1451H135.78ZM144.763 30.2891C144.299 30.2891 143.879 30.1811 143.503 29.9651C143.135 29.7491 142.847 29.4491 142.639 29.0651C142.439 28.6731 142.339 28.2251 142.339 27.7211V23.6771H143.455V27.6011C143.455 27.9211 143.519 28.2011 143.647 28.4411C143.783 28.6811 143.967 28.8691 144.199 29.0051C144.439 29.1411 144.711 29.2091 145.015 29.2091C145.319 29.2091 145.587 29.1411 145.819 29.0051C146.059 28.8691 146.243 28.6731 146.371 28.4171C146.507 28.1611 146.575 27.8571 146.575 27.5051V23.6771H147.703V30.1451H146.611V28.8851L146.791 28.9931C146.639 29.4011 146.379 29.7211 146.011 29.9531C145.651 30.1771 145.235 30.2891 144.763 30.2891ZM149.432 30.1451V23.6771H150.524V24.9971L150.368 24.7931C150.528 24.3851 150.784 24.0731 151.136 23.8571C151.488 23.6411 151.884 23.5331 152.324 23.5331C152.828 23.5331 153.28 23.6731 153.68 23.9531C154.088 24.2331 154.368 24.6011 154.52 25.0571L154.208 25.0691C154.376 24.5651 154.66 24.1851 155.06 23.9291C155.46 23.6651 155.904 23.5331 156.392 23.5331C156.84 23.5331 157.244 23.6371 157.604 23.8451C157.972 24.0531 158.264 24.3411 158.48 24.7091C158.696 25.0771 158.804 25.4931 158.804 25.9571V30.1451H157.676V26.3171C157.676 25.9571 157.612 25.6531 157.484 25.4051C157.356 25.1571 157.18 24.9651 156.956 24.8291C156.74 24.6851 156.484 24.6131 156.188 24.6131C155.9 24.6131 155.64 24.6851 155.408 24.8291C155.184 24.9651 155.004 25.1611 154.868 25.4171C154.74 25.6651 154.676 25.9651 154.676 26.3171V30.1451H153.548V26.3171C153.548 25.9571 153.484 25.6531 153.356 25.4051C153.228 25.1571 153.052 24.9651 152.828 24.8291C152.612 24.6851 152.356 24.6131 152.06 24.6131C151.772 24.6131 151.512 24.6851 151.28 24.8291C151.056 24.9651 150.876 25.1611 150.74 25.4171C150.612 25.6651 150.548 25.9651 150.548 26.3171V30.1451H149.432ZM162.681 30.2891C162.217 30.2891 161.797 30.1811 161.421 29.9651C161.053 29.7491 160.765 29.4491 160.557 29.0651C160.357 28.6731 160.257 28.2251 160.257 27.7211V23.6771H161.373V27.6011C161.373 27.9211 161.437 28.2011 161.565 28.4411C161.701 28.6811 161.885 28.8691 162.117 29.0051C162.357 29.1411 162.629 29.2091 162.933 29.2091C163.237 29.2091 163.505 29.1411 163.737 29.0051C163.977 28.8691 164.161 28.6731 164.289 28.4171C164.425 28.1611 164.493 27.8571 164.493 27.5051V23.6771H165.621V30.1451H164.529V28.8851L164.709 28.9931C164.557 29.4011 164.297 29.7211 163.929 29.9531C163.569 30.1771 163.153 30.2891 162.681 30.2891ZM169.666 30.2891C169.018 30.2891 168.454 30.1291 167.974 29.8091C167.494 29.4891 167.154 29.0571 166.954 28.5131L167.842 28.0811C168.026 28.4651 168.278 28.7691 168.598 28.9931C168.918 29.2171 169.274 29.3291 169.666 29.3291C170.018 29.3291 170.31 29.2451 170.542 29.0771C170.774 28.9091 170.89 28.6891 170.89 28.4171C170.89 28.2251 170.834 28.0731 170.722 27.9611C170.618 27.8411 170.49 27.7491 170.338 27.6851C170.186 27.6131 170.046 27.5611 169.918 27.5291L168.946 27.2531C168.362 27.0851 167.934 26.8451 167.662 26.5331C167.398 26.2211 167.266 25.8571 167.266 25.4411C167.266 25.0571 167.362 24.7251 167.554 24.4451C167.754 24.1571 168.022 23.9331 168.358 23.7731C168.702 23.6131 169.086 23.5331 169.51 23.5331C170.078 23.5331 170.586 23.6771 171.034 23.9651C171.49 24.2531 171.814 24.6571 172.006 25.1771L171.094 25.5971C170.95 25.2611 170.734 24.9971 170.446 24.8051C170.158 24.6051 169.834 24.5051 169.474 24.5051C169.146 24.5051 168.886 24.5891 168.694 24.7571C168.502 24.9171 168.406 25.1211 168.406 25.3691C168.406 25.5531 168.454 25.7051 168.55 25.8251C168.646 25.9371 168.762 26.0251 168.898 26.0891C169.034 26.1451 169.166 26.1931 169.294 26.2331L170.35 26.5451C170.878 26.6971 171.286 26.9331 171.574 27.2531C171.87 27.5731 172.018 27.9571 172.018 28.4051C172.018 28.7651 171.918 29.0891 171.718 29.3771C171.518 29.6651 171.242 29.8891 170.89 30.0491C170.538 30.2091 170.13 30.2891 169.666 30.2891ZM169.702 32.9291C169.478 32.9291 169.246 32.8891 169.006 32.8091C168.766 32.7371 168.57 32.6371 168.418 32.5091L168.694 31.7771C168.814 31.8811 168.95 31.9611 169.102 32.0171C169.254 32.0731 169.402 32.1011 169.546 32.1011C169.722 32.1011 169.862 32.0571 169.966 31.9691C170.07 31.8891 170.122 31.7811 170.122 31.6451C170.122 31.4691 170.03 31.3291 169.846 31.2251C169.662 31.1291 169.37 31.0571 168.97 31.0091L169.246 30.0251H169.978L169.846 30.5651C170.262 30.6451 170.578 30.7851 170.794 30.9851C171.018 31.1851 171.13 31.4291 171.13 31.7171C171.13 32.0771 170.994 32.3691 170.722 32.5931C170.458 32.8171 170.118 32.9291 169.702 32.9291ZM178.625 30.2891C178.001 30.2891 177.437 30.1451 176.933 29.8571C176.429 29.5611 176.029 29.1571 175.733 28.6451C175.437 28.1331 175.289 27.5531 175.289 26.9051C175.289 26.2571 175.433 25.6811 175.721 25.1771C176.017 24.6731 176.417 24.2731 176.921 23.9771C177.425 23.6811 177.993 23.5331 178.625 23.5331C179.249 23.5331 179.813 23.6811 180.317 23.9771C180.821 24.2651 181.217 24.6611 181.505 25.1651C181.801 25.6691 181.949 26.2491 181.949 26.9051C181.949 27.5611 181.797 28.1451 181.493 28.6571C181.189 29.1611 180.785 29.5611 180.281 29.8571C179.785 30.1451 179.233 30.2891 178.625 30.2891ZM178.625 29.2091C179.025 29.2091 179.385 29.1091 179.705 28.9091C180.033 28.7091 180.289 28.4331 180.473 28.0811C180.665 27.7291 180.761 27.3371 180.761 26.9051C180.761 26.4651 180.665 26.0771 180.473 25.7411C180.289 25.3971 180.033 25.1251 179.705 24.9251C179.385 24.7171 179.025 24.6131 178.625 24.6131C178.217 24.6131 177.849 24.7171 177.521 24.9251C177.201 25.1251 176.945 25.3971 176.753 25.7411C176.561 26.0771 176.465 26.4651 176.465 26.9051C176.465 27.3371 176.561 27.7291 176.753 28.0811C176.945 28.4331 177.201 28.7091 177.521 28.9091C177.849 29.1091 178.217 29.2091 178.625 29.2091ZM183.405 30.1451V21.0611H184.521V30.1451H183.405ZM188.545 30.2891C188.081 30.2891 187.661 30.1811 187.285 29.9651C186.917 29.7491 186.629 29.4491 186.421 29.0651C186.221 28.6731 186.121 28.2251 186.121 27.7211V23.6771H187.237V27.6011C187.237 27.9211 187.301 28.2011 187.429 28.4411C187.565 28.6811 187.749 28.8691 187.981 29.0051C188.221 29.1411 188.493 29.2091 188.797 29.2091C189.101 29.2091 189.369 29.1411 189.601 29.0051C189.841 28.8691 190.025 28.6731 190.153 28.4171C190.289 28.1611 190.357 27.8571 190.357 27.5051V23.6771H191.485V30.1451H190.393V28.8851L190.573 28.9931C190.421 29.4011 190.161 29.7211 189.793 29.9531C189.433 30.1771 189.017 30.2891 188.545 30.2891ZM193.214 30.1451V23.6771H194.306V24.8651L194.186 24.6971C194.338 24.3291 194.57 24.0571 194.882 23.8811C195.194 23.6971 195.574 23.6051 196.022 23.6051H196.418V24.6611H195.854C195.398 24.6611 195.03 24.8051 194.75 25.0931C194.47 25.3731 194.33 25.7731 194.33 26.2931V30.1451H193.214ZM199.725 30.2891C199.077 30.2891 198.513 30.1291 198.033 29.8091C197.553 29.4891 197.213 29.0571 197.013 28.5131L197.901 28.0811C198.085 28.4651 198.337 28.7691 198.657 28.9931C198.977 29.2171 199.333 29.3291 199.725 29.3291C200.077 29.3291 200.369 29.2451 200.601 29.0771C200.833 28.9091 200.949 28.6891 200.949 28.4171C200.949 28.2251 200.893 28.0731 200.781 27.9611C200.677 27.8411 200.549 27.7491 200.397 27.6851C200.245 27.6131 200.105 27.5611 199.977 27.5291L199.005 27.2531C198.421 27.0851 197.993 26.8451 197.721 26.5331C197.457 26.2211 197.325 25.8571 197.325 25.4411C197.325 25.0571 197.421 24.7251 197.613 24.4451C197.813 24.1571 198.081 23.9331 198.417 23.7731C198.761 23.6131 199.145 23.5331 199.569 23.5331C200.137 23.5331 200.645 23.6771 201.093 23.9651C201.549 24.2531 201.873 24.6571 202.065 25.1771L201.153 25.5971C201.009 25.2611 200.793 24.9971 200.505 24.8051C200.217 24.6051 199.893 24.5051 199.533 24.5051C199.205 24.5051 198.945 24.5891 198.753 24.7571C198.561 24.9171 198.465 25.1211 198.465 25.3691C198.465 25.5531 198.513 25.7051 198.609 25.8251C198.705 25.9371 198.821 26.0251 198.957 26.0891C199.093 26.1451 199.225 26.1931 199.353 26.2331L200.409 26.5451C200.937 26.6971 201.345 26.9331 201.633 27.2531C201.929 27.5731 202.077 27.9571 202.077 28.4051C202.077 28.7651 201.977 29.0891 201.777 29.3771C201.577 29.6651 201.301 29.8891 200.949 30.0491C200.597 30.2091 200.189 30.2891 199.725 30.2891ZM205.83 30.2891C205.366 30.2891 204.946 30.1811 204.57 29.9651C204.202 29.7491 203.914 29.4491 203.706 29.0651C203.506 28.6731 203.406 28.2251 203.406 27.7211V23.6771H204.522V27.6011C204.522 27.9211 204.586 28.2011 204.714 28.4411C204.85 28.6811 205.034 28.8691 205.266 29.0051C205.506 29.1411 205.778 29.2091 206.082 29.2091C206.386 29.2091 206.654 29.1411 206.886 29.0051C207.126 28.8691 207.31 28.6731 207.438 28.4171C207.574 28.1611 207.642 27.8571 207.642 27.5051V23.6771H208.77V30.1451H207.678V28.8851L207.858 28.9931C207.706 29.4011 207.446 29.7211 207.078 29.9531C206.718 30.1771 206.302 30.2891 205.83 30.2891ZM210.499 30.1451V23.6771H211.591V24.9371L211.411 24.8291C211.571 24.4211 211.827 24.1051 212.179 23.8811C212.539 23.6491 212.959 23.5331 213.439 23.5331C213.903 23.5331 214.315 23.6371 214.675 23.8451C215.043 24.0531 215.331 24.3411 215.539 24.7091C215.755 25.0771 215.863 25.4931 215.863 25.9571V30.1451H214.735V26.3171C214.735 25.9571 214.671 25.6531 214.543 25.4051C214.415 25.1571 214.231 24.9651 213.991 24.8291C213.759 24.6851 213.491 24.6131 213.187 24.6131C212.883 24.6131 212.611 24.6851 212.371 24.8291C212.139 24.9651 211.955 25.1611 211.819 25.4171C211.683 25.6651 211.615 25.9651 211.615 26.3171V30.1451H210.499ZM217.916 30.1451V28.7051H219.08V30.1451H217.916ZM223.475 30.1451V21.2051H227.231C227.767 21.2051 228.227 21.3011 228.611 21.4931C229.003 21.6851 229.303 21.9571 229.511 22.3091C229.727 22.6531 229.835 23.0651 229.835 23.5451C229.835 23.9851 229.719 24.3851 229.487 24.7451C229.263 25.0971 228.931 25.3731 228.491 25.5731L228.479 25.1291C228.863 25.2731 229.179 25.4651 229.427 25.7051C229.683 25.9371 229.875 26.2091 230.003 26.5211C230.131 26.8251 230.195 27.1491 230.195 27.4931C230.195 28.3171 229.931 28.9651 229.403 29.4371C228.875 29.9091 228.155 30.1451 227.243 30.1451H223.475ZM224.651 29.0651H227.291C227.811 29.0651 228.227 28.9251 228.539 28.6451C228.851 28.3651 229.007 27.9851 229.007 27.5051C229.007 27.0251 228.851 26.6451 228.539 26.3651C228.227 26.0771 227.811 25.9331 227.291 25.9331H224.651V29.0651ZM224.651 24.8771H227.207C227.639 24.8771 227.987 24.7531 228.251 24.5051C228.515 24.2491 228.647 23.9251 228.647 23.5331C228.647 23.1251 228.515 22.8131 228.251 22.5971C227.987 22.3811 227.639 22.2731 227.207 22.2731H224.651V24.8771ZM231.651 30.1451V21.0611H232.767V27.2891L232.311 27.1811L235.743 23.6771H237.171L234.687 26.2811L237.339 30.1451H236.019L233.595 26.6411L234.291 26.6051L232.407 28.5731L232.767 27.7571V30.1451H231.651ZM237.707 30.1451V29.1971L241.559 24.3371L241.751 24.7451H237.899V23.6771H242.747V24.6251L238.931 29.4971L238.739 29.0771H242.771V30.1451H237.707ZM244.318 30.1451V28.7051H245.482V30.1451H244.318ZM253.993 30.2891C253.361 30.2891 252.777 30.1771 252.241 29.9531C251.713 29.7211 251.249 29.3971 250.849 28.9811C250.457 28.5651 250.153 28.0771 249.937 27.5171C249.721 26.9571 249.613 26.3451 249.613 25.6811C249.613 25.0091 249.721 24.3931 249.937 23.8331C250.153 23.2731 250.457 22.7851 250.849 22.3691C251.241 21.9531 251.705 21.6331 252.241 21.4091C252.777 21.1771 253.361 21.0611 253.993 21.0611C254.609 21.0611 255.161 21.1691 255.649 21.3851C256.145 21.6011 256.561 21.8811 256.897 22.2251C257.241 22.5691 257.485 22.9371 257.629 23.3291L256.549 23.8211C256.341 23.3251 256.017 22.9251 255.577 22.6211C255.137 22.3091 254.609 22.1531 253.993 22.1531C253.369 22.1531 252.813 22.3011 252.325 22.5971C251.845 22.8931 251.469 23.3051 251.197 23.8331C250.925 24.3611 250.789 24.9771 250.789 25.6811C250.789 26.3771 250.925 26.9891 251.197 27.5171C251.469 28.0451 251.845 28.4571 252.325 28.7531C252.813 29.0491 253.369 29.1971 253.993 29.1971C254.609 29.1971 255.137 29.0451 255.577 28.7411C256.017 28.4291 256.341 28.0251 256.549 27.5291L257.629 28.0211C257.485 28.4131 257.241 28.7811 256.897 29.1251C256.561 29.4691 256.145 29.7491 255.649 29.9651C255.161 30.1811 254.609 30.2891 253.993 30.2891ZM254.137 32.9291C253.913 32.9291 253.681 32.8891 253.441 32.8091C253.201 32.7371 253.005 32.6371 252.853 32.5091L253.129 31.7771C253.249 31.8811 253.385 31.9611 253.537 32.0171C253.689 32.0731 253.837 32.1011 253.981 32.1011C254.157 32.1011 254.297 32.0571 254.401 31.9691C254.505 31.8891 254.557 31.7811 254.557 31.6451C254.557 31.4691 254.465 31.3291 254.281 31.2251C254.097 31.1291 253.805 31.0571 253.405 31.0091L253.681 30.0251H254.413L254.281 30.5651C254.697 30.6451 255.013 30.7851 255.229 30.9851C255.453 31.1851 255.565 31.4291 255.565 31.7171C255.565 32.0771 255.429 32.3691 255.157 32.5931C254.893 32.8171 254.553 32.9291 254.137 32.9291ZM261.955 30.2891C261.331 30.2891 260.775 30.1411 260.287 29.8451C259.799 29.5491 259.415 29.1451 259.135 28.6331C258.855 28.1131 258.715 27.5331 258.715 26.8931C258.715 26.2451 258.851 25.6691 259.123 25.1651C259.403 24.6611 259.779 24.2651 260.251 23.9771C260.731 23.6811 261.267 23.5331 261.859 23.5331C262.339 23.5331 262.763 23.6211 263.131 23.7971C263.507 23.9651 263.823 24.1971 264.079 24.4931C264.343 24.7811 264.543 25.1131 264.679 25.4891C264.823 25.8571 264.895 26.2411 264.895 26.6411C264.895 26.7291 264.887 26.8291 264.871 26.9411C264.863 27.0451 264.851 27.1451 264.835 27.2411H259.531V26.2811H264.187L263.659 26.7131C263.731 26.2971 263.691 25.9251 263.539 25.5971C263.387 25.2691 263.163 25.0091 262.867 24.8171C262.571 24.6251 262.235 24.5291 261.859 24.5291C261.483 24.5291 261.139 24.6251 260.827 24.8171C260.515 25.0091 260.271 25.2851 260.095 25.6451C259.927 25.9971 259.859 26.4171 259.891 26.9051C259.859 27.3771 259.931 27.7931 260.107 28.1531C260.291 28.5051 260.547 28.7811 260.875 28.9811C261.211 29.1731 261.575 29.2691 261.967 29.2691C262.399 29.2691 262.763 29.1691 263.059 28.9691C263.355 28.7691 263.595 28.5131 263.779 28.2011L264.715 28.6811C264.587 28.9771 264.387 29.2491 264.115 29.4971C263.851 29.7371 263.535 29.9291 263.167 30.0731C262.807 30.2171 262.403 30.2891 261.955 30.2891ZM266.35 30.1451V23.6771H267.442V24.8651L267.322 24.6971C267.474 24.3291 267.706 24.0571 268.018 23.8811C268.33 23.6971 268.71 23.6051 269.158 23.6051H269.554V24.6611H268.99C268.534 24.6611 268.166 24.8051 267.886 25.0931C267.606 25.3731 267.466 25.7731 267.466 26.2931V30.1451H266.35ZM273.522 30.2891C272.898 30.2891 272.342 30.1411 271.854 29.8451C271.366 29.5491 270.982 29.1451 270.702 28.6331C270.422 28.1131 270.282 27.5331 270.282 26.8931C270.282 26.2451 270.418 25.6691 270.69 25.1651C270.97 24.6611 271.346 24.2651 271.818 23.9771C272.298 23.6811 272.834 23.5331 273.426 23.5331C273.906 23.5331 274.33 23.6211 274.698 23.7971C275.074 23.9651 275.39 24.1971 275.646 24.4931C275.91 24.7811 276.11 25.1131 276.246 25.4891C276.39 25.8571 276.462 26.2411 276.462 26.6411C276.462 26.7291 276.454 26.8291 276.438 26.9411C276.43 27.0451 276.418 27.1451 276.402 27.2411H271.098V26.2811H275.754L275.226 26.7131C275.298 26.2971 275.258 25.9251 275.106 25.5971C274.954 25.2691 274.73 25.0091 274.434 24.8171C274.138 24.6251 273.802 24.5291 273.426 24.5291C273.05 24.5291 272.706 24.6251 272.394 24.8171C272.082 25.0091 271.838 25.2851 271.662 25.6451C271.494 25.9971 271.426 26.4171 271.458 26.9051C271.426 27.3771 271.498 27.7931 271.674 28.1531C271.858 28.5051 272.114 28.7811 272.442 28.9811C272.778 29.1731 273.142 29.2691 273.534 29.2691C273.966 29.2691 274.33 29.1691 274.626 28.9691C274.922 28.7691 275.162 28.5131 275.346 28.2011L276.282 28.6811C276.154 28.9771 275.954 29.2491 275.682 29.4971C275.418 29.7371 275.102 29.9291 274.734 30.0731C274.374 30.2171 273.97 30.2891 273.522 30.2891ZM277.281 30.1451V29.1971L281.133 24.3371L281.325 24.7451H277.473V23.6771H282.321V24.6251L278.505 29.4971L278.313 29.0771H282.345V30.1451H277.281ZM287.202 30.1451V22.2851H284.778V21.2051H290.778V22.2851H288.39V30.1451H287.202ZM293.912 30.2891C293.288 30.2891 292.732 30.1411 292.244 29.8451C291.756 29.5491 291.372 29.1451 291.092 28.6331C290.812 28.1131 290.672 27.5331 290.672 26.8931C290.672 26.2451 290.808 25.6691 291.08 25.1651C291.36 24.6611 291.736 24.2651 292.208 23.9771C292.688 23.6811 293.224 23.5331 293.816 23.5331C294.296 23.5331 294.72 23.6211 295.088 23.7971C295.464 23.9651 295.78 24.1971 296.036 24.4931C296.3 24.7811 296.5 25.1131 296.636 25.4891C296.78 25.8571 296.852 26.2411 296.852 26.6411C296.852 26.7291 296.844 26.8291 296.828 26.9411C296.82 27.0451 296.808 27.1451 296.792 27.2411H291.488V26.2811H296.144L295.616 26.7131C295.688 26.2971 295.648 25.9251 295.496 25.5971C295.344 25.2691 295.12 25.0091 294.824 24.8171C294.528 24.6251 294.192 24.5291 293.816 24.5291C293.44 24.5291 293.096 24.6251 292.784 24.8171C292.472 25.0091 292.228 25.2851 292.052 25.6451C291.884 25.9971 291.816 26.4171 291.848 26.9051C291.816 27.3771 291.888 27.7931 292.064 28.1531C292.248 28.5051 292.504 28.7811 292.832 28.9811C293.168 29.1731 293.532 29.2691 293.924 29.2691C294.356 29.2691 294.72 29.1691 295.016 28.9691C295.312 28.7691 295.552 28.5131 295.736 28.2011L296.672 28.6811C296.544 28.9771 296.344 29.2491 296.072 29.4971C295.808 29.7371 295.492 29.9291 295.124 30.0731C294.764 30.2171 294.36 30.2891 293.912 30.2891ZM298.307 30.1451V23.6771H299.399V24.8651L299.279 24.6971C299.431 24.3291 299.663 24.0571 299.975 23.8811C300.287 23.6971 300.667 23.6051 301.115 23.6051H301.511V24.6611H300.947C300.491 24.6611 300.123 24.8051 299.843 25.0931C299.563 25.3731 299.423 25.7731 299.423 26.2931V30.1451H298.307ZM305.503 30.2891C304.871 30.2891 304.307 30.1411 303.811 29.8451C303.323 29.5491 302.939 29.1451 302.659 28.6331C302.379 28.1211 302.239 27.5451 302.239 26.9051C302.239 26.2571 302.379 25.6811 302.659 25.1771C302.939 24.6731 303.323 24.2731 303.811 23.9771C304.307 23.6811 304.871 23.5331 305.503 23.5331C305.927 23.5331 306.323 23.6091 306.691 23.7611C307.059 23.9131 307.383 24.1171 307.663 24.3731C307.943 24.6291 308.147 24.9291 308.275 25.2731L307.279 25.7531C307.127 25.4171 306.895 25.1451 306.583 24.9371C306.271 24.7211 305.911 24.6131 305.503 24.6131C305.111 24.6131 304.755 24.7131 304.435 24.9131C304.123 25.1131 303.875 25.3851 303.691 25.7291C303.507 26.0731 303.415 26.4691 303.415 26.9171C303.415 27.3491 303.507 27.7411 303.691 28.0931C303.875 28.4371 304.123 28.7091 304.435 28.9091C304.755 29.1091 305.111 29.2091 305.503 29.2091C305.911 29.2091 306.271 29.1051 306.583 28.8971C306.895 28.6811 307.127 28.3971 307.279 28.0451L308.275 28.5491C308.147 28.8851 307.943 29.1851 307.663 29.4491C307.383 29.7051 307.059 29.9091 306.691 30.0611C306.323 30.2131 305.927 30.2891 305.503 30.2891ZM309.733 30.1451V23.6771H310.849V30.1451H309.733ZM309.733 22.6451V21.2051H310.849V22.6451H309.733ZM312.581 30.1451V21.0611H313.697V24.9371L313.493 24.8291C313.653 24.4211 313.909 24.1051 314.261 23.8811C314.621 23.6491 315.041 23.5331 315.521 23.5331C315.985 23.5331 316.397 23.6371 316.757 23.8451C317.125 24.0531 317.413 24.3411 317.621 24.7091C317.837 25.0771 317.945 25.4931 317.945 25.9571V30.1451H316.817V26.3171C316.817 25.9571 316.749 25.6531 316.613 25.4051C316.485 25.1571 316.305 24.9651 316.073 24.8291C315.841 24.6851 315.573 24.6131 315.269 24.6131C314.973 24.6131 314.705 24.6851 314.465 24.8291C314.225 24.9651 314.037 25.1611 313.901 25.4171C313.765 25.6651 313.697 25.9651 313.697 26.3171V30.1451H312.581ZM319.542 30.1451V21.0611H320.658V30.1451H319.542ZM325.365 30.2891C324.741 30.2891 324.185 30.1411 323.697 29.8451C323.209 29.5491 322.825 29.1451 322.545 28.6331C322.265 28.1131 322.125 27.5331 322.125 26.8931C322.125 26.2451 322.261 25.6691 322.533 25.1651C322.813 24.6611 323.189 24.2651 323.661 23.9771C324.141 23.6811 324.677 23.5331 325.269 23.5331C325.749 23.5331 326.173 23.6211 326.541 23.7971C326.917 23.9651 327.233 24.1971 327.489 24.4931C327.753 24.7811 327.953 25.1131 328.089 25.4891C328.233 25.8571 328.305 26.2411 328.305 26.6411C328.305 26.7291 328.297 26.8291 328.281 26.9411C328.273 27.0451 328.261 27.1451 328.245 27.2411H322.941V26.2811H327.597L327.069 26.7131C327.141 26.2971 327.101 25.9251 326.949 25.5971C326.797 25.2691 326.573 25.0091 326.277 24.8171C325.981 24.6251 325.645 24.5291 325.269 24.5291C324.893 24.5291 324.549 24.6251 324.237 24.8171C323.925 25.0091 323.681 25.2851 323.505 25.6451C323.337 25.9971 323.269 26.4171 323.301 26.9051C323.269 27.3771 323.341 27.7931 323.517 28.1531C323.701 28.5051 323.957 28.7811 324.285 28.9811C324.621 29.1731 324.985 29.2691 325.377 29.2691C325.809 29.2691 326.173 29.1691 326.469 28.9691C326.765 28.7691 327.005 28.5131 327.189 28.2011L328.125 28.6811C327.997 28.9771 327.797 29.2491 327.525 29.4971C327.261 29.7371 326.945 29.9291 326.577 30.0731C326.217 30.2171 325.813 30.2891 325.365 30.2891ZM329.76 30.1451V23.6771H330.852V24.8651L330.732 24.6971C330.884 24.3291 331.116 24.0571 331.428 23.8811C331.74 23.6971 332.12 23.6051 332.568 23.6051H332.964V24.6611H332.4C331.944 24.6611 331.576 24.8051 331.296 25.0931C331.016 25.3731 330.876 25.7731 330.876 26.2931V30.1451H329.76ZM333.956 30.1451V23.6771H335.072V30.1451H333.956ZM333.956 22.6451V21.2051H335.072V22.6451H333.956ZM337.259 30.1451V28.7051H338.423V30.1451H337.259Z" fill="#E2E8F0"/>
<path d="M200.822 20.2451H203.254V20.7251H200.822V20.2451ZM206.808 20.2451H262.264V20.7251H206.808V20.2451Z" fill="#E2E8F0"/>
<path d="M335.564 20.2451H371.822V20.7251H335.564V20.2451ZM61.252 32.2451H124.99V32.7251H61.252V32.2451Z" fill="#E2E8F0"/>
<a href="https://openai.com/terms">
<rect fill="black" fill-opacity="0" x="200.822" y="5.44" width="61.4416" height="15.12"/>
</a>
<a href="https://openai.com/privacy">
<rect fill="black" fill-opacity="0" x="335.564" y="5.44" width="38.3338" height="15.12"/>
</a>
<a href="https://openai.com/privacy">
<rect fill="black" fill-opacity="0" x="61.252" y="17.44" width="63.7385" height="15.12"/>
</a>
</svg>
