<svg width="138" height="27" viewBox="0 0 138 27" fill="none" xmlns="http://www.w3.org/2000/svg">
<g clip-path="url(#clip0_2208_2509)">
<path d="M49.1083 18.9925C47.6499 20.4146 45.8374 21.1257 43.674 21.1257C41.5106 21.1257 39.6952 20.4146 38.2337 18.9925C36.7723 17.5704 36.04 15.8034 36.04 13.6944C36.04 11.5855 36.7723 9.81842 38.2337 8.39631C39.6952 6.97421 41.5106 6.26315 43.674 6.26315C45.8374 6.26315 47.6499 6.97421 49.1083 8.39631C50.5667 9.81842 51.2959 11.5855 51.2959 13.6944C51.2959 15.8034 50.5667 17.5704 49.1083 18.9925ZM43.674 17.6218C44.7966 17.6218 45.7255 17.2467 46.4577 16.5023C47.19 15.755 47.5591 14.82 47.5591 13.6974C47.5591 12.5749 47.193 11.6399 46.4577 10.8926C45.7225 10.1452 44.7966 9.77303 43.674 9.77303C42.5515 9.77303 41.6316 10.1482 40.8873 10.9016C40.146 11.6551 39.7738 12.587 39.7738 13.7005C39.7738 14.8139 40.146 15.7489 40.8873 16.4993C41.6286 17.2497 42.5575 17.6279 43.674 17.6279V17.6218Z" fill="white"/>
<path d="M62.1094 6.26315C63.4044 6.26315 64.5784 6.58691 65.6344 7.23442C66.6904 7.88193 67.5165 8.77453 68.1125 9.91222C68.7086 11.0499 69.0082 12.3086 69.0082 13.6944C69.0082 15.0802 68.7086 16.3419 68.1125 17.4766C67.5134 18.6143 66.6874 19.5069 65.6344 20.1544C64.5815 20.8019 63.4044 21.1257 62.1094 21.1257C60.2425 21.1257 58.7024 20.4479 57.4891 19.0893V26.0728H53.8763V6.60204H57.4891V8.28738C58.6933 6.9379 60.2335 6.26315 62.1094 6.26315ZM61.3893 17.6218C62.5119 17.6218 63.4438 17.2467 64.1821 16.5023C64.9204 15.755 65.2895 14.82 65.2895 13.6974C65.2895 12.5749 64.9204 11.6399 64.1821 10.8926C63.4438 10.1452 62.5119 9.77303 61.3893 9.77303C60.2667 9.77303 59.3469 10.1482 58.6056 10.9016C57.8643 11.6551 57.4921 12.587 57.4921 13.7005C57.4921 14.8139 57.8643 15.7489 58.6056 16.4993C59.3469 17.2497 60.2758 17.6279 61.3893 17.6279V17.6218Z" fill="white"/>
<path d="M75.1056 3.85769C74.6669 4.2934 74.1253 4.51126 73.4808 4.51126C72.8363 4.51126 72.2977 4.2934 71.856 3.85769C71.4172 3.42198 71.1964 2.88945 71.1964 2.25404C71.1964 1.61863 71.4172 1.0861 71.856 0.65039C72.2947 0.214681 72.8363 -0.00317383 73.4808 -0.00317383C74.1253 -0.00317383 74.6639 0.214681 75.1056 0.65039C75.5444 1.0861 75.7652 1.61863 75.7652 2.25404C75.7652 2.88945 75.5444 3.42198 75.1056 3.85769ZM71.6744 20.7868V6.60205H75.2872V20.7868H71.6744Z" fill="white"/>
<path d="M86.8635 6.26315C88.5398 6.26315 89.8832 6.7624 90.8908 7.76393C91.9014 8.76545 92.4067 10.0998 92.4067 11.764V20.7838H88.7788V12.9319C88.7788 11.9728 88.4944 11.2042 87.9286 10.6293C87.3628 10.0544 86.6093 9.76698 85.6653 9.76698C84.7213 9.76698 83.8801 10.0635 83.2689 10.6566C82.6577 11.2496 82.3521 12.0302 82.3521 13.0015V20.7868H78.7393V6.60204H82.3521V8.17846C83.4928 6.90159 84.9966 6.26315 86.8635 6.26315Z" fill="white"/>
<path d="M99.0575 3.85769C98.6187 4.2934 98.0771 4.51126 97.4326 4.51126C96.7882 4.51126 96.2496 4.2934 95.8078 3.85769C95.3691 3.42198 95.1482 2.88945 95.1482 2.25404C95.1482 1.61863 95.3691 1.0861 95.8078 0.65039C96.2465 0.214681 96.7882 -0.00317383 97.4326 -0.00317383C98.0771 -0.00317383 98.6157 0.214681 99.0575 0.65039C99.4962 1.0861 99.7171 1.61863 99.7171 2.25404C99.7171 2.88945 99.4962 3.42198 99.0575 3.85769ZM95.6263 20.7868V6.60205H99.239V20.7868H95.6263Z" fill="white"/>
<path d="M114.891 18.9925C113.433 20.4146 111.621 21.1257 109.457 21.1257C107.294 21.1257 105.478 20.4146 104.017 18.9925C102.555 17.5704 101.823 15.8034 101.823 13.6944C101.823 11.5855 102.555 9.81842 104.017 8.39631C105.478 6.97421 107.294 6.26315 109.457 6.26315C111.621 6.26315 113.433 6.97421 114.891 8.39631C116.35 9.81842 117.079 11.5855 117.079 13.6944C117.079 15.8034 116.35 17.5704 114.891 18.9925ZM109.457 17.6218C110.58 17.6218 111.509 17.2467 112.241 16.5023C112.973 15.755 113.342 14.82 113.342 13.6974C113.342 12.5749 112.976 11.6399 112.241 10.8926C111.506 10.1452 110.58 9.77303 109.457 9.77303C108.335 9.77303 107.415 10.1482 106.67 10.9016C105.929 11.6551 105.557 12.587 105.557 13.7005C105.557 14.8139 105.929 15.7489 106.67 16.4993C107.412 17.2497 108.341 17.6279 109.457 17.6279V17.6218Z" fill="white"/>
<path d="M127.784 6.26315C129.46 6.26315 130.804 6.7624 131.811 7.76393C132.822 8.76545 133.327 10.0998 133.327 11.764V20.7838H129.699V12.9319C129.699 11.9728 129.415 11.2042 128.849 10.6293C128.283 10.0544 127.53 9.76698 126.586 9.76698C125.642 9.76698 124.801 10.0635 124.189 10.6566C123.578 11.2496 123.273 12.0302 123.273 13.0015V20.7868H119.66V6.60204H123.273V8.17846C124.413 6.90159 125.917 6.26315 127.784 6.26315Z" fill="white"/>
<path d="M18.7478 24.8079C12.3846 25.295 6.81117 20.5113 6.32402 14.1421C6.30284 13.8516 6.29074 13.5581 6.29074 13.2676C6.29074 10.3538 7.38001 7.56712 9.3528 5.42488C10.2515 4.45059 11.3014 3.64271 12.4754 3.02546C13.2227 2.63211 14.0094 2.32348 14.8203 2.1026C13.9308 2.1964 13.0533 2.34164 12.191 2.53831C10.9686 3.1828 9.87323 4.02698 8.93525 5.04364C6.8626 7.29177 5.72189 10.2116 5.72189 13.2707C5.72189 13.5763 5.734 13.8849 5.75518 14.1875C6.26653 20.8653 12.1123 25.885 18.7871 25.3707C19.0473 25.3495 20.4331 25.2285 22.1397 24.8018C22.4997 24.7111 22.9082 24.5991 23.3469 24.4629C24.7509 23.9244 25.9884 23.1982 27.0384 22.3298C25.0958 23.3555 23.2683 23.9365 22.0005 24.2542C20.3363 24.6717 18.9959 24.7897 18.7448 24.8079H18.7478Z" fill="white"/>
<path d="M5.19547 14.2292C5.17127 13.9115 5.15917 13.5878 5.15917 13.2701C5.15917 10.0719 6.35434 7.01282 8.52078 4.66181C9.07147 4.06573 9.67359 3.52412 10.3211 3.04605C9.79462 3.21549 9.27722 3.40006 8.77192 3.60582C8.54196 3.82065 8.32108 4.04758 8.10625 4.28056C5.84299 6.73747 4.59637 9.92965 4.59637 13.2701C4.59637 13.6029 4.60848 13.9418 4.63571 14.2716C4.98367 18.8102 7.58582 22.6499 11.2591 24.768C12.0912 24.9949 12.9444 25.1734 13.8068 25.3065C9.12896 23.7211 5.60093 19.4638 5.1985 14.2323L5.19547 14.2292Z" fill="white"/>
<path d="M4.06996 14.314C4.04273 13.9691 4.03063 13.6151 4.03063 13.2671C4.03063 9.9267 5.2258 6.72847 7.40737 4.21104C6.98074 4.41982 6.56318 4.64373 6.16378 4.87671C4.4149 7.31245 3.46783 10.2323 3.46783 13.2671C3.46783 13.6302 3.48296 13.9963 3.5102 14.3564C3.78554 17.9419 5.35591 21.122 7.72507 23.476C8.24853 23.7211 8.79014 23.9481 9.34386 24.1538C6.39072 21.8391 4.38161 18.3413 4.07299 14.314H4.06996Z" fill="white"/>
<path d="M2.90209 13.267C2.90209 10.5438 3.63735 7.90834 5.00802 5.60876C4.6298 5.86898 4.26671 6.1413 3.92177 6.42572C2.88394 8.53467 2.33627 10.8706 2.33627 13.267C2.33627 13.6573 2.3514 14.0506 2.38166 14.441C2.59346 17.2035 3.51934 19.7421 4.96263 21.8934C5.38321 22.1869 5.82497 22.4622 6.28186 22.7255C4.40589 20.435 3.18651 17.5696 2.94445 14.3986C2.91722 14.0234 2.90209 13.6421 2.90209 13.267Z" fill="white"/>
<path d="M1.77321 13.2683C1.77321 11.2198 2.16051 9.21677 2.89577 7.35291C2.54176 7.70389 2.21497 8.07001 1.91845 8.4452C1.44946 9.99439 1.2074 11.6162 1.2074 13.2683C1.2074 13.6858 1.22253 14.1094 1.25581 14.527C1.40105 16.409 1.85188 18.1912 2.55991 19.8342C2.91998 20.2184 3.3103 20.5906 3.72785 20.9446C2.67186 19.0081 1.99712 16.8205 1.8186 14.4816C1.78834 14.0792 1.77321 13.6707 1.77321 13.2652V13.2683Z" fill="white"/>
<path d="M0.644674 13.2673C0.644674 12.1024 0.762679 10.9496 0.98961 9.82399C0.599288 10.5229 0.305789 11.2491 0.124244 11.9995C0.0939862 12.4201 0.0788574 12.8407 0.0788574 13.2643C0.0788574 13.7121 0.097012 14.1629 0.130295 14.6077C0.172656 15.1584 0.239223 15.703 0.329995 16.2386C0.59021 16.9981 0.965404 17.7333 1.43742 18.4323C1.05013 17.2008 0.795962 15.9088 0.693086 14.5654C0.659803 14.1357 0.644674 13.697 0.644674 13.2643V13.2673Z" fill="white"/>
<path d="M30.0305 14.9947C30.4026 14.559 30.7536 14.1021 31.0774 13.624C31.0743 13.3003 31.0562 12.9795 31.0259 12.6618C30.7415 13.1278 30.4359 13.5756 30.1061 14.0053C30.1061 13.9024 30.1122 13.7965 30.1122 13.6906C30.1122 13.4788 30.1061 13.27 30.094 13.0642C30.2544 12.8313 30.4087 12.5922 30.5569 12.3471C30.678 12.1505 30.7929 11.9508 30.9019 11.748C30.8504 11.4576 30.7869 11.1701 30.7113 10.8857C30.5176 11.2851 30.3058 11.6754 30.0758 12.0536C30.0516 12.093 30.0274 12.1293 30.0063 12.1686C29.9669 11.8812 29.9125 11.5998 29.8519 11.3184C30.0758 10.916 30.2816 10.4984 30.4662 10.0718C30.3754 9.81458 30.2755 9.56042 30.1666 9.30928C30.0093 9.72079 29.8338 10.1232 29.6371 10.5135C29.5584 10.2563 29.4677 10.0022 29.3708 9.75407C29.5373 9.37888 29.6885 8.99158 29.8217 8.5952C29.7006 8.36827 29.5736 8.14739 29.4374 7.92954C29.3285 8.30776 29.2014 8.6769 29.0592 9.03999C28.9503 8.81003 28.8323 8.58613 28.7052 8.36827C28.8232 8.02334 28.9291 7.67235 29.0199 7.30926C28.8776 7.11258 28.7294 6.92196 28.5751 6.73134C28.5024 7.07325 28.4177 7.40911 28.3179 7.73589C28.1847 7.53619 28.0425 7.33952 27.8973 7.14587C27.979 6.83724 28.0486 6.51954 28.1061 6.19578C27.9487 6.02634 27.7823 5.86295 27.6129 5.70258C27.5705 6.00818 27.513 6.30471 27.4495 6.59821C27.2982 6.42574 27.1409 6.25629 26.9775 6.0929C27.0289 5.81756 27.0713 5.53616 27.1015 5.24872C26.9321 5.10651 26.7566 4.96732 26.575 4.83116C26.5539 5.10348 26.5206 5.36672 26.4812 5.62694C26.3148 5.4817 26.1454 5.33949 25.9699 5.20333C26.0001 4.95825 26.0213 4.70711 26.0334 4.44992C25.8549 4.32889 25.6703 4.21391 25.4827 4.10196C25.4767 4.34704 25.4616 4.58305 25.4404 4.81906C25.2649 4.69803 25.0833 4.58305 24.8988 4.4711C24.9139 4.24719 24.92 4.02026 24.92 3.78728C24.7414 3.69045 24.5569 3.59968 24.3693 3.50891C24.3602 3.58758 24.3541 3.66927 24.3541 3.75097C24.3541 3.89015 24.3511 4.02631 24.3451 4.15945C24.1605 4.06262 23.9759 3.97185 23.7883 3.88713C23.7883 3.84174 23.7883 3.79635 23.7883 3.75097C23.7883 3.58455 23.8034 3.42419 23.8337 3.26685C23.6582 3.1912 23.4827 3.12161 23.3012 3.05202C23.2558 3.24567 23.2316 3.44537 23.2225 3.65112C23.041 3.58153 22.8564 3.51496 22.6688 3.45444C22.6839 3.25172 22.7172 3.05202 22.7656 2.8614C22.5871 2.80088 22.4086 2.74339 22.227 2.68893C22.1756 2.8856 22.1393 3.0853 22.1181 3.29105C21.9366 3.24264 21.752 3.19725 21.5644 3.16095C21.5916 2.94914 21.631 2.74037 21.6824 2.53764C21.5008 2.49225 21.3193 2.44687 21.1317 2.40451C21.0772 2.61631 21.0349 2.83416 21.0046 3.05807C20.8201 3.03084 20.6325 3.00663 20.4449 2.98545C20.4751 2.74944 20.5205 2.51646 20.578 2.29255C20.3934 2.25927 20.2089 2.22599 20.0213 2.19573C19.9607 2.44082 19.9153 2.68893 19.8821 2.94309C19.7035 2.93401 19.5281 2.93099 19.3465 2.93099C19.3344 2.93099 19.3253 2.93099 19.3132 2.93099C19.3465 2.65564 19.3919 2.38333 19.4554 2.11706C19.2678 2.09285 19.0802 2.0747 18.8896 2.05654C18.8231 2.34702 18.7746 2.64354 18.7444 2.94612C18.5538 2.95822 18.3631 2.97335 18.1725 2.99453C18.2028 2.6617 18.2542 2.33491 18.3208 2.01418C18.1332 2.00208 17.9426 1.993 17.7489 1.98695C17.6763 2.34097 17.6249 2.70406 17.5976 3.0732C17.404 3.10346 17.2134 3.13977 17.0258 3.18213C17.05 2.77365 17.1014 2.37122 17.177 1.97787C17.1407 1.97787 17.1074 1.97787 17.0711 1.97787C16.9138 1.97787 16.7595 1.97787 16.6021 1.98393C16.587 2.0747 16.5719 2.16547 16.5568 2.25624C16.1937 2.35912 15.6944 2.462 15.3797 2.53764C14.4569 2.74944 13.5673 3.07925 12.7292 3.52101C11.6127 4.10801 10.6142 4.87655 9.76091 5.80243C7.88192 7.84179 6.84711 10.4893 6.84711 13.2639C6.84711 13.5393 6.85618 13.8207 6.87736 14.096C7.30702 19.6967 11.8729 24.0084 17.3435 24.2595C17.991 24.3806 18.6627 24.4471 19.3465 24.4471C21.758 24.4471 23.982 23.6544 25.7762 22.314C26.4177 22.0175 27.0834 21.6725 27.7551 21.2701C28.0546 21.0916 28.3451 20.904 28.6326 20.7134C28.9956 20.2655 29.3194 19.7966 29.6068 19.3034C28.9351 19.8389 28.2211 20.3321 27.4676 20.786C27.4434 20.8011 27.4223 20.8132 27.398 20.8253C27.7672 20.4108 28.1031 19.969 28.4026 19.5C29.0531 19.0401 29.6674 18.5439 30.2423 18.0144C30.4026 17.6241 30.5418 17.2247 30.6568 16.8162C30.1636 17.3306 29.6371 17.8177 29.0804 18.2716C29.2559 17.8964 29.4132 17.5121 29.5463 17.1157C30.0305 16.6649 30.4843 16.1899 30.911 15.6906C30.9715 15.3426 31.0138 14.9856 31.0411 14.6286C30.6719 15.1157 30.2725 15.5817 29.8489 16.0234C29.9246 15.6846 29.982 15.3396 30.0244 14.9886L30.0305 14.9947ZM7.44621 14.0567C7.42503 13.7965 7.41595 13.5302 7.41595 13.267C7.41595 10.6376 8.39629 8.12319 10.1815 6.18973C10.9924 5.30923 11.9395 4.58003 12.9985 4.02329C13.8729 3.56337 15.4645 3.04597 16.4932 2.83114C16.4781 2.99453 16.466 3.16095 16.4599 3.32736C16.0636 3.43629 15.6793 3.56942 15.3041 3.72374C13.5068 4.20483 11.8729 5.1882 10.599 6.57097C8.9137 8.40156 7.98479 10.7798 7.98479 13.267C7.98479 13.5151 7.99387 13.7662 8.01202 14.0143C8.19054 16.3321 9.15576 18.4047 10.6293 19.9842C11.4493 21.1218 12.4871 22.0901 13.6823 22.8314C10.2632 21.3276 7.75786 18.0356 7.45226 14.0537L7.44621 14.0567ZM8.62323 14.447C8.60205 14.2897 8.58692 14.1323 8.57481 13.972C8.55666 13.739 8.54758 13.503 8.54758 13.267C8.54758 11.1126 9.28587 9.04604 10.6384 7.38793C9.35546 9.16102 8.59599 11.3365 8.59599 13.6936C8.59599 13.9478 8.60507 14.1989 8.62323 14.447ZM20.5931 20.6347C20.1877 20.7073 19.7792 20.7406 19.3616 20.7557C16.4569 20.5984 14.23 19.3366 12.9652 16.6558C11.2224 12.9674 13.0318 8.53771 16.9138 7.10956C17.2769 6.97642 17.6551 6.90078 18.0333 6.82211C18.224 6.78278 18.4085 6.70713 18.6082 6.68293C20.109 6.50441 21.522 6.78883 22.8261 7.53922C24.8443 8.70111 26.0334 10.4591 26.3421 12.7677C26.8413 16.5136 24.2966 19.972 20.5931 20.6347Z" fill="white"/>
<path d="M15.5009 13.7274C15.5009 11.3915 17.4344 9.86046 19.4132 9.83323C21.4919 9.80298 23.2015 11.5942 23.2045 13.7153C23.2045 15.8303 21.4768 17.558 19.3557 17.561C17.2316 17.564 15.5009 15.8454 15.5009 13.7304V13.7274Z" fill="white"/>
</g>
<defs>
<clipPath id="clip0_2208_2509">
<rect width="133.248" height="26.0729" fill="white" transform="translate(0.0788574)"/>
</clipPath>
</defs>
</svg>
