<svg width="17" height="17" viewBox="0 0 17 17" fill="none" xmlns="http://www.w3.org/2000/svg">
<path d="M8.47607 11.3701L13.7861 5.7971C13.8747 5.70411 13.9242 5.58057 13.9242 5.4521C13.9242 5.32363 13.8747 5.20009 13.7861 5.1071L13.7801 5.1011C13.7371 5.05586 13.6854 5.01984 13.628 4.99523C13.5707 4.97062 13.509 4.95792 13.4466 4.95792C13.3842 4.95792 13.3224 4.97062 13.2651 4.99523C13.2078 5.01984 13.156 5.05586 13.1131 5.1011L8.11307 10.3491L3.11507 5.1011C3.0721 5.05586 3.02037 5.01984 2.96304 4.99523C2.9057 4.97061 2.84396 4.95792 2.78157 4.95792C2.71918 4.95792 2.65744 4.97061 2.6001 4.99523C2.54277 5.01984 2.49104 5.05586 2.44807 5.1011L2.44207 5.1071C2.35342 5.20009 2.30397 5.32363 2.30397 5.4521C2.30397 5.58057 2.35342 5.70411 2.44207 5.7971L7.75207 11.3701C7.79877 11.4191 7.85493 11.4581 7.91715 11.4848C7.97938 11.5115 8.04637 11.5252 8.11407 11.5252C8.18177 11.5252 8.24876 11.5115 8.31098 11.4848C8.37321 11.4581 8.42937 11.4191 8.47607 11.3701Z" fill="white"/>
</svg>
