<svg width="25" height="24" viewBox="0 0 25 24" fill="none" xmlns="http://www.w3.org/2000/svg">
<path d="M4.46463 17.5625C4.52088 17.3572 4.3976 17.0717 4.27994 16.8659C4.24347 16.8045 4.20372 16.745 4.16088 16.6878C3.15178 15.1575 2.61394 13.3647 2.614 11.5316C2.59713 6.26984 6.96025 2 12.3556 2C17.0609 2 20.989 5.25969 21.9063 9.58672C22.044 10.2282 22.1136 10.8825 22.114 11.5386C22.114 16.8078 17.9192 21.1447 12.5238 21.1447C11.6656 21.1447 10.5082 20.9291 9.87681 20.7523C9.24541 20.5756 8.61494 20.3413 8.45228 20.2784C8.28577 20.2145 8.10894 20.1816 7.93056 20.1814C7.73605 20.1807 7.54343 20.2195 7.36431 20.2953L4.18431 21.4428C4.11482 21.4729 4.04117 21.4921 3.96588 21.5C3.90632 21.4998 3.84739 21.4878 3.7925 21.4647C3.73761 21.4416 3.68785 21.4079 3.64609 21.3654C3.60432 21.323 3.5714 21.2726 3.54921 21.2174C3.52702 21.1621 3.51601 21.103 3.51681 21.0434C3.52072 20.9912 3.53015 20.9395 3.54494 20.8892L4.46463 17.5625Z" stroke="white" stroke-width="1.49989" stroke-miterlimit="10" stroke-linecap="round"/>
<path d="M7.61401 13.2158C8.44244 13.2158 9.11401 12.5582 9.11401 11.7471C9.11401 10.9359 8.44244 10.2783 7.61401 10.2783C6.78559 10.2783 6.11401 10.9359 6.11401 11.7471C6.11401 12.5582 6.78559 13.2158 7.61401 13.2158Z" fill="white"/>
<path d="M12.116 13.2158C12.9444 13.2158 13.616 12.5582 13.616 11.7471C13.616 10.9359 12.9444 10.2783 12.116 10.2783C11.2875 10.2783 10.616 10.9359 10.616 11.7471C10.616 12.5582 11.2875 13.2158 12.116 13.2158Z" fill="white"/>
<path d="M16.614 13.2158C17.4424 13.2158 18.114 12.5582 18.114 11.7471C18.114 10.9359 17.4424 10.2783 16.614 10.2783C15.7856 10.2783 15.114 10.9359 15.114 11.7471C15.114 12.5582 15.7856 13.2158 16.614 13.2158Z" fill="white"/>
</svg>
