<svg width="380" height="53" viewBox="0 0 380 53" fill="none" xmlns="http://www.w3.org/2000/svg">
<rect x="0.5" y="0.975342" width="379" height="51" rx="13.5" stroke="#CBD5E1"/>
<path d="M36.5648 20.2227H23.4398C22.5768 20.2227 21.8773 20.9223 21.8773 21.7852V31.1602C21.8773 32.0232 22.5768 32.7227 23.4398 32.7227H36.5648C37.4277 32.7227 38.1273 32.0232 38.1273 31.1602V21.7852C38.1273 20.9223 37.4277 20.2227 36.5648 20.2227Z" stroke="#94A3B8" stroke-width="1.49989" stroke-linecap="round" stroke-linejoin="round"/>
<path d="M24.3771 22.7229L30.0021 27.0979L35.6271 22.7229" stroke="#94A3B8" stroke-width="1.49989" stroke-linecap="round" stroke-linejoin="round"/>
<path d="M51.232 32.4753V22.0453H57.952V23.0953H52.352V26.7213H57.672V27.7713H52.352V31.4253H57.952V32.4753H51.232ZM59.6083 29.2133V28.2333H64.5083V29.2133H59.6083ZM66.6229 35.2753V24.9713H67.6729V26.6513L67.5049 26.3573C67.8036 25.8813 68.2003 25.5033 68.6949 25.2233C69.1989 24.9433 69.7729 24.8033 70.4169 24.8033C71.1263 24.8033 71.7563 24.976 72.3069 25.3213C72.8669 25.6573 73.3056 26.1193 73.6229 26.7073C73.9496 27.2953 74.1129 27.9673 74.1129 28.7233C74.1129 29.47 73.9496 30.142 73.6229 30.7393C73.3056 31.3273 72.8669 31.794 72.3069 32.1393C71.7563 32.4753 71.1263 32.6433 70.4169 32.6433C69.7729 32.6433 69.1896 32.4987 68.6669 32.2093C68.1536 31.9107 67.7663 31.4907 67.5049 30.9493L67.6729 30.7953V35.2753H66.6229ZM70.3609 31.5933C70.8649 31.5933 71.3129 31.4673 71.7049 31.2153C72.1063 30.9633 72.4189 30.6227 72.6429 30.1933C72.8763 29.7547 72.9929 29.2647 72.9929 28.7233C72.9929 28.1727 72.8763 27.6827 72.6429 27.2533C72.4189 26.824 72.1063 26.4833 71.7049 26.2313C71.3129 25.9793 70.8649 25.8533 70.3609 25.8533C69.8569 25.8533 69.3996 25.9793 68.9889 26.2313C68.5876 26.4833 68.2656 26.8287 68.0229 27.2673C67.7896 27.6967 67.6729 28.182 67.6729 28.7233C67.6729 29.2647 67.7896 29.7547 68.0229 30.1933C68.2656 30.6227 68.5876 30.9633 68.9889 31.2153C69.3996 31.4673 69.8569 31.5933 70.3609 31.5933ZM79.4748 32.6433C78.7655 32.6433 78.1215 32.4753 77.5428 32.1393C76.9641 31.794 76.5021 31.3273 76.1568 30.7393C75.8208 30.142 75.6528 29.4653 75.6528 28.7093C75.6528 27.9627 75.8208 27.2953 76.1568 26.7073C76.4928 26.1193 76.9455 25.6573 77.5148 25.3213C78.0935 24.976 78.7468 24.8033 79.4748 24.8033C80.2028 24.8033 80.8515 24.9713 81.4208 25.3073C81.9995 25.6433 82.4521 26.1053 82.7788 26.6933C83.1148 27.2813 83.2828 27.9533 83.2828 28.7093C83.2828 29.4747 83.1101 30.156 82.7648 30.7533C82.4195 31.3413 81.9575 31.8033 81.3788 32.1393C80.8095 32.4753 80.1748 32.6433 79.4748 32.6433ZM79.4748 31.5933C79.9788 31.5933 80.4315 31.4673 80.8328 31.2153C81.2435 30.9633 81.5655 30.618 81.7988 30.1793C82.0415 29.7407 82.1628 29.2507 82.1628 28.7093C82.1628 28.168 82.0415 27.6827 81.7988 27.2533C81.5655 26.824 81.2435 26.4833 80.8328 26.2313C80.4315 25.9793 79.9788 25.8533 79.4748 25.8533C78.9708 25.8533 78.5135 25.9793 78.1028 26.2313C77.7015 26.4833 77.3795 26.824 77.1368 27.2533C76.8941 27.6827 76.7728 28.168 76.7728 28.7093C76.7728 29.2507 76.8941 29.7407 77.1368 30.1793C77.3795 30.618 77.7015 30.9633 78.1028 31.2153C78.5135 31.4673 78.9708 31.5933 79.4748 31.5933ZM87.7386 32.6433C87.02 32.6433 86.39 32.4613 85.8486 32.0973C85.3073 31.7333 84.9153 31.2387 84.6726 30.6133L85.5546 30.1933C85.7693 30.6507 86.068 31.0147 86.4506 31.2853C86.8426 31.556 87.272 31.6913 87.7386 31.6913C88.1866 31.6913 88.5646 31.584 88.8726 31.3693C89.1806 31.1453 89.3346 30.856 89.3346 30.5013C89.3346 30.24 89.26 30.0347 89.1106 29.8853C88.9613 29.7267 88.7886 29.6053 88.5926 29.5213C88.3966 29.4373 88.224 29.3767 88.0746 29.3393L86.9966 29.0313C86.306 28.8353 85.8066 28.56 85.4986 28.2053C85.1906 27.8507 85.0366 27.44 85.0366 26.9733C85.0366 26.5347 85.1486 26.152 85.3726 25.8253C85.5966 25.4987 85.9 25.2467 86.2826 25.0693C86.6653 24.892 87.09 24.8033 87.5566 24.8033C88.1913 24.8033 88.7653 24.9713 89.2786 25.3073C89.8013 25.634 90.17 26.0913 90.3846 26.6793L89.4886 27.0993C89.302 26.6793 89.0313 26.3527 88.6766 26.1193C88.3313 25.8767 87.944 25.7553 87.5146 25.7553C87.0946 25.7553 86.7586 25.8627 86.5066 26.0773C86.2546 26.292 86.1286 26.5627 86.1286 26.8893C86.1286 27.1413 86.194 27.342 86.3246 27.4913C86.4553 27.6407 86.6046 27.7527 86.7726 27.8273C86.95 27.902 87.104 27.958 87.2346 27.9953L88.4806 28.3593C89.0873 28.5367 89.5586 28.812 89.8946 29.1853C90.24 29.5587 90.4126 29.9973 90.4126 30.5013C90.4126 30.912 90.296 31.2807 90.0626 31.6073C89.8386 31.934 89.526 32.1907 89.1246 32.3773C88.7233 32.5547 88.2613 32.6433 87.7386 32.6433ZM95.1277 32.5593C94.4557 32.5593 93.9377 32.3633 93.5737 31.9713C93.2097 31.5793 93.0277 31.0193 93.0277 30.2913V26.0213H91.6417V24.9713H91.9917C92.309 24.9713 92.561 24.8687 92.7477 24.6633C92.9344 24.4487 93.0277 24.1827 93.0277 23.8653V23.2353H94.0777V24.9713H95.7297V26.0213H94.0777V30.2913C94.0777 30.5433 94.115 30.7673 94.1897 30.9633C94.2644 31.15 94.3904 31.2993 94.5677 31.4113C94.7544 31.5233 95.0017 31.5793 95.3097 31.5793C95.3844 31.5793 95.473 31.5747 95.5757 31.5653C95.6784 31.556 95.767 31.5467 95.8417 31.5373V32.4753C95.7297 32.5033 95.6037 32.522 95.4637 32.5313C95.3237 32.55 95.2117 32.5593 95.1277 32.5593ZM99.7187 32.6433C99.2427 32.6433 98.818 32.5547 98.4447 32.3773C98.0714 32.1907 97.7774 31.9387 97.5627 31.6213C97.348 31.304 97.2407 30.94 97.2407 30.5293C97.2407 30.1373 97.3247 29.7827 97.4927 29.4653C97.6607 29.1387 97.922 28.8633 98.2767 28.6393C98.6314 28.4153 99.084 28.2567 99.6347 28.1633L102.575 27.6733V28.6253L99.8867 29.0733C99.3454 29.1667 98.9534 29.3393 98.7107 29.5913C98.4774 29.8433 98.3607 30.142 98.3607 30.4873C98.3607 30.8233 98.4914 31.108 98.7527 31.3413C99.0234 31.5747 99.3687 31.6913 99.7887 31.6913C100.302 31.6913 100.75 31.584 101.133 31.3693C101.515 31.1453 101.814 30.8467 102.029 30.4733C102.243 30.1 102.351 29.6847 102.351 29.2273V27.3233C102.351 26.8753 102.187 26.5113 101.861 26.2313C101.534 25.9513 101.109 25.8113 100.587 25.8113C100.129 25.8113 99.728 25.928 99.3827 26.1613C99.0374 26.3853 98.7807 26.6793 98.6127 27.0433L97.6607 26.5253C97.8007 26.208 98.02 25.9187 98.3187 25.6573C98.6267 25.396 98.9767 25.1907 99.3687 25.0413C99.7607 24.8827 100.167 24.8033 100.587 24.8033C101.137 24.8033 101.623 24.9107 102.043 25.1253C102.472 25.34 102.803 25.6387 103.037 26.0213C103.279 26.3947 103.401 26.8287 103.401 27.3233V32.4753H102.351V30.9773L102.505 31.1313C102.374 31.4113 102.169 31.668 101.889 31.9013C101.618 32.1253 101.296 32.3073 100.923 32.4473C100.559 32.578 100.157 32.6433 99.7187 32.6433Z" fill="#94A3B8"/>
</svg>
