<svg width="25" height="25" viewBox="0 0 25 25" fill="none" xmlns="http://www.w3.org/2000/svg">
<path d="M9.50183 21.141H15.5014" stroke="#718096" stroke-width="1.49989" stroke-linecap="round" stroke-linejoin="round"/>
<path d="M18.5012 9.89166V11.3915C18.5012 14.6913 15.8014 17.3911 12.5017 17.3911C9.20193 17.3911 6.50214 14.6913 6.50214 11.3915V9.89166" stroke="#718096" stroke-width="1.49989" stroke-linecap="round" stroke-linejoin="round"/>
<path d="M12.4995 17.3913V21.141" stroke="#718096" stroke-width="1.49989" stroke-linecap="round" stroke-linejoin="round"/>
<path d="M12.5016 3.14219C12.1072 3.1402 11.7162 3.21644 11.3513 3.36649C10.9865 3.51653 10.655 3.73742 10.3761 4.01637C10.0971 4.29532 9.87621 4.62681 9.72616 4.99165C9.57612 5.3565 9.49988 5.74747 9.50187 6.14196V11.3447C9.50187 12.9946 10.8611 14.3913 12.5016 14.3913C14.1421 14.3913 15.5014 13.0321 15.5014 11.3447V6.14196C15.5014 4.45459 14.189 3.14219 12.5016 3.14219Z" stroke="#718096" stroke-width="1.49989" stroke-linecap="round" stroke-linejoin="round"/>
</svg>
