<svg width="340" height="21" viewBox="0 0 340 21" fill="none" xmlns="http://www.w3.org/2000/svg">
<g clip-path="url(#clip0_2208_2629)">
<path d="M17.3727 12.855L13.6922 11.2058L13.682 11.2011C13.491 11.1194 13.2825 11.0866 13.0756 11.1057C12.8687 11.1248 12.6698 11.1952 12.4969 11.3105C12.4765 11.3239 12.4569 11.3385 12.4383 11.3542L10.5367 12.9753C9.33204 12.3902 8.08829 11.1558 7.50313 9.96674L9.12657 8.03627C9.14219 8.01674 9.15704 7.99721 9.1711 7.97612C9.28394 7.8037 9.35239 7.60606 9.37039 7.40078C9.38838 7.19551 9.35534 6.98898 9.27423 6.79955V6.79018L7.62032 3.10346C7.51309 2.85601 7.3287 2.64988 7.09468 2.51584C6.86067 2.38179 6.58958 2.32702 6.32188 2.35971C5.26326 2.49901 4.29155 3.01891 3.58824 3.82229C2.88492 4.62567 2.49809 5.65759 2.50001 6.72534C2.50001 12.9285 7.54688 17.9753 13.75 17.9753C14.8177 17.9773 15.8497 17.5904 16.6531 16.8871C17.4564 16.1838 17.9763 15.2121 18.1156 14.1535C18.1484 13.8859 18.0937 13.6148 17.9598 13.3808C17.8259 13.1468 17.62 12.9624 17.3727 12.855ZM13.75 16.7253C11.0987 16.7224 8.55687 15.6679 6.68214 13.7932C4.8074 11.9185 3.7529 9.37661 3.75001 6.72534C3.74707 5.96244 4.02192 5.22455 4.52324 4.64948C5.02456 4.07441 5.71806 3.70148 6.47423 3.60034C6.47391 3.60345 6.47391 3.60659 6.47423 3.60971L8.11485 7.28159L6.50001 9.2144C6.48358 9.23323 6.46869 9.25335 6.45548 9.27456C6.33791 9.45496 6.26894 9.66268 6.25525 9.87757C6.24157 10.0925 6.28362 10.3073 6.37735 10.5011C7.08516 11.9488 8.54376 13.3964 10.007 14.1035C10.2023 14.1963 10.4184 14.2369 10.634 14.2213C10.8497 14.2057 11.0576 14.1344 11.2375 14.0144C11.2576 14.0009 11.2769 13.9863 11.2953 13.9706L13.1945 12.3503L16.8664 13.9949H16.875C16.7751 14.7521 16.4027 15.447 15.8275 15.9496C15.2524 16.4521 14.5138 16.7279 13.75 16.7253Z" fill="#94A3B8"/>
</g>
<path d="M33.038 16.4753V7.09534H30.154V6.04534H37.014V7.09534H34.158V16.4753H33.038ZM40.6737 16.6433C39.9737 16.6433 39.339 16.4753 38.7697 16.1393C38.2097 15.794 37.7664 15.3227 37.4397 14.7253C37.113 14.128 36.9497 13.4513 36.9497 12.6953C36.9497 11.9393 37.1084 11.272 37.4257 10.6933C37.743 10.1053 38.1724 9.64334 38.7137 9.30734C39.2644 8.97134 39.8804 8.80334 40.5617 8.80334C41.103 8.80334 41.5837 8.90601 42.0037 9.11134C42.433 9.30734 42.797 9.57801 43.0957 9.92334C43.3944 10.2593 43.623 10.642 43.7817 11.0713C43.9404 11.4913 44.0197 11.9253 44.0197 12.3733C44.0197 12.4667 44.015 12.574 44.0057 12.6953C43.9964 12.8073 43.9824 12.924 43.9637 13.0453H37.6217V12.0653H43.3617L42.8577 12.4853C42.9417 11.972 42.881 11.5147 42.6757 11.1133C42.4797 10.7027 42.195 10.3807 41.8217 10.1473C41.4484 9.90467 41.0284 9.78334 40.5617 9.78334C40.095 9.78334 39.661 9.90467 39.2597 10.1473C38.8677 10.39 38.5597 10.7307 38.3357 11.1693C38.1117 11.5987 38.023 12.112 38.0697 12.7093C38.023 13.3067 38.1164 13.8293 38.3497 14.2773C38.5924 14.716 38.919 15.0567 39.3297 15.2993C39.7497 15.542 40.1977 15.6633 40.6737 15.6633C41.2244 15.6633 41.6864 15.5327 42.0597 15.2713C42.433 15.01 42.7364 14.6833 42.9697 14.2913L43.8657 14.7673C43.7164 15.1033 43.4877 15.416 43.1797 15.7053C42.8717 15.9853 42.503 16.214 42.0737 16.3913C41.6537 16.5593 41.187 16.6433 40.6737 16.6433ZM45.871 16.4753V5.87734H46.921V16.4753H45.871ZM52.4862 16.6433C51.7862 16.6433 51.1515 16.4753 50.5822 16.1393C50.0222 15.794 49.5789 15.3227 49.2522 14.7253C48.9255 14.128 48.7622 13.4513 48.7622 12.6953C48.7622 11.9393 48.9209 11.272 49.2382 10.6933C49.5555 10.1053 49.9849 9.64334 50.5262 9.30734C51.0769 8.97134 51.6929 8.80334 52.3742 8.80334C52.9155 8.80334 53.3962 8.90601 53.8162 9.11134C54.2455 9.30734 54.6095 9.57801 54.9082 9.92334C55.2069 10.2593 55.4355 10.642 55.5942 11.0713C55.7529 11.4913 55.8322 11.9253 55.8322 12.3733C55.8322 12.4667 55.8275 12.574 55.8182 12.6953C55.8089 12.8073 55.7949 12.924 55.7762 13.0453H49.4342V12.0653H55.1742L54.6702 12.4853C54.7542 11.972 54.6935 11.5147 54.4882 11.1133C54.2922 10.7027 54.0075 10.3807 53.6342 10.1473C53.2609 9.90467 52.8409 9.78334 52.3742 9.78334C51.9075 9.78334 51.4735 9.90467 51.0722 10.1473C50.6802 10.39 50.3722 10.7307 50.1482 11.1693C49.9242 11.5987 49.8355 12.112 49.8822 12.7093C49.8355 13.3067 49.9289 13.8293 50.1622 14.2773C50.4049 14.716 50.7315 15.0567 51.1422 15.2993C51.5622 15.542 52.0102 15.6633 52.4862 15.6633C53.0369 15.6633 53.4989 15.5327 53.8722 15.2713C54.2455 15.01 54.5489 14.6833 54.7822 14.2913L55.6782 14.7673C55.5289 15.1033 55.3002 15.416 54.9922 15.7053C54.6842 15.9853 54.3155 16.214 53.8862 16.3913C53.4662 16.5593 52.9995 16.6433 52.4862 16.6433ZM58.4535 16.4753V10.0213H56.9555V8.97134H58.4535V8.29934C58.4535 7.77667 58.5701 7.33801 58.8035 6.98334C59.0368 6.61934 59.3448 6.34401 59.7275 6.15734C60.1101 5.97067 60.5208 5.87734 60.9595 5.87734C61.0528 5.87734 61.1601 5.88667 61.2815 5.90534C61.4028 5.91467 61.5008 5.92867 61.5755 5.94734V6.89934C61.5101 6.88067 61.4215 6.87134 61.3095 6.87134C61.1975 6.86201 61.1181 6.85734 61.0715 6.85734C60.6235 6.85734 60.2501 6.96467 59.9515 7.17934C59.6528 7.39401 59.5035 7.76734 59.5035 8.29934V8.97134H61.3375V10.0213H59.5035V16.4753H58.4535ZM66.2697 16.6433C65.5604 16.6433 64.9164 16.4753 64.3377 16.1393C63.7591 15.794 63.2971 15.3273 62.9517 14.7393C62.6157 14.142 62.4477 13.4653 62.4477 12.7093C62.4477 11.9627 62.6157 11.2953 62.9517 10.7073C63.2877 10.1193 63.7404 9.65734 64.3097 9.32134C64.8884 8.97601 65.5417 8.80334 66.2697 8.80334C66.9977 8.80334 67.6464 8.97134 68.2157 9.30734C68.7944 9.64334 69.2471 10.1053 69.5737 10.6933C69.9097 11.2813 70.0777 11.9533 70.0777 12.7093C70.0777 13.4747 69.9051 14.156 69.5597 14.7533C69.2144 15.3413 68.7524 15.8033 68.1737 16.1393C67.6044 16.4753 66.9697 16.6433 66.2697 16.6433ZM66.2697 15.5933C66.7737 15.5933 67.2264 15.4673 67.6277 15.2153C68.0384 14.9633 68.3604 14.618 68.5937 14.1793C68.8364 13.7407 68.9577 13.2507 68.9577 12.7093C68.9577 12.168 68.8364 11.6827 68.5937 11.2533C68.3604 10.824 68.0384 10.4833 67.6277 10.2313C67.2264 9.97934 66.7737 9.85334 66.2697 9.85334C65.7657 9.85334 65.3084 9.97934 64.8977 10.2313C64.4964 10.4833 64.1744 10.824 63.9317 11.2533C63.6891 11.6827 63.5677 12.168 63.5677 12.7093C63.5677 13.2507 63.6891 13.7407 63.9317 14.1793C64.1744 14.618 64.4964 14.9633 64.8977 15.2153C65.3084 15.4673 65.7657 15.5933 66.2697 15.5933ZM71.9296 16.4753V8.97134H72.9796V10.4273L72.7416 10.3713C72.9282 9.88601 73.2316 9.50334 73.6516 9.22334C74.0809 8.94334 74.5756 8.80334 75.1356 8.80334C75.6676 8.80334 76.1436 8.92467 76.5636 9.16734C76.9929 9.41001 77.3289 9.74601 77.5716 10.1753C77.8236 10.5953 77.9496 11.0713 77.9496 11.6033V16.4753H76.8996V12.0093C76.8996 11.552 76.8156 11.1647 76.6476 10.8473C76.4889 10.53 76.2602 10.2873 75.9616 10.1193C75.6722 9.94201 75.3362 9.85334 74.9536 9.85334C74.5709 9.85334 74.2302 9.94201 73.9316 10.1193C73.6329 10.2873 73.3996 10.5347 73.2316 10.8613C73.0636 11.1787 72.9796 11.5613 72.9796 12.0093V16.4753H71.9296Z" fill="#94A3B8"/>
<defs>
<clipPath id="clip0_2208_2629">
<rect width="20" height="20" fill="white" transform="translate(0 0.475342)"/>
</clipPath>
</defs>
</svg>
