<svg width="374" height="128" viewBox="0 0 374 128" fill="none" xmlns="http://www.w3.org/2000/svg">
<g opacity="0.8">
<g filter="url(#filter0_d_2208_2531)">
<rect x="22.7116" y="13.5198" width="116.261" height="36.1161" rx="18.0581" fill="#F8F8F8" shape-rendering="crispEdges"/>
<path d="M39.5466 37.4514V26.6385H40.8528L44.9022 32.4006H44.2346L48.2549 26.6385H49.5612V37.4514H48.1243V28.4383L48.6323 28.5979L44.6119 34.2583H44.4958L40.519 28.5979L40.9689 28.4383V37.4514H39.5466ZM55.4025 37.6256C54.6478 37.6256 53.9753 37.4465 53.3851 37.0885C52.7949 36.7305 52.3304 36.2419 51.9918 35.6226C51.6531 34.9937 51.4838 34.2922 51.4838 33.5181C51.4838 32.7344 51.6483 32.0377 51.9773 31.4281C52.3159 30.8185 52.7707 30.3396 53.3416 29.9912C53.9221 29.6332 54.5704 29.4542 55.2864 29.4542C55.867 29.4542 56.3798 29.5607 56.8249 29.7735C57.2797 29.9767 57.6619 30.2573 57.9715 30.6153C58.2908 30.9637 58.5327 31.3652 58.6972 31.82C58.8714 32.2651 58.9584 32.7295 58.9584 33.2133C58.9584 33.3198 58.9488 33.4407 58.9294 33.5762C58.9197 33.702 58.9052 33.8229 58.8859 33.939H52.4707V32.7779H58.1021L57.4635 33.3004C57.5506 32.7973 57.5022 32.3473 57.3184 31.9506C57.1345 31.5539 56.8636 31.2394 56.5056 31.0072C56.1476 30.775 55.7412 30.6589 55.2864 30.6589C54.8317 30.6589 54.4156 30.775 54.0382 31.0072C53.6609 31.2394 53.3658 31.5733 53.1529 32.0087C52.9497 32.4344 52.8674 32.9424 52.9061 33.5326C52.8674 34.1035 52.9545 34.6067 53.1674 35.0421C53.3899 35.4678 53.6996 35.8016 54.0963 36.0435C54.5027 36.2758 54.9429 36.3919 55.417 36.3919C55.9395 36.3919 56.3798 36.2709 56.7378 36.029C57.0958 35.7871 57.3861 35.4775 57.6086 35.1001L58.7407 35.6807C58.5859 36.0387 58.344 36.3677 58.015 36.6676C57.6957 36.9579 57.3135 37.1901 56.8684 37.3643C56.433 37.5385 55.9444 37.6256 55.4025 37.6256ZM63.8969 37.5385C63.1325 37.5385 62.5423 37.3208 62.1262 36.8853C61.7198 36.4499 61.5166 35.8355 61.5166 35.0421V30.9201H60.0943V29.6284H60.3845C60.7329 29.6284 61.0086 29.522 61.2118 29.3091C61.415 29.0962 61.5166 28.8156 61.5166 28.4673V27.8287H62.8664V29.6284H64.6226V30.9201H62.8664V34.9985C62.8664 35.2598 62.9051 35.4872 62.9825 35.6807C63.0696 35.8742 63.2099 36.029 63.4034 36.1451C63.5969 36.2516 63.8534 36.3048 64.1727 36.3048C64.2404 36.3048 64.3226 36.3 64.4194 36.2903C64.5258 36.2806 64.6226 36.2709 64.7097 36.2612V37.4514C64.5839 37.4804 64.4436 37.4998 64.2888 37.5094C64.134 37.5288 64.0033 37.5385 63.8969 37.5385ZM66.4729 37.4514V29.6284H67.7936V31.1524L67.5759 31.0217C67.7695 30.5283 68.0791 30.1461 68.5048 29.8751C68.9402 29.5945 69.4482 29.4542 70.0288 29.4542C70.59 29.4542 71.0883 29.58 71.5237 29.8316C71.9688 30.0832 72.3171 30.4315 72.5687 30.8766C72.83 31.3217 72.9606 31.8248 72.9606 32.386V37.4514H71.5963V32.8215C71.5963 32.386 71.5189 32.0184 71.3641 31.7184C71.2092 31.4184 70.9867 31.1862 70.6964 31.0217C70.4158 30.8476 70.0917 30.7605 69.724 30.7605C69.3563 30.7605 69.0273 30.8476 68.7371 31.0217C68.4564 31.1862 68.2339 31.4233 68.0694 31.7329C67.9049 32.0329 67.8227 32.3957 67.8227 32.8215V37.4514H66.4729ZM74.8921 37.4514V29.6284H76.2419V37.4514H74.8921ZM74.8921 28.3802V26.6385H76.2419V28.3802H74.8921ZM84.5606 37.6256C83.8059 37.6256 83.1237 37.4514 82.5141 37.1031C81.9045 36.745 81.4207 36.2564 81.0627 35.6372C80.7047 35.0179 80.5257 34.3164 80.5257 33.5326C80.5257 32.7489 80.6999 32.0522 81.0482 31.4426C81.4062 30.8331 81.89 30.3493 82.4996 29.9912C83.1092 29.6332 83.7962 29.4542 84.5606 29.4542C85.3153 29.4542 85.9975 29.6332 86.607 29.9912C87.2166 30.3396 87.6956 30.8185 88.0439 31.4281C88.4019 32.0377 88.5809 32.7392 88.5809 33.5326C88.5809 34.3261 88.3971 35.0324 88.0294 35.6517C87.6617 36.2612 87.1731 36.745 86.5635 37.1031C85.9636 37.4514 85.296 37.6256 84.5606 37.6256ZM84.5606 36.3193C85.0444 36.3193 85.4798 36.1984 85.8668 35.9565C86.2635 35.7146 86.5732 35.3807 86.7957 34.955C87.0279 34.5293 87.1441 34.0551 87.1441 33.5326C87.1441 33.0005 87.0279 32.5312 86.7957 32.1248C86.5732 31.7087 86.2635 31.3797 85.8668 31.1378C85.4798 30.8863 85.0444 30.7605 84.5606 30.7605C84.0671 30.7605 83.622 30.8863 83.2253 31.1378C82.8383 31.3797 82.5286 31.7087 82.2964 32.1248C82.0642 32.5312 81.9481 33.0005 81.9481 33.5326C81.9481 34.0551 82.0642 34.5293 82.2964 34.955C82.5286 35.3807 82.8383 35.7146 83.2253 35.9565C83.622 36.1984 84.0671 36.3193 84.5606 36.3193ZM82.3545 28.1625V26.5224H83.98V28.1625H82.3545ZM85.1411 28.1625V26.5224H86.7812V28.1625H85.1411ZM89.5722 37.4514V36.3048L94.2311 30.4267L94.4634 30.9201H89.8044V29.6284H95.668V30.775L91.0526 36.6676L90.8204 36.1596H95.697V37.4514H89.5722ZM100.617 37.6256C99.862 37.6256 99.1895 37.4465 98.5992 37.0885C98.009 36.7305 97.5446 36.2419 97.2059 35.6226C96.8673 34.9937 96.6979 34.2922 96.6979 33.5181C96.6979 32.7344 96.8624 32.0377 97.1914 31.4281C97.5301 30.8185 97.9848 30.3396 98.5557 29.9912C99.1363 29.6332 99.7845 29.4542 100.501 29.4542C101.081 29.4542 101.594 29.5607 102.039 29.7735C102.494 29.9767 102.876 30.2573 103.186 30.6153C103.505 30.9637 103.747 31.3652 103.911 31.82C104.085 32.2651 104.173 32.7295 104.173 33.2133C104.173 33.3198 104.163 33.4407 104.144 33.5762C104.134 33.702 104.119 33.8229 104.1 33.939H97.6849V32.7779H103.316L102.678 33.3004C102.765 32.7973 102.716 32.3473 102.533 31.9506C102.349 31.5539 102.078 31.2394 101.72 31.0072C101.362 30.775 100.955 30.6589 100.501 30.6589C100.046 30.6589 99.6297 30.775 99.2524 31.0072C98.875 31.2394 98.5799 31.5733 98.367 32.0087C98.1638 32.4344 98.0816 32.9424 98.1203 33.5326C98.0816 34.1035 98.1687 34.6067 98.3815 35.0421C98.6041 35.4678 98.9137 35.8016 99.3104 36.0435C99.7168 36.2758 100.157 36.3919 100.631 36.3919C101.154 36.3919 101.594 36.2709 101.952 36.029C102.31 35.7871 102.6 35.4775 102.823 35.1001L103.955 35.6807C103.8 36.0387 103.558 36.3677 103.229 36.6676C102.91 36.9579 102.528 37.1901 102.083 37.3643C101.647 37.5385 101.159 37.6256 100.617 37.6256ZM109.111 37.5385C108.347 37.5385 107.756 37.3208 107.34 36.8853C106.934 36.4499 106.731 35.8355 106.731 35.0421V30.9201H105.308V29.6284H105.599C105.947 29.6284 106.223 29.522 106.426 29.3091C106.629 29.0962 106.731 28.8156 106.731 28.4673V27.8287H108.081V29.6284H109.837V30.9201H108.081V34.9985C108.081 35.2598 108.119 35.4872 108.197 35.6807C108.284 35.8742 108.424 36.029 108.618 36.1451C108.811 36.2516 109.068 36.3048 109.387 36.3048C109.455 36.3048 109.537 36.3 109.634 36.2903C109.74 36.2806 109.837 36.2709 109.924 36.2612V37.4514C109.798 37.4804 109.658 37.4998 109.503 37.5094C109.348 37.5288 109.217 37.5385 109.111 37.5385ZM111.687 37.4514V26.4644H113.037V37.4514H111.687ZM118.731 37.6256C117.976 37.6256 117.303 37.4465 116.713 37.0885C116.123 36.7305 115.659 36.2419 115.32 35.6226C114.981 34.9937 114.812 34.2922 114.812 33.5181C114.812 32.7344 114.976 32.0377 115.305 31.4281C115.644 30.8185 116.099 30.3396 116.67 29.9912C117.25 29.6332 117.899 29.4542 118.615 29.4542C119.195 29.4542 119.708 29.5607 120.153 29.7735C120.608 29.9767 120.99 30.2573 121.3 30.6153C121.619 30.9637 121.861 31.3652 122.025 31.82C122.2 32.2651 122.287 32.7295 122.287 33.2133C122.287 33.3198 122.277 33.4407 122.258 33.5762C122.248 33.702 122.233 33.8229 122.214 33.939H115.799V32.7779H121.43L120.792 33.3004C120.879 32.7973 120.83 32.3473 120.647 31.9506C120.463 31.5539 120.192 31.2394 119.834 31.0072C119.476 30.775 119.069 30.6589 118.615 30.6589C118.16 30.6589 117.744 30.775 117.366 31.0072C116.989 31.2394 116.694 31.5733 116.481 32.0087C116.278 32.4344 116.196 32.9424 116.234 33.5326C116.196 34.1035 116.283 34.6067 116.496 35.0421C116.718 35.4678 117.028 35.8016 117.424 36.0435C117.831 36.2758 118.271 36.3919 118.745 36.3919C119.268 36.3919 119.708 36.2709 120.066 36.029C120.424 35.7871 120.714 35.4775 120.937 35.1001L122.069 35.6807C121.914 36.0387 121.672 36.3677 121.343 36.6676C121.024 36.9579 120.642 37.1901 120.197 37.3643C119.761 37.5385 119.273 37.6256 118.731 37.6256Z" fill="#68108A"/>
</g>
<g filter="url(#filter1_d_2208_2531)">
<rect x="152.37" y="13.5198" width="89.2607" height="36.1161" rx="18.0581" fill="#F8F8F8" shape-rendering="crispEdges"/>
<path d="M169.205 37.4514V26.6385H173.022C173.738 26.6385 174.367 26.774 174.909 27.0449C175.45 27.3159 175.871 27.7029 176.171 28.206C176.481 28.7092 176.636 29.2994 176.636 29.9767C176.636 30.6541 176.481 31.2443 176.171 31.7474C175.871 32.2409 175.45 32.6279 174.909 32.9085C174.376 33.1795 173.747 33.3149 173.022 33.3149H170.627V37.4514H169.205ZM170.627 32.0087H173.065C173.501 32.0087 173.878 31.9264 174.197 31.7619C174.517 31.5975 174.763 31.3604 174.938 31.0508C175.112 30.7411 175.199 30.3831 175.199 29.9767C175.199 29.5607 175.112 29.2027 174.938 28.9027C174.763 28.5931 174.517 28.356 174.197 28.1915C173.878 28.027 173.501 27.9448 173.065 27.9448H170.627V32.0087ZM178.4 37.4514V26.4644H179.749V37.4514H178.4ZM184.137 37.6256C183.624 37.6256 183.169 37.5336 182.773 37.3498C182.386 37.1563 182.081 36.895 181.858 36.566C181.636 36.2274 181.525 35.8403 181.525 35.4049C181.525 34.9889 181.612 34.6163 181.786 34.2874C181.97 33.9487 182.25 33.6633 182.628 33.431C183.015 33.1988 183.498 33.0343 184.079 32.9376L186.982 32.4586V33.5907L184.384 34.0261C183.881 34.1132 183.513 34.2728 183.281 34.5051C183.058 34.7373 182.947 35.0227 182.947 35.3614C182.947 35.6807 183.073 35.9468 183.324 36.1596C183.586 36.3725 183.91 36.479 184.297 36.479C184.79 36.479 185.216 36.3774 185.574 36.1742C185.942 35.9613 186.227 35.6759 186.43 35.3178C186.643 34.9598 186.75 34.5631 186.75 34.1277V32.1393C186.75 31.7136 186.59 31.3701 186.271 31.1088C185.961 30.8379 185.55 30.7024 185.037 30.7024C184.592 30.7024 184.195 30.8185 183.847 31.0508C183.508 31.2733 183.257 31.5733 183.092 31.9506L181.916 31.341C182.062 30.983 182.294 30.6637 182.613 30.3831C182.932 30.0928 183.305 29.8655 183.731 29.701C184.156 29.5365 184.601 29.4542 185.066 29.4542C185.666 29.4542 186.193 29.5703 186.648 29.8026C187.103 30.0251 187.456 30.3396 187.707 30.746C187.969 31.1427 188.099 31.6071 188.099 32.1393V37.4514H186.779V35.971L187.025 36.0581C186.861 36.3677 186.638 36.6386 186.358 36.8708C186.077 37.1031 185.748 37.2869 185.371 37.4224C184.993 37.5578 184.582 37.6256 184.137 37.6256ZM190.192 37.4514V29.6284H191.513V31.1524L191.295 31.0217C191.489 30.5283 191.798 30.1461 192.224 29.8751C192.66 29.5945 193.168 29.4542 193.748 29.4542C194.309 29.4542 194.808 29.58 195.243 29.8316C195.688 30.0832 196.036 30.4315 196.288 30.8766C196.549 31.3217 196.68 31.8248 196.68 32.386V37.4514H195.316V32.8215C195.316 32.386 195.238 32.0184 195.083 31.7184C194.929 31.4184 194.706 31.1862 194.416 31.0217C194.135 30.8476 193.811 30.7605 193.443 30.7605C193.076 30.7605 192.747 30.8476 192.456 31.0217C192.176 31.1862 191.953 31.4233 191.789 31.7329C191.624 32.0329 191.542 32.3957 191.542 32.8215V37.4514H190.192ZM201.541 40.6444C201.367 40.6444 201.193 40.6299 201.019 40.6009C200.844 40.5719 200.68 40.5235 200.525 40.4558V39.2511C200.631 39.2705 200.762 39.2898 200.917 39.3092C201.081 39.3382 201.241 39.3527 201.396 39.3527C201.851 39.3527 202.194 39.2511 202.426 39.0479C202.668 38.8544 202.896 38.5157 203.109 38.0319L203.602 36.8563L203.573 38.0319L200.235 29.6284H201.701L204.299 36.3048H203.863L206.447 29.6284H207.942L204.415 38.3803C204.25 38.7963 204.037 39.1737 203.776 39.5124C203.525 39.8607 203.215 40.1365 202.847 40.3396C202.48 40.5428 202.044 40.6444 201.541 40.6444ZM211.152 37.6256C210.639 37.6256 210.185 37.5336 209.788 37.3498C209.401 37.1563 209.096 36.895 208.873 36.566C208.651 36.2274 208.54 35.8403 208.54 35.4049C208.54 34.9889 208.627 34.6163 208.801 34.2874C208.985 33.9487 209.265 33.6633 209.643 33.431C210.03 33.1988 210.514 33.0343 211.094 32.9376L213.997 32.4586V33.5907L211.399 34.0261C210.896 34.1132 210.528 34.2728 210.296 34.5051C210.073 34.7373 209.962 35.0227 209.962 35.3614C209.962 35.6807 210.088 35.9468 210.339 36.1596C210.601 36.3725 210.925 36.479 211.312 36.479C211.805 36.479 212.231 36.3774 212.589 36.1742C212.957 35.9613 213.242 35.6759 213.445 35.3178C213.658 34.9598 213.765 34.5631 213.765 34.1277V32.1393C213.765 31.7136 213.605 31.3701 213.286 31.1088C212.976 30.8379 212.565 30.7024 212.052 30.7024C211.607 30.7024 211.21 30.8185 210.862 31.0508C210.523 31.2733 210.272 31.5733 210.107 31.9506L208.932 31.341C209.077 30.983 209.309 30.6637 209.628 30.3831C209.948 30.0928 210.32 29.8655 210.746 29.701C211.172 29.5365 211.617 29.4542 212.081 29.4542C212.681 29.4542 213.208 29.5703 213.663 29.8026C214.118 30.0251 214.471 30.3396 214.723 30.746C214.984 31.1427 215.114 31.6071 215.114 32.1393V37.4514H213.794V35.971L214.04 36.0581C213.876 36.3677 213.653 36.6386 213.373 36.8708C213.092 37.1031 212.763 37.2869 212.386 37.4224C212.008 37.5578 211.597 37.6256 211.152 37.6256ZM217.207 40.3542V29.6284H218.528V31.312L218.354 30.9782C218.644 30.5137 219.041 30.1461 219.544 29.8751C220.047 29.5945 220.623 29.4542 221.271 29.4542C222.007 29.4542 222.664 29.6332 223.245 29.9912C223.835 30.3493 224.3 30.8379 224.638 31.4572C224.977 32.0667 225.146 32.7634 225.146 33.5472C225.146 34.3115 224.977 35.0034 224.638 35.6226C224.3 36.2419 223.835 36.7305 223.245 37.0885C222.664 37.4465 222.002 37.6256 221.257 37.6256C220.628 37.6256 220.052 37.4853 219.529 37.2046C219.017 36.924 218.62 36.5273 218.339 36.0145L218.557 35.7823V40.3542H217.207ZM221.155 36.3193C221.649 36.3193 222.089 36.1984 222.476 35.9565C222.863 35.7146 223.163 35.3856 223.376 34.9695C223.598 34.5438 223.709 34.0697 223.709 33.5472C223.709 33.0053 223.598 32.5312 223.376 32.1248C223.163 31.7087 222.863 31.3797 222.476 31.1378C222.089 30.8863 221.649 30.7605 221.155 30.7605C220.662 30.7605 220.216 30.8814 219.82 31.1233C219.433 31.3652 219.123 31.699 218.891 32.1248C218.668 32.5409 218.557 33.015 218.557 33.5472C218.557 34.0697 218.668 34.5438 218.891 34.9695C219.123 35.3856 219.433 35.7146 219.82 35.9565C220.216 36.1984 220.662 36.3193 221.155 36.3193Z" fill="#68108A"/>
</g>
<g filter="url(#filter2_d_2208_2531)">
<rect x="255.028" y="13.5198" width="96.2607" height="36.1161" rx="18.0581" fill="#F8F8F8" shape-rendering="crispEdges"/>
<path d="M273.75 37.4514V27.9448H270.818V26.6385H278.075V27.9448H275.186V37.4514H273.75ZM280.715 37.6256C280.202 37.6256 279.747 37.5336 279.35 37.3498C278.963 37.1563 278.658 36.895 278.436 36.566C278.213 36.2274 278.102 35.8403 278.102 35.4049C278.102 34.9889 278.189 34.6163 278.363 34.2874C278.547 33.9487 278.828 33.6633 279.205 33.431C279.592 33.1988 280.076 33.0343 280.657 32.9376L283.559 32.4586V33.5907L280.961 34.0261C280.458 34.1132 280.091 34.2728 279.858 34.5051C279.636 34.7373 279.524 35.0227 279.524 35.3614C279.524 35.6807 279.65 35.9468 279.902 36.1596C280.163 36.3725 280.487 36.479 280.874 36.479C281.368 36.479 281.793 36.3774 282.151 36.1742C282.519 35.9613 282.805 35.6759 283.008 35.3178C283.221 34.9598 283.327 34.5631 283.327 34.1277V32.1393C283.327 31.7136 283.167 31.3701 282.848 31.1088C282.539 30.8379 282.127 30.7024 281.614 30.7024C281.169 30.7024 280.773 30.8185 280.424 31.0508C280.086 31.2733 279.834 31.5733 279.67 31.9506L278.494 31.341C278.639 30.983 278.871 30.6637 279.191 30.3831C279.51 30.0928 279.882 29.8655 280.308 29.701C280.734 29.5365 281.179 29.4542 281.644 29.4542C282.243 29.4542 282.771 29.5703 283.226 29.8026C283.68 30.0251 284.033 30.3396 284.285 30.746C284.546 31.1427 284.677 31.6071 284.677 32.1393V37.4514H283.356V35.971L283.603 36.0581C283.438 36.3677 283.216 36.6386 282.935 36.8708C282.655 37.1031 282.326 37.2869 281.948 37.4224C281.571 37.5578 281.16 37.6256 280.715 37.6256ZM288.805 37.4514L285.743 29.6284H287.252L289.705 36.2467H289.182L291.65 29.6284H293.159L290.082 37.4514H288.805ZM297.168 37.6256C296.384 37.6256 295.702 37.432 295.122 37.045C294.541 36.658 294.13 36.1355 293.888 35.4775L294.962 34.955C295.184 35.4194 295.489 35.7871 295.876 36.0581C296.263 36.329 296.694 36.4644 297.168 36.4644C297.594 36.4644 297.947 36.3628 298.228 36.1596C298.508 35.9565 298.648 35.6904 298.648 35.3614C298.648 35.1292 298.581 34.9453 298.445 34.8099C298.319 34.6647 298.165 34.5534 297.981 34.476C297.797 34.389 297.628 34.3261 297.473 34.2874L296.297 33.9535C295.591 33.7503 295.073 33.4601 294.744 33.0827C294.425 32.7053 294.265 32.2651 294.265 31.7619C294.265 31.2975 294.381 30.8959 294.614 30.5573C294.855 30.209 295.18 29.938 295.586 29.7445C296.002 29.551 296.467 29.4542 296.979 29.4542C297.666 29.4542 298.281 29.6284 298.823 29.9767C299.374 30.3251 299.766 30.8137 299.998 31.4426L298.895 31.9506C298.721 31.5442 298.46 31.2249 298.111 30.9927C297.763 30.7508 297.371 30.6299 296.936 30.6299C296.539 30.6299 296.225 30.7315 295.992 30.9347C295.76 31.1282 295.644 31.3749 295.644 31.6749C295.644 31.8974 295.702 32.0812 295.818 32.2264C295.934 32.3619 296.075 32.4683 296.239 32.5457C296.404 32.6134 296.563 32.6715 296.718 32.7199L297.995 33.0972C298.634 33.2811 299.127 33.5665 299.476 33.9535C299.834 34.3406 300.013 34.805 300.013 35.3469C300.013 35.7823 299.892 36.1742 299.65 36.5225C299.408 36.8708 299.074 37.1418 298.648 37.3353C298.223 37.5288 297.729 37.6256 297.168 37.6256ZM301.78 37.4514V29.6284H303.129V37.4514H301.78ZM301.78 28.3802V26.6385H303.129V28.3802H301.78ZM305.645 40.6444C305.471 40.6444 305.296 40.6299 305.122 40.6009C304.948 40.5719 304.784 40.5235 304.629 40.4558V39.2511C304.735 39.2705 304.866 39.2898 305.021 39.3092C305.185 39.3382 305.345 39.3527 305.5 39.3527C305.954 39.3527 306.298 39.2511 306.53 39.0479C306.772 38.8544 306.999 38.5157 307.212 38.0319L307.706 36.8563L307.677 38.0319L304.339 29.6284H305.804L308.402 36.3048H307.967L310.551 29.6284H312.045L308.519 38.3803C308.354 38.7963 308.141 39.1737 307.88 39.5124C307.628 39.8607 307.319 40.1365 306.951 40.3396C306.583 40.5428 306.148 40.6444 305.645 40.6444ZM316.704 37.6256C315.949 37.6256 315.277 37.4465 314.687 37.0885C314.096 36.7305 313.632 36.2419 313.293 35.6226C312.955 34.9937 312.785 34.2922 312.785 33.5181C312.785 32.7344 312.95 32.0377 313.279 31.4281C313.617 30.8185 314.072 30.3396 314.643 29.9912C315.224 29.6332 315.872 29.4542 316.588 29.4542C317.168 29.4542 317.681 29.5607 318.126 29.7735C318.581 29.9767 318.963 30.2573 319.273 30.6153C319.592 30.9637 319.834 31.3652 319.999 31.82C320.173 32.2651 320.26 32.7295 320.26 33.2133C320.26 33.3198 320.25 33.4407 320.231 33.5762C320.221 33.702 320.207 33.8229 320.187 33.939H313.772V32.7779H319.404L318.765 33.3004C318.852 32.7973 318.804 32.3473 318.62 31.9506C318.436 31.5539 318.165 31.2394 317.807 31.0072C317.449 30.775 317.043 30.6589 316.588 30.6589C316.133 30.6589 315.717 30.775 315.34 31.0072C314.962 31.2394 314.667 31.5733 314.454 32.0087C314.251 32.4344 314.169 32.9424 314.208 33.5326C314.169 34.1035 314.256 34.6067 314.469 35.0421C314.691 35.4678 315.001 35.8016 315.398 36.0435C315.804 36.2758 316.244 36.3919 316.718 36.3919C317.241 36.3919 317.681 36.2709 318.039 36.029C318.397 35.7871 318.688 35.4775 318.91 35.1001L320.042 35.6807C319.887 36.0387 319.645 36.3677 319.316 36.6676C318.997 36.9579 318.615 37.1901 318.17 37.3643C317.734 37.5385 317.246 37.6256 316.704 37.6256ZM326.822 37.6256C326.309 37.6256 325.854 37.5336 325.457 37.3498C325.07 37.1563 324.766 36.895 324.543 36.566C324.32 36.2274 324.209 35.8403 324.209 35.4049C324.209 34.9889 324.296 34.6163 324.47 34.2874C324.654 33.9487 324.935 33.6633 325.312 33.431C325.699 33.1988 326.183 33.0343 326.764 32.9376L329.666 32.4586V33.5907L327.068 34.0261C326.565 34.1132 326.198 34.2728 325.965 34.5051C325.743 34.7373 325.632 35.0227 325.632 35.3614C325.632 35.6807 325.757 35.9468 326.009 36.1596C326.27 36.3725 326.594 36.479 326.981 36.479C327.475 36.479 327.901 36.3774 328.259 36.1742C328.626 35.9613 328.912 35.6759 329.115 35.3178C329.328 34.9598 329.434 34.5631 329.434 34.1277V32.1393C329.434 31.7136 329.275 31.3701 328.955 31.1088C328.646 30.8379 328.234 30.7024 327.722 30.7024C327.276 30.7024 326.88 30.8185 326.531 31.0508C326.193 31.2733 325.941 31.5733 325.777 31.9506L324.601 31.341C324.746 30.983 324.978 30.6637 325.298 30.3831C325.617 30.0928 325.99 29.8655 326.415 29.701C326.841 29.5365 327.286 29.4542 327.751 29.4542C328.351 29.4542 328.878 29.5703 329.333 29.8026C329.787 30.0251 330.141 30.3396 330.392 30.746C330.653 31.1427 330.784 31.6071 330.784 32.1393V37.4514H329.463V35.971L329.71 36.0581C329.545 36.3677 329.323 36.6386 329.042 36.8708C328.762 37.1031 328.433 37.2869 328.055 37.4224C327.678 37.5578 327.267 37.6256 326.822 37.6256ZM332.877 37.4514V26.4644H334.227V37.4514H332.877Z" fill="#68108A"/>
</g>
<g opacity="0.8" filter="url(#filter3_d_2208_2531)">
<rect x="55.5406" y="59.6359" width="137.261" height="36.1161" rx="18.0581" fill="#F8F8F8" shape-rendering="crispEdges"/>
<path d="M75.235 83.5675L71.3308 72.7546H72.8548L76.1639 82.2612H75.8591L79.1683 72.7546H80.6922L76.8025 83.5675H75.235ZM84.7734 83.7416C84.0186 83.7416 83.3462 83.5626 82.7559 83.2046C82.1657 82.8466 81.7013 82.358 81.3626 81.7387C81.024 81.1098 80.8546 80.4083 80.8546 79.6342C80.8546 78.8505 81.0191 78.1538 81.3481 77.5442C81.6868 76.9346 82.1415 76.4557 82.7124 76.1073C83.293 75.7493 83.9412 75.5703 84.6573 75.5703C85.2378 75.5703 85.7506 75.6768 86.1957 75.8896C86.6505 76.0928 87.0327 76.3734 87.3423 76.7314C87.6616 77.0798 87.9035 77.4813 88.068 77.9361C88.2422 78.3812 88.3293 78.8456 88.3293 79.3294C88.3293 79.4359 88.3196 79.5568 88.3002 79.6923C88.2906 79.8181 88.2761 79.939 88.2567 80.0551H81.8416V78.894H87.473L86.8343 79.4165C86.9214 78.9134 86.873 78.4634 86.6892 78.0667C86.5054 77.67 86.2344 77.3555 85.8764 77.1233C85.5184 76.8911 85.112 76.775 84.6573 76.775C84.2025 76.775 83.7864 76.8911 83.4091 77.1233C83.0317 77.3555 82.7366 77.6894 82.5237 78.1248C82.3205 78.5505 82.2383 79.0585 82.277 79.6487C82.2383 80.2196 82.3254 80.7228 82.5382 81.1582C82.7608 81.5839 83.0704 81.9177 83.4671 82.1596C83.8735 82.3918 84.3138 82.508 84.7879 82.508C85.3104 82.508 85.7506 82.387 86.1086 82.1451C86.4667 81.9032 86.7569 81.5936 86.9795 81.2162L88.1116 81.7968C87.9568 82.1548 87.7149 82.4838 87.3859 82.7837C87.0666 83.074 86.6844 83.3062 86.2393 83.4804C85.8039 83.6546 85.3152 83.7416 84.7734 83.7416ZM90.0892 83.5675V75.7445H91.41V77.1814L91.2648 76.9782C91.4487 76.5331 91.7293 76.2041 92.1066 75.9912C92.484 75.7687 92.9436 75.6574 93.4854 75.6574H93.9644V76.9346H93.2822C92.7307 76.9346 92.2856 77.1088 91.947 77.4571C91.6083 77.7958 91.439 78.2796 91.439 78.9085V83.5675H90.0892ZM95.1634 83.5675V75.7445H96.5132V83.5675H95.1634ZM95.1634 74.4963V72.7546H96.5132V74.4963H95.1634ZM98.6076 83.5675V72.5805H99.9574V83.5675H98.6076ZM105.651 83.7416C104.897 83.7416 104.224 83.5626 103.634 83.2046C103.044 82.8466 102.579 82.358 102.24 81.7387C101.902 81.1098 101.733 80.4083 101.733 79.6342C101.733 78.8505 101.897 78.1538 102.226 77.5442C102.565 76.9346 103.019 76.4557 103.59 76.1073C104.171 75.7493 104.819 75.5703 105.535 75.5703C106.116 75.5703 106.629 75.6768 107.074 75.8896C107.528 76.0928 107.911 76.3734 108.22 76.7314C108.54 77.0798 108.781 77.4813 108.946 77.9361C109.12 78.3812 109.207 78.8456 109.207 79.3294C109.207 79.4359 109.197 79.5568 109.178 79.6923C109.168 79.8181 109.154 79.939 109.135 80.0551H102.719V78.894H108.351L107.712 79.4165C107.799 78.9134 107.751 78.4634 107.567 78.0667C107.383 77.67 107.112 77.3555 106.754 77.1233C106.396 76.8911 105.99 76.775 105.535 76.775C105.08 76.775 104.664 76.8911 104.287 77.1233C103.91 77.3555 103.614 77.6894 103.402 78.1248C103.198 78.5505 103.116 79.0585 103.155 79.6487C103.116 80.2196 103.203 80.7228 103.416 81.1582C103.639 81.5839 103.948 81.9177 104.345 82.1596C104.751 82.3918 105.192 82.508 105.666 82.508C106.188 82.508 106.629 82.387 106.987 82.1451C107.345 81.9032 107.635 81.5936 107.857 81.2162L108.989 81.7968C108.835 82.1548 108.593 82.4838 108.264 82.7837C107.944 83.074 107.562 83.3062 107.117 83.4804C106.682 83.6546 106.193 83.7416 105.651 83.7416ZM110.967 83.5675V75.7445H112.288V77.1814L112.143 76.9782C112.327 76.5331 112.607 76.2041 112.985 75.9912C113.362 75.7687 113.821 75.6574 114.363 75.6574H114.842V76.9346H114.16C113.609 76.9346 113.164 77.1088 112.825 77.4571C112.486 77.7958 112.317 78.2796 112.317 78.9085V83.5675H110.967ZM116.041 83.5675V75.7445H117.391V83.5675H116.041ZM116.041 74.4963V72.7546H117.391V74.4963H116.041ZM124.287 83.7416C123.775 83.7416 123.32 83.6497 122.923 83.4659C122.536 83.2724 122.231 83.0111 122.009 82.6821C121.786 82.3435 121.675 81.9564 121.675 81.521C121.675 81.105 121.762 80.7324 121.936 80.4034C122.12 80.0648 122.401 79.7794 122.778 79.5471C123.165 79.3149 123.649 79.1504 124.229 79.0537L127.132 78.5747V79.7068L124.534 80.1422C124.031 80.2293 123.663 80.3889 123.431 80.6212C123.209 80.8534 123.097 81.1388 123.097 81.4775C123.097 81.7968 123.223 82.0629 123.475 82.2757C123.736 82.4886 124.06 82.595 124.447 82.595C124.941 82.595 125.366 82.4934 125.724 82.2903C126.092 82.0774 126.377 81.7919 126.581 81.4339C126.793 81.0759 126.9 80.6792 126.9 80.2438V78.2554C126.9 77.8297 126.74 77.4862 126.421 77.2249C126.111 76.954 125.7 76.8185 125.187 76.8185C124.742 76.8185 124.345 76.9346 123.997 77.1669C123.658 77.3894 123.407 77.6894 123.242 78.0667L122.067 77.4571C122.212 77.0991 122.444 76.7798 122.763 76.4992C123.083 76.2089 123.455 75.9816 123.881 75.8171C124.307 75.6526 124.752 75.5703 125.216 75.5703C125.816 75.5703 126.344 75.6864 126.798 75.9187C127.253 76.1412 127.606 76.4557 127.858 76.8621C128.119 77.2588 128.25 77.7232 128.25 78.2554V83.5675H126.929V82.0871L127.176 82.1741C127.011 82.4838 126.789 82.7547 126.508 82.9869C126.227 83.2191 125.898 83.403 125.521 83.5384C125.144 83.6739 124.733 83.7416 124.287 83.7416ZM130.343 83.5675V75.7445H131.663V77.2684L131.446 77.1378C131.639 76.6444 131.949 76.2622 132.374 75.9912C132.81 75.7106 133.318 75.5703 133.898 75.5703C134.46 75.5703 134.958 75.6961 135.393 75.9477C135.838 76.1993 136.187 76.5476 136.438 76.9927C136.7 77.4378 136.83 77.9409 136.83 78.5021V83.5675H135.466V78.9375C135.466 78.5021 135.389 78.1344 135.234 77.8345C135.079 77.5345 134.856 77.3023 134.566 77.1378C134.285 76.9637 133.961 76.8766 133.594 76.8766C133.226 76.8766 132.897 76.9637 132.607 77.1378C132.326 77.3023 132.104 77.5394 131.939 77.849C131.775 78.149 131.692 78.5118 131.692 78.9375V83.5675H130.343ZM141.055 83.7416C140.542 83.7416 140.087 83.6497 139.691 83.4659C139.304 83.2724 138.999 83.0111 138.776 82.6821C138.554 82.3435 138.442 81.9564 138.442 81.521C138.442 81.105 138.53 80.7324 138.704 80.4034C138.888 80.0648 139.168 79.7794 139.545 79.5471C139.933 79.3149 140.416 79.1504 140.997 79.0537L143.9 78.5747V79.7068L141.302 80.1422C140.799 80.2293 140.431 80.3889 140.199 80.6212C139.976 80.8534 139.865 81.1388 139.865 81.4775C139.865 81.7968 139.991 82.0629 140.242 82.2757C140.503 82.4886 140.828 82.595 141.215 82.595C141.708 82.595 142.134 82.4934 142.492 82.2903C142.859 82.0774 143.145 81.7919 143.348 81.4339C143.561 81.0759 143.667 80.6792 143.667 80.2438V78.2554C143.667 77.8297 143.508 77.4862 143.188 77.2249C142.879 76.954 142.468 76.8185 141.955 76.8185C141.51 76.8185 141.113 76.9346 140.765 77.1669C140.426 77.3894 140.174 77.6894 140.01 78.0667L138.834 77.4571C138.979 77.0991 139.212 76.7798 139.531 76.4992C139.85 76.2089 140.223 75.9816 140.649 75.8171C141.074 75.6526 141.519 75.5703 141.984 75.5703C142.584 75.5703 143.111 75.6864 143.566 75.9187C144.021 76.1412 144.374 76.4557 144.625 76.8621C144.887 77.2588 145.017 77.7232 145.017 78.2554V83.5675H143.696V82.0871L143.943 82.1741C143.779 82.4838 143.556 82.7547 143.276 82.9869C142.995 83.2191 142.666 83.403 142.289 83.5384C141.911 83.6739 141.5 83.7416 141.055 83.7416ZM147.11 83.5675V72.5805H148.46V83.5675H147.11ZM150.554 83.5675V75.7445H151.904V83.5675H150.554ZM150.554 74.4963V72.7546H151.904V74.4963H150.554ZM153.229 83.5675V82.4209L157.888 76.5428L158.12 77.0362H153.461V75.7445H159.325V76.8911L154.71 82.7837L154.477 82.2757H159.354V83.5675H153.229ZM166.782 83.7416C166.028 83.7416 165.355 83.5626 164.765 83.2046C164.175 82.8466 163.71 82.358 163.372 81.7387C163.033 81.1098 162.864 80.4083 162.864 79.6342C162.864 78.8505 163.028 78.1538 163.357 77.5442C163.696 76.9346 164.151 76.4557 164.722 76.1073C165.302 75.7493 165.95 75.5703 166.666 75.5703C167.247 75.5703 167.76 75.6768 168.205 75.8896C168.66 76.0928 169.042 76.3734 169.351 76.7314C169.671 77.0798 169.913 77.4813 170.077 77.9361C170.251 78.3812 170.338 78.8456 170.338 79.3294C170.338 79.4359 170.329 79.5568 170.309 79.6923C170.3 79.8181 170.285 79.939 170.266 80.0551H163.851V78.894H169.482L168.843 79.4165C168.931 78.9134 168.882 78.4634 168.698 78.0667C168.514 77.67 168.244 77.3555 167.886 77.1233C167.528 76.8911 167.121 76.775 166.666 76.775C166.212 76.775 165.796 76.8911 165.418 77.1233C165.041 77.3555 164.746 77.6894 164.533 78.1248C164.33 78.5505 164.247 79.0585 164.286 79.6487C164.247 80.2196 164.334 80.7228 164.547 81.1582C164.77 81.5839 165.08 81.9177 165.476 82.1596C165.883 82.3918 166.323 82.508 166.797 82.508C167.319 82.508 167.76 82.387 168.118 82.1451C168.476 81.9032 168.766 81.5936 168.989 81.2162L170.121 81.7968C169.966 82.1548 169.724 82.4838 169.395 82.7837C169.076 83.074 168.693 83.3062 168.248 83.4804C167.813 83.6546 167.324 83.7416 166.782 83.7416ZM175.277 83.6546C174.512 83.6546 173.922 83.4368 173.506 83.0014C173.1 82.566 172.897 81.9516 172.897 81.1582V77.0362H171.474V75.7445H171.764C172.113 75.7445 172.389 75.6381 172.592 75.4252C172.795 75.2123 172.897 74.9317 172.897 74.5834V73.9448H174.246V75.7445H176.003V77.0362H174.246V81.1146C174.246 81.3759 174.285 81.6033 174.362 81.7968C174.45 81.9903 174.59 82.1451 174.783 82.2612C174.977 82.3677 175.233 82.4209 175.553 82.4209C175.62 82.4209 175.703 82.416 175.799 82.4064C175.906 82.3967 176.003 82.387 176.09 82.3773V83.5675C175.964 83.5965 175.824 83.6159 175.669 83.6255C175.514 83.6449 175.383 83.6546 175.277 83.6546Z" fill="#68108A"/>
</g>
<g opacity="0.8" filter="url(#filter4_d_2208_2531)">
<rect x="206.199" y="59.6359" width="112.261" height="36.1161" rx="18.0581" fill="#F8F8F8" shape-rendering="crispEdges"/>
<path d="M223.034 83.5677V72.7548H226.575C227.669 72.7548 228.622 72.9774 229.434 73.4225C230.247 73.8675 230.876 74.4965 231.321 75.3093C231.766 76.1124 231.989 77.0606 231.989 78.154C231.989 79.2377 231.766 80.1859 231.321 80.9987C230.876 81.8115 230.247 82.4453 229.434 82.9C228.622 83.3451 227.669 83.5677 226.575 83.5677H223.034ZM224.456 82.2614H226.59C227.393 82.2614 228.085 82.0921 228.665 81.7534C229.255 81.4148 229.71 80.9406 230.03 80.3311C230.349 79.7118 230.508 78.9861 230.508 78.154C230.508 77.3122 230.344 76.5865 230.015 75.9769C229.696 75.3673 229.241 74.898 228.651 74.5691C228.07 74.2304 227.383 74.0611 226.59 74.0611H224.456V82.2614ZM235.826 83.7418C235.313 83.7418 234.858 83.6499 234.462 83.4661C234.075 83.2725 233.77 83.0113 233.547 82.6823C233.325 82.3437 233.213 81.9566 233.213 81.5212C233.213 81.1051 233.301 80.7326 233.475 80.4036C233.659 80.065 233.939 79.7795 234.317 79.5473C234.704 79.3151 235.187 79.1506 235.768 79.0538L238.671 78.5749V79.707L236.073 80.1424C235.57 80.2295 235.202 80.3891 234.97 80.6213C234.747 80.8536 234.636 81.139 234.636 81.4777C234.636 81.797 234.762 82.0631 235.013 82.2759C235.274 82.4888 235.599 82.5952 235.986 82.5952C236.479 82.5952 236.905 82.4936 237.263 82.2904C237.631 82.0776 237.916 81.7921 238.119 81.4341C238.332 81.0761 238.438 80.6794 238.438 80.244V78.2556C238.438 77.8298 238.279 77.4863 237.96 77.2251C237.65 76.9542 237.239 76.8187 236.726 76.8187C236.281 76.8187 235.884 76.9348 235.536 77.167C235.197 77.3896 234.945 77.6895 234.781 78.0669L233.605 77.4573C233.751 77.0993 233.983 76.78 234.302 76.4994C234.621 76.2091 234.994 75.9817 235.42 75.8172C235.845 75.6528 236.29 75.5705 236.755 75.5705C237.355 75.5705 237.882 75.6866 238.337 75.9188C238.792 76.1414 239.145 76.4559 239.396 76.8622C239.658 77.259 239.788 77.7234 239.788 78.2556V83.5677H238.468V82.0872L238.714 82.1743C238.55 82.484 238.327 82.7549 238.047 82.9871C237.766 83.2193 237.437 83.4032 237.06 83.5386C236.682 83.6741 236.271 83.7418 235.826 83.7418ZM241.881 83.5677V72.5806H243.231V77.2686L242.984 77.138C243.178 76.6445 243.487 76.2623 243.913 75.9914C244.348 75.7108 244.856 75.5705 245.437 75.5705C245.998 75.5705 246.497 75.6963 246.932 75.9479C247.377 76.1994 247.725 76.5478 247.977 76.9929C248.238 77.438 248.369 77.9411 248.369 78.5023V83.5677H247.005V78.9377C247.005 78.5023 246.922 78.1346 246.758 77.8347C246.603 77.5347 246.385 77.3025 246.105 77.138C245.824 76.9638 245.5 76.8768 245.132 76.8768C244.774 76.8768 244.45 76.9638 244.16 77.138C243.87 77.3025 243.642 77.5396 243.478 77.8492C243.313 78.1491 243.231 78.512 243.231 78.9377V83.5677H241.881ZM252.593 83.7418C252.081 83.7418 251.626 83.6499 251.229 83.4661C250.842 83.2725 250.537 83.0113 250.315 82.6823C250.092 82.3437 249.981 81.9566 249.981 81.5212C249.981 81.1051 250.068 80.7326 250.242 80.4036C250.426 80.065 250.707 79.7795 251.084 79.5473C251.471 79.3151 251.955 79.1506 252.535 79.0538L255.438 78.5749V79.707L252.84 80.1424C252.337 80.2295 251.969 80.3891 251.737 80.6213C251.515 80.8536 251.403 81.139 251.403 81.4777C251.403 81.797 251.529 82.0631 251.781 82.2759C252.042 82.4888 252.366 82.5952 252.753 82.5952C253.247 82.5952 253.672 82.4936 254.03 82.2904C254.398 82.0776 254.683 81.7921 254.887 81.4341C255.1 81.0761 255.206 80.6794 255.206 80.244V78.2556C255.206 77.8298 255.046 77.4863 254.727 77.2251C254.417 76.9542 254.006 76.8187 253.493 76.8187C253.048 76.8187 252.652 76.9348 252.303 77.167C251.965 77.3896 251.713 77.6895 251.548 78.0669L250.373 77.4573C250.518 77.0993 250.75 76.78 251.07 76.4994C251.389 76.2091 251.761 75.9817 252.187 75.8172C252.613 75.6528 253.058 75.5705 253.522 75.5705C254.122 75.5705 254.65 75.6866 255.104 75.9188C255.559 76.1414 255.912 76.4559 256.164 76.8622C256.425 77.259 256.556 77.7234 256.556 78.2556V83.5677H255.235V82.0872L255.482 82.1743C255.317 82.484 255.095 82.7549 254.814 82.9871C254.534 83.2193 254.205 83.4032 253.827 83.5386C253.45 83.6741 253.039 83.7418 252.593 83.7418ZM261.985 83.5677V77.0364H260.49V75.7447H261.985V75.1931C261.985 74.6319 262.106 74.1578 262.348 73.7708C262.599 73.3837 262.928 73.0886 263.334 72.8854C263.751 72.6822 264.21 72.5806 264.713 72.5806C264.82 72.5806 264.936 72.5903 265.062 72.6097C265.197 72.6194 265.308 72.6339 265.395 72.6532V73.8579C265.318 73.8385 265.226 73.8288 265.12 73.8288C265.013 73.8192 264.931 73.8143 264.873 73.8143C264.428 73.8143 264.06 73.9208 263.77 74.1336C263.489 74.3465 263.349 74.6997 263.349 75.1931V75.7447H265.207V77.0364H263.349V83.5677H261.985ZM268.893 83.7418C268.38 83.7418 267.926 83.6499 267.529 83.4661C267.142 83.2725 266.837 83.0113 266.615 82.6823C266.392 82.3437 266.281 81.9566 266.281 81.5212C266.281 81.1051 266.368 80.7326 266.542 80.4036C266.726 80.065 267.006 79.7795 267.384 79.5473C267.771 79.3151 268.255 79.1506 268.835 79.0538L271.738 78.5749V79.707L269.14 80.1424C268.637 80.2295 268.269 80.3891 268.037 80.6213C267.814 80.8536 267.703 81.139 267.703 81.4777C267.703 81.797 267.829 82.0631 268.08 82.2759C268.342 82.4888 268.666 82.5952 269.053 82.5952C269.546 82.5952 269.972 82.4936 270.33 82.2904C270.698 82.0776 270.983 81.7921 271.186 81.4341C271.399 81.0761 271.506 80.6794 271.506 80.244V78.2556C271.506 77.8298 271.346 77.4863 271.027 77.2251C270.717 76.9542 270.306 76.8187 269.793 76.8187C269.348 76.8187 268.951 76.9348 268.603 77.167C268.264 77.3896 268.013 77.6895 267.848 78.0669L266.673 77.4573C266.818 77.0993 267.05 76.78 267.369 76.4994C267.689 76.2091 268.061 75.9817 268.487 75.8172C268.913 75.6528 269.358 75.5705 269.822 75.5705C270.422 75.5705 270.949 75.6866 271.404 75.9188C271.859 76.1414 272.212 76.4559 272.464 76.8622C272.725 77.259 272.856 77.7234 272.856 78.2556V83.5677H271.535V82.0872L271.782 82.1743C271.617 82.484 271.394 82.7549 271.114 82.9871C270.833 83.2193 270.504 83.4032 270.127 83.5386C269.75 83.6741 269.338 83.7418 268.893 83.7418ZM274.179 83.5677V82.4211L278.838 76.5429L279.07 77.0364H274.411V75.7447H280.275V76.8913L275.66 82.7839L275.427 82.2759H280.304V83.5677H274.179ZM281.624 83.5677V72.5806H282.974V83.5677H281.624ZM287.362 83.7418C286.849 83.7418 286.394 83.6499 285.997 83.4661C285.61 83.2725 285.305 83.0113 285.083 82.6823C284.86 82.3437 284.749 81.9566 284.749 81.5212C284.749 81.1051 284.836 80.7326 285.01 80.4036C285.194 80.065 285.475 79.7795 285.852 79.5473C286.239 79.3151 286.723 79.1506 287.304 79.0538L290.206 78.5749V79.707L287.608 80.1424C287.105 80.2295 286.738 80.3891 286.505 80.6213C286.283 80.8536 286.171 81.139 286.171 81.4777C286.171 81.797 286.297 82.0631 286.549 82.2759C286.81 82.4888 287.134 82.5952 287.521 82.5952C288.015 82.5952 288.44 82.4936 288.798 82.2904C289.166 82.0776 289.452 81.7921 289.655 81.4341C289.868 81.0761 289.974 80.6794 289.974 80.244V78.2556C289.974 77.8298 289.814 77.4863 289.495 77.2251C289.186 76.9542 288.774 76.8187 288.261 76.8187C287.816 76.8187 287.42 76.9348 287.071 77.167C286.733 77.3896 286.481 77.6895 286.317 78.0669L285.141 77.4573C285.286 77.0993 285.518 76.78 285.838 76.4994C286.157 76.2091 286.529 75.9817 286.955 75.8172C287.381 75.6528 287.826 75.5705 288.29 75.5705C288.89 75.5705 289.418 75.6866 289.873 75.9188C290.327 76.1414 290.68 76.4559 290.932 76.8622C291.193 77.259 291.324 77.7234 291.324 78.2556V83.5677H290.003V82.0872L290.25 82.1743C290.085 82.484 289.863 82.7549 289.582 82.9871C289.302 83.2193 288.973 83.4032 288.595 83.5386C288.218 83.6741 287.807 83.7418 287.362 83.7418ZM296.218 83.7418C295.434 83.7418 294.752 83.5483 294.171 83.1613C293.591 82.7742 293.18 82.2517 292.938 81.5938L294.012 81.0713C294.234 81.5357 294.539 81.9034 294.926 82.1743C295.313 82.4453 295.744 82.5807 296.218 82.5807C296.644 82.5807 296.997 82.4791 297.277 82.2759C297.558 82.0727 297.698 81.8066 297.698 81.4777C297.698 81.2454 297.631 81.0616 297.495 80.9261C297.369 80.781 297.215 80.6697 297.031 80.5923C296.847 80.5052 296.678 80.4423 296.523 80.4036L295.347 80.0698C294.641 79.8666 294.123 79.5763 293.794 79.199C293.475 78.8216 293.315 78.3814 293.315 77.8782C293.315 77.4138 293.431 77.0122 293.663 76.6736C293.905 76.3252 294.23 76.0543 294.636 75.8608C295.052 75.6673 295.516 75.5705 296.029 75.5705C296.716 75.5705 297.331 75.7447 297.872 76.093C298.424 76.4413 298.816 76.93 299.048 77.5589L297.945 78.0669C297.771 77.6605 297.51 77.3412 297.161 77.109C296.813 76.8671 296.421 76.7461 295.986 76.7461C295.589 76.7461 295.275 76.8477 295.042 77.0509C294.81 77.2444 294.694 77.4912 294.694 77.7911C294.694 78.0137 294.752 78.1975 294.868 78.3427C294.984 78.4781 295.125 78.5846 295.289 78.662C295.454 78.7297 295.613 78.7878 295.768 78.8361L297.045 79.2135C297.684 79.3973 298.177 79.6828 298.526 80.0698C298.884 80.4568 299.063 80.9213 299.063 81.4631C299.063 81.8986 298.942 82.2904 298.7 82.6388C298.458 82.9871 298.124 83.258 297.698 83.4515C297.273 83.6451 296.779 83.7418 296.218 83.7418ZM300.626 83.5677V75.7447H301.976V83.5677H300.626Z" fill="#68108A"/>
</g>
</g>
<defs>
<filter id="filter0_d_2208_2531" x="0.382526" y="0.122343" width="160.919" height="80.7743" filterUnits="userSpaceOnUse" color-interpolation-filters="sRGB">
<feFlood flood-opacity="0" result="BackgroundImageFix"/>
<feColorMatrix in="SourceAlpha" type="matrix" values="0 0 0 0 0 0 0 0 0 0 0 0 0 0 0 0 0 0 127 0" result="hardAlpha"/>
<feOffset dy="8.93162"/>
<feGaussianBlur stdDeviation="11.1645"/>
<feComposite in2="hardAlpha" operator="out"/>
<feColorMatrix type="matrix" values="0 0 0 0 0.376471 0 0 0 0 0.235294 0 0 0 0 1 0 0 0 0.1 0"/>
<feBlend mode="normal" in2="BackgroundImageFix" result="effect1_dropShadow_2208_2531"/>
<feBlend mode="normal" in="SourceGraphic" in2="effect1_dropShadow_2208_2531" result="shape"/>
</filter>
<filter id="filter1_d_2208_2531" x="130.041" y="0.122343" width="133.919" height="80.7743" filterUnits="userSpaceOnUse" color-interpolation-filters="sRGB">
<feFlood flood-opacity="0" result="BackgroundImageFix"/>
<feColorMatrix in="SourceAlpha" type="matrix" values="0 0 0 0 0 0 0 0 0 0 0 0 0 0 0 0 0 0 127 0" result="hardAlpha"/>
<feOffset dy="8.93162"/>
<feGaussianBlur stdDeviation="11.1645"/>
<feComposite in2="hardAlpha" operator="out"/>
<feColorMatrix type="matrix" values="0 0 0 0 0.376471 0 0 0 0 0.235294 0 0 0 0 1 0 0 0 0.1 0"/>
<feBlend mode="normal" in2="BackgroundImageFix" result="effect1_dropShadow_2208_2531"/>
<feBlend mode="normal" in="SourceGraphic" in2="effect1_dropShadow_2208_2531" result="shape"/>
</filter>
<filter id="filter2_d_2208_2531" x="232.699" y="0.122343" width="140.919" height="80.7743" filterUnits="userSpaceOnUse" color-interpolation-filters="sRGB">
<feFlood flood-opacity="0" result="BackgroundImageFix"/>
<feColorMatrix in="SourceAlpha" type="matrix" values="0 0 0 0 0 0 0 0 0 0 0 0 0 0 0 0 0 0 127 0" result="hardAlpha"/>
<feOffset dy="8.93162"/>
<feGaussianBlur stdDeviation="11.1645"/>
<feComposite in2="hardAlpha" operator="out"/>
<feColorMatrix type="matrix" values="0 0 0 0 0.376471 0 0 0 0 0.235294 0 0 0 0 1 0 0 0 0.1 0"/>
<feBlend mode="normal" in2="BackgroundImageFix" result="effect1_dropShadow_2208_2531"/>
<feBlend mode="normal" in="SourceGraphic" in2="effect1_dropShadow_2208_2531" result="shape"/>
</filter>
<filter id="filter3_d_2208_2531" x="33.2116" y="46.2385" width="181.919" height="80.7743" filterUnits="userSpaceOnUse" color-interpolation-filters="sRGB">
<feFlood flood-opacity="0" result="BackgroundImageFix"/>
<feColorMatrix in="SourceAlpha" type="matrix" values="0 0 0 0 0 0 0 0 0 0 0 0 0 0 0 0 0 0 127 0" result="hardAlpha"/>
<feOffset dy="8.93162"/>
<feGaussianBlur stdDeviation="11.1645"/>
<feComposite in2="hardAlpha" operator="out"/>
<feColorMatrix type="matrix" values="0 0 0 0 0.376471 0 0 0 0 0.235294 0 0 0 0 1 0 0 0 0.1 0"/>
<feBlend mode="normal" in2="BackgroundImageFix" result="effect1_dropShadow_2208_2531"/>
<feBlend mode="normal" in="SourceGraphic" in2="effect1_dropShadow_2208_2531" result="shape"/>
</filter>
<filter id="filter4_d_2208_2531" x="183.87" y="46.2385" width="156.919" height="80.7743" filterUnits="userSpaceOnUse" color-interpolation-filters="sRGB">
<feFlood flood-opacity="0" result="BackgroundImageFix"/>
<feColorMatrix in="SourceAlpha" type="matrix" values="0 0 0 0 0 0 0 0 0 0 0 0 0 0 0 0 0 0 127 0" result="hardAlpha"/>
<feOffset dy="8.93162"/>
<feGaussianBlur stdDeviation="11.1645"/>
<feComposite in2="hardAlpha" operator="out"/>
<feColorMatrix type="matrix" values="0 0 0 0 0.376471 0 0 0 0 0.235294 0 0 0 0 1 0 0 0 0.1 0"/>
<feBlend mode="normal" in2="BackgroundImageFix" result="effect1_dropShadow_2208_2531"/>
<feBlend mode="normal" in="SourceGraphic" in2="effect1_dropShadow_2208_2531" result="shape"/>
</filter>
</defs>
</svg>
