<svg width="428" height="569" viewBox="0 0 428 569" fill="none" xmlns="http://www.w3.org/2000/svg">
<path d="M204.395 554.452C49.8587 566.282 -85.4985 450.105 -97.3294 295.421C-97.8438 288.367 -98.1377 281.239 -98.1377 274.184C-98.1377 203.419 -71.6835 135.741 -23.7721 83.7143C-1.94739 60.0525 23.5515 40.4323 52.0632 25.4416C70.2137 15.8888 89.3195 8.3934 109.013 3.02908C87.409 5.30708 66.0986 8.83431 45.1557 13.6108C15.4683 29.2628 -11.1329 49.7648 -33.9128 74.4553C-84.2493 129.054 -111.953 199.966 -111.953 274.258C-111.953 281.68 -111.659 289.175 -111.144 296.523C-98.7256 458.702 43.2452 580.612 205.35 568.12C211.67 567.605 245.326 564.666 286.771 554.305C295.515 552.1 305.435 549.381 316.091 546.074C350.187 532.994 380.242 515.358 405.741 494.268C358.564 519.179 314.18 533.288 283.39 541.004C242.974 551.145 210.421 554.011 204.322 554.452H204.395Z" fill="white" fill-opacity="0.07"/>
<path d="M-124.738 297.538C-125.326 289.822 -125.62 281.96 -125.62 274.244C-125.62 196.571 -96.5936 122.279 -43.9792 65.1823C-30.6052 50.706 -15.9819 37.5524 -0.256371 25.942C-13.0426 30.057 -25.6083 34.5396 -37.8801 39.5365C-43.4648 44.7538 -48.8292 50.2651 -54.0465 55.9234C-109.012 115.592 -139.288 193.118 -139.288 274.244C-139.288 282.327 -138.994 290.557 -138.332 298.567C-129.882 408.793 -66.6857 502.044 22.5236 553.482C42.7317 558.994 63.4541 563.329 84.397 566.562C-29.209 528.057 -114.891 424.665 -124.664 297.612L-124.738 297.538Z" fill="white" fill-opacity="0.07"/>
<path d="M478.407 316.127C487.445 305.546 495.969 294.45 503.832 282.839C503.759 274.976 503.318 267.187 502.583 259.471C495.675 270.788 488.253 281.663 480.244 292.098C480.244 289.6 480.391 287.028 480.391 284.456C480.391 279.312 480.244 274.242 479.95 269.245C483.844 263.586 487.592 257.781 491.193 251.829C494.132 247.053 496.925 242.203 499.57 237.279C498.321 230.225 496.778 223.244 494.94 216.336C490.237 226.036 485.094 235.516 479.509 244.701C478.921 245.656 478.333 246.538 477.819 247.493C476.863 240.512 475.541 233.678 474.071 226.844C479.509 217.071 484.506 206.93 488.988 196.569C486.784 190.323 484.359 184.15 481.713 178.051C477.892 188.045 473.63 197.818 468.854 207.298C466.943 201.052 464.739 194.879 462.387 188.853C466.429 179.741 470.103 170.335 473.336 160.709C470.397 155.198 467.311 149.833 464.004 144.543C461.358 153.728 458.272 162.693 454.818 171.511C452.173 165.926 449.307 160.489 446.221 155.198C449.087 146.821 451.659 138.297 453.863 129.478C450.409 124.702 446.809 120.073 443.061 115.443C441.297 123.747 439.24 131.903 436.815 139.84C433.582 134.99 430.128 130.213 426.601 125.51C428.585 118.015 430.275 110.299 431.671 102.436C427.85 98.3213 423.808 94.3532 419.693 90.4586C418.664 97.8804 417.268 105.082 415.725 112.21C412.051 108.021 408.23 103.906 404.261 99.938C405.511 93.2509 406.539 86.417 407.274 79.436C403.159 75.9823 398.897 72.602 394.488 69.2952C393.974 75.9088 393.165 82.3019 392.21 88.6215C388.169 85.0942 384.053 81.6405 379.791 78.3337C380.526 72.3815 381.041 66.2824 381.335 60.0363C376.999 57.0969 372.516 54.3045 367.96 51.5856C367.813 57.5378 367.446 63.2696 366.932 69.0013C362.67 66.0619 358.261 63.2696 353.778 60.5507C354.146 55.1129 354.292 49.6016 354.292 43.9433C349.957 41.5918 345.474 39.3873 340.918 37.1828C340.698 39.0934 340.551 41.0774 340.551 43.0615C340.551 46.4418 340.478 49.7485 340.331 52.9818C335.848 50.6303 331.366 48.4258 326.81 46.3683C326.81 45.266 326.81 44.1638 326.81 43.0615C326.81 39.0199 327.177 35.1253 327.912 31.3041C323.65 29.467 319.388 27.7769 314.979 26.0868C313.876 30.7897 313.288 35.6396 313.068 40.6365C308.659 38.9464 304.177 37.3298 299.621 35.8601C299.988 30.9367 300.796 26.0868 301.972 21.4573C297.636 19.9876 293.301 18.5914 288.892 17.2687C287.643 22.0451 286.761 26.8951 286.246 31.892C281.837 30.7162 277.355 29.614 272.799 28.7322C273.46 23.5883 274.416 18.5179 275.665 13.5945C271.256 12.4922 266.847 11.39 262.291 10.3612C260.968 15.5051 259.939 20.7959 259.204 26.2337C254.722 25.5724 250.166 24.9845 245.61 24.4701C246.345 18.7384 247.447 13.0801 248.843 7.64231C244.361 6.83399 239.878 6.02567 235.322 5.29084C233.853 11.243 232.75 17.2687 231.942 23.4413C227.606 23.2209 223.344 23.1474 218.935 23.1474C218.641 23.1474 218.421 23.1474 218.127 23.1474C218.935 16.4604 220.038 9.84683 221.581 3.38026C217.025 2.79238 212.469 2.35148 207.839 1.91058C206.223 8.96502 205.047 16.1664 204.312 23.5148C199.683 23.8088 195.053 24.1762 190.424 24.6906C191.158 16.6073 192.408 8.67109 194.024 0.881805C189.468 0.58787 184.839 0.367421 180.136 0.220453C178.372 8.81806 177.123 17.6361 176.462 26.6011C171.759 27.336 167.129 28.2178 162.573 29.2466C163.161 19.3262 164.41 9.55289 166.247 0C165.366 0 164.557 0 163.676 0C159.854 0 156.107 -1.36874e-07 152.286 0.146967C151.918 2.35148 151.551 4.556 151.183 6.76051C142.365 9.25896 130.24 11.7574 122.598 13.5945C100.186 18.7384 78.5813 26.7481 58.2263 37.4767C31.1107 51.7326 6.86108 70.3975 -13.8614 92.8835C-59.4948 142.412 -84.6263 206.71 -84.6263 274.095C-84.6263 280.782 -84.4058 287.616 -83.8914 294.303C-73.4567 430.321 37.4304 535.036 170.289 541.135C186.015 544.074 202.328 545.691 218.935 545.691C277.502 545.691 331.512 526.438 375.088 493.885C390.667 486.683 406.833 478.306 423.147 468.533C430.422 464.197 437.476 459.641 444.457 455.012C453.275 444.136 461.138 432.746 468.119 420.768C451.805 433.775 434.463 445.753 416.166 456.775C415.578 457.143 415.064 457.437 414.476 457.731C423.441 447.663 431.597 436.935 438.872 425.545C454.671 414.375 469.589 402.324 483.551 389.464C487.445 379.985 490.825 370.285 493.618 360.365C481.64 372.857 468.854 384.688 455.333 395.71C459.595 386.598 463.416 377.266 466.649 367.639C478.407 356.69 489.429 345.153 499.79 333.029C501.26 324.578 502.289 315.907 502.95 307.236C493.985 319.067 484.285 330.383 473.998 341.112C475.835 332.882 477.231 324.504 478.26 315.98L478.407 316.127ZM-70.0765 293.347C-70.5908 287.028 -70.8113 280.561 -70.8113 274.168C-70.8113 210.311 -47.0026 149.246 -3.64711 102.289C16.0465 80.9057 39.047 63.1961 64.7663 49.6751C86.0031 38.5055 124.656 25.9398 149.64 20.7224C149.273 24.6906 148.979 28.7322 148.832 32.7738C139.205 35.4192 129.873 38.6525 120.761 42.4002C77.1116 54.0841 37.4303 77.9663 6.49366 111.548C-34.4368 156.006 -56.9964 213.764 -56.9964 274.168C-56.9964 280.194 -56.7759 286.293 -56.335 292.319C-51.9995 348.607 -28.5581 398.944 7.22849 437.302C27.1426 464.932 52.3475 488.447 81.3736 506.45C-1.66306 469.929 -62.5076 389.979 -69.9295 293.274L-70.0765 293.347ZM-41.4913 302.827C-42.0057 299.006 -42.3731 295.184 -42.667 291.29C-43.1079 285.632 -43.3284 279.9 -43.3284 274.168C-43.3284 221.848 -25.3983 171.658 7.44896 131.389C-23.7082 174.451 -42.1526 227.285 -42.1526 284.529C-42.1526 290.702 -41.9322 296.801 -41.4913 302.827ZM249.211 453.101C239.364 454.865 229.444 455.673 219.303 456.04C148.758 452.219 94.6742 421.577 63.958 356.47C21.6313 266.893 65.5746 159.313 159.854 124.629C168.672 121.395 177.858 119.558 187.043 117.648C191.673 116.692 196.155 114.855 201.005 114.267C237.453 109.932 271.77 116.839 303.442 135.063C352.455 163.281 381.335 205.975 388.83 262.043C400.955 353.016 339.155 437.008 249.211 453.101Z" fill="white" fill-opacity="0.07"/>
<path d="M125.546 285.35C125.546 228.62 172.502 191.437 220.56 190.776C271.044 190.041 312.562 233.544 312.635 285.056C312.635 336.421 270.676 378.38 219.164 378.454C167.578 378.527 125.546 336.788 125.546 285.423V285.35Z" fill="white" fill-opacity="0.07"/>
</svg>
