<svg width="134" height="134" viewBox="0 0 134 134" fill="none" xmlns="http://www.w3.org/2000/svg">
<path d="M78.0787 79.8374C55.8252 81.541 36.3336 64.8112 34.6299 42.5366C34.5558 41.5207 34.5135 40.4943 34.5135 39.4784C34.5135 29.2882 38.3229 19.5423 45.2223 12.0504C48.3651 8.64309 52.0369 5.81775 56.1427 3.65906C58.7564 2.28343 61.5076 1.20409 64.3436 0.431618C61.2325 0.759653 58.1638 1.26758 55.148 1.9554C50.8729 4.20932 47.0423 7.16164 43.762 10.7171C36.5134 18.5794 32.5241 28.7908 32.5241 39.489C32.5241 40.5578 32.5664 41.6371 32.6405 42.6953C34.4288 66.0493 54.8729 83.6045 78.2163 81.8056C79.1263 81.7315 83.9728 81.3083 89.9409 79.8162C91.2001 79.4988 92.6287 79.1072 94.163 78.6311C99.073 76.7475 103.401 74.2079 107.073 71.1709C100.279 74.7581 93.8879 76.7898 89.4541 77.9009C83.6342 79.3612 78.9464 79.7739 78.0681 79.8374H78.0787Z" fill="#68108A"/>
<path d="M30.6858 42.8445C30.6011 41.7334 30.5588 40.6012 30.5588 39.4901C30.5588 28.3051 34.7386 17.6069 42.3152 9.38489C44.241 7.30028 46.3468 5.40614 48.6113 3.73421C46.7701 4.3268 44.9606 4.97228 43.1934 5.69185C42.3892 6.44315 41.6168 7.23679 40.8655 8.05159C32.9503 16.644 28.5906 27.8078 28.5906 39.4901C28.5906 40.6541 28.6329 41.8392 28.7281 42.9927C29.945 58.8653 39.0454 72.2936 51.8917 79.7009C54.8017 80.4945 57.7857 81.1189 60.8015 81.5845C44.4421 76.0396 32.1037 61.151 30.6964 42.8551L30.6858 42.8445Z" fill="#68108A"/>
<path d="M26.7551 43.1451C26.6599 41.9388 26.6176 40.7007 26.6176 39.4838C26.6176 27.8015 30.7974 16.6165 38.4268 7.81247C36.9348 8.54261 35.4745 9.32567 34.0777 10.1405C27.9615 18.6588 24.6494 28.8702 24.6494 39.4838C24.6494 40.7536 24.7023 42.034 24.7975 43.2932C25.7604 55.8326 31.2524 66.9541 39.5379 75.1867C41.3686 76.0439 43.2627 76.8375 45.1992 77.5571C34.8714 69.462 27.8451 57.2294 26.7657 43.1451H26.7551Z" fill="#68108A"/>
<path d="M22.6663 39.4823C22.6663 29.9587 25.2377 20.742 30.0312 12.6998C28.7085 13.6098 27.4387 14.5622 26.2324 15.5569C22.6028 22.9324 20.6875 31.1015 20.6875 39.4823C20.6875 40.8474 20.7404 42.223 20.8462 43.5881C21.587 53.2492 24.825 62.1274 29.8725 69.651C31.3434 70.6774 32.8883 71.6404 34.4862 72.561C27.9254 64.5506 23.661 54.5296 22.8144 43.4399C22.7192 42.1278 22.6663 40.7945 22.6663 39.4823Z" fill="#68108A"/>
<path d="M18.725 39.4798C18.725 32.3159 20.0795 25.3108 22.6509 18.7924C21.4128 20.0199 20.27 21.3003 19.2329 22.6124C17.5928 28.0303 16.7462 33.7022 16.7462 39.4798C16.7462 40.9401 16.7991 42.4216 16.9155 43.8818C17.4235 50.4637 19.0001 56.6964 21.4763 62.4423C22.7355 63.7862 24.1006 65.0878 25.5608 66.3258C21.8678 59.5535 19.5081 51.9029 18.8837 43.7231C18.7779 42.3157 18.725 40.8872 18.725 39.4692V39.4798Z" fill="#68108A"/>
<path d="M14.7735 39.4843C14.7735 35.4103 15.1862 31.3786 15.9798 27.4422C14.6147 29.8866 13.5883 32.4262 12.9534 35.0505C12.8476 36.5214 12.7947 37.9923 12.7947 39.4737C12.7947 41.0398 12.8582 42.6165 12.9746 44.172C13.1227 46.0979 13.3555 48.0026 13.673 49.8756C14.583 52.5316 15.8951 55.103 17.5459 57.5474C16.1914 53.2406 15.3026 48.7222 14.9428 44.0239C14.8264 42.5213 14.7735 40.9869 14.7735 39.4737V39.4843Z" fill="#68108A"/>
<path d="M117.541 45.5229C118.842 43.9992 120.07 42.4013 121.202 40.7294C121.191 39.5971 121.128 38.4755 121.022 37.3644C120.027 38.994 118.958 40.5601 117.805 42.0627C117.805 41.7029 117.826 41.3325 117.826 40.9622C117.826 40.2215 117.805 39.4913 117.763 38.7717C118.324 37.957 118.863 37.121 119.382 36.2639C119.805 35.576 120.207 34.8777 120.588 34.1687C120.408 33.1528 120.186 32.1475 119.921 31.1529C119.244 32.5497 118.503 33.9147 117.699 35.2374C117.615 35.375 117.53 35.502 117.456 35.6395C117.318 34.6343 117.128 33.6502 116.916 32.6661C117.699 31.2587 118.419 29.7984 119.064 28.3064C118.747 27.4069 118.398 26.518 118.017 25.6397C117.466 27.0789 116.853 28.4862 116.165 29.8513C115.89 28.9518 115.572 28.063 115.234 27.1953C115.816 25.8831 116.345 24.5287 116.81 23.1424C116.387 22.3488 115.943 21.5763 115.466 20.8144C115.086 22.1372 114.641 23.4282 114.144 24.698C113.763 23.8937 113.35 23.1107 112.906 22.3488C113.318 21.1425 113.689 19.915 114.006 18.6452C113.509 17.9574 112.99 17.2907 112.451 16.6241C112.197 17.8198 111.9 18.9944 111.551 20.1372C111.086 19.4388 110.588 18.751 110.08 18.0738C110.366 16.9944 110.609 15.8833 110.81 14.7511C110.26 14.1585 109.678 13.5871 109.086 13.0262C108.938 14.095 108.736 15.132 108.514 16.1585C107.985 15.5553 107.435 14.9627 106.863 14.3913C107.043 13.4284 107.192 12.4442 107.297 11.439C106.705 10.9416 106.091 10.4549 105.456 9.97869C105.382 10.9311 105.266 11.8517 105.128 12.7617C104.546 12.2538 103.953 11.7564 103.34 11.2803C103.446 10.4231 103.52 9.54484 103.562 8.64539C102.938 8.22211 102.292 7.82001 101.636 7.42848C101.615 8.28561 101.562 9.11098 101.488 9.93636C100.874 9.51309 100.239 9.11098 99.5938 8.71946C99.6467 7.93641 99.6679 7.14277 99.6679 6.32797C99.0435 5.98936 98.3981 5.6719 97.742 5.35445C97.7102 5.62958 97.6891 5.91528 97.6891 6.20099C97.6891 6.68775 97.6785 7.16393 97.6573 7.62953C97.0118 7.29092 96.3663 6.97346 95.7103 6.67717C95.7103 6.51845 95.7103 6.35972 95.7103 6.20099C95.7103 5.61899 95.7632 5.05816 95.869 4.50791C95.2553 4.24336 94.6415 3.99998 94.0066 3.7566C93.8479 4.43383 93.7632 5.13223 93.7315 5.85179C93.0966 5.60841 92.4511 5.37561 91.795 5.16398C91.8479 4.455 91.9643 3.7566 92.1336 3.08994C91.5093 2.87831 90.885 2.67725 90.2501 2.48678C90.0702 3.1746 89.9432 3.873 89.8691 4.59256C89.2342 4.42325 88.5887 4.26452 87.9327 4.13754C88.0279 3.39682 88.1655 2.66667 88.3454 1.95769C87.7104 1.79897 87.0755 1.64024 86.4195 1.49209C86.229 2.23282 86.0808 2.99471 85.975 3.77776C85.3295 3.68252 84.6735 3.59787 84.0174 3.5238C84.1232 2.69842 84.2819 1.88362 84.483 1.10057C83.8375 0.984168 83.192 0.867768 82.5359 0.76195C82.3243 1.61908 82.1656 2.48678 82.0492 3.37565C81.4249 3.34391 80.8111 3.33333 80.1762 3.33333C80.1339 3.33333 80.1021 3.33333 80.0598 3.33333C80.1762 2.37038 80.3349 1.41802 80.5572 0.486824C79.9011 0.402169 79.245 0.338679 78.5784 0.275188C78.3456 1.29104 78.1763 2.32806 78.0704 3.38623C77.4038 3.42856 76.7371 3.48147 76.0705 3.55554C76.1763 2.39155 76.3562 1.24871 76.589 0.127042C75.9329 0.0847153 75.2663 0.0529702 74.589 0.0318066C74.3351 1.26988 74.1552 2.53969 74.0599 3.83067C73.3827 3.93649 72.716 4.06347 72.06 4.21162C72.1446 2.78307 72.3245 1.37569 72.5891 6.10352e-05C72.4621 6.10352e-05 72.3457 6.10352e-05 72.2187 6.10352e-05C71.6684 6.10352e-05 71.1288 6.10154e-05 70.5785 0.0212246C70.5256 0.338678 70.4727 0.656132 70.4198 0.973586C69.15 1.33337 67.404 1.69315 66.3035 1.95769C63.076 2.69842 59.965 3.85183 57.0338 5.39678C53.1292 7.44964 49.6372 10.1374 46.6531 13.3754C40.0818 20.5076 36.4628 29.7666 36.4628 39.4701C36.4628 40.4331 36.4946 41.4172 36.5686 42.3801C38.0713 61.967 54.0392 77.0461 73.1711 77.9244C75.4356 78.3477 77.7847 78.5805 80.1762 78.5805C88.6099 78.5805 96.3875 75.808 102.663 71.1203C104.906 70.0833 107.234 68.877 109.583 67.4696C110.631 66.8452 111.646 66.1892 112.652 65.5225C113.922 63.9564 115.054 62.3162 116.059 60.5914C113.71 62.4644 111.213 64.1892 108.578 65.7765C108.493 65.8294 108.419 65.8717 108.334 65.914C109.625 64.4643 110.8 62.9194 111.848 61.2792C114.123 59.6708 116.271 57.9354 118.281 56.0836C118.842 54.7185 119.329 53.3217 119.731 51.8932C118.006 53.6921 116.165 55.3957 114.218 56.983C114.832 55.6709 115.382 54.327 115.847 52.9408C117.541 51.3641 119.128 49.7027 120.62 47.9567C120.831 46.7398 120.98 45.4912 121.075 44.2425C119.784 45.9462 118.387 47.5758 116.906 49.1207C117.17 47.9356 117.371 46.7293 117.519 45.5018L117.541 45.5229ZM38.558 42.2426C38.484 41.3325 38.4522 40.4013 38.4522 39.4807C38.4522 30.2851 41.8807 21.4917 48.124 14.7299C50.9599 11.6506 54.272 9.1004 57.9756 7.15335C61.0337 5.54492 66.5998 3.73543 70.1976 2.98413C70.1447 3.55554 70.1023 4.13754 70.0812 4.71954C68.695 5.10049 67.3511 5.56608 66.0389 6.10576C59.7534 7.78826 54.0392 11.2273 49.5843 16.0632C43.6902 22.4652 40.4416 30.7825 40.4416 39.4807C40.4416 40.3484 40.4733 41.2267 40.5368 42.0944C41.1611 50.2001 44.5367 57.4486 49.6901 62.9723C52.5577 66.9511 56.1873 70.3372 60.3671 72.9298C48.4097 67.6706 39.6479 56.1576 38.5792 42.232L38.558 42.2426ZM42.6743 43.6076C42.6003 43.0574 42.5474 42.5071 42.505 41.9463C42.4415 41.1315 42.4098 40.3061 42.4098 39.4807C42.4098 31.9465 44.9918 24.7191 49.7218 18.9203C45.2351 25.1212 42.5791 32.7295 42.5791 40.9728C42.5791 41.8616 42.6108 42.7399 42.6743 43.6076ZM84.5359 65.2474C83.1179 65.5014 81.6894 65.6178 80.2291 65.6707C70.0706 65.1204 62.2824 60.7078 57.8592 51.3323C51.7641 38.4331 58.092 22.9414 71.6684 17.9468C72.9383 17.4812 74.261 17.2166 75.5837 16.9415C76.2504 16.8039 76.8959 16.5394 77.5943 16.4547C82.8428 15.8304 87.7845 16.8251 92.3453 19.4494C99.4033 23.5128 103.562 29.6608 104.641 37.7347C106.387 50.835 97.488 62.93 84.5359 65.2474Z" fill="#68108A"/>
<path d="M66.7297 41.0912C66.7297 32.9221 73.4914 27.5677 80.4119 27.4725C87.6816 27.3667 93.6603 33.6311 93.6709 41.0489C93.6709 48.4456 87.6287 54.4878 80.2109 54.4984C72.7825 54.509 66.7297 48.4985 66.7297 41.1018V41.0912Z" fill="#68108A"/>
<path d="M17.9991 123.723C15.9903 125.682 13.4939 126.661 10.514 126.661C7.53419 126.661 5.03362 125.682 3.02066 123.723C1.00771 121.764 -0.000854492 119.33 -0.000854492 116.426C-0.000854492 113.521 1.00771 111.087 3.02066 109.128C5.03362 107.169 7.53419 106.19 10.514 106.19C13.4939 106.19 15.9903 107.169 17.9991 109.128C20.0078 111.087 21.0122 113.521 21.0122 116.426C21.0122 119.33 20.0078 121.764 17.9991 123.723ZM10.514 121.835C12.0602 121.835 13.3397 121.318 14.3482 120.293C15.3568 119.264 15.8652 117.976 15.8652 116.43C15.8652 114.884 15.361 113.596 14.3482 112.566C13.3355 111.537 12.0602 111.024 10.514 111.024C8.96785 111.024 7.70089 111.541 6.67566 112.579C5.65459 113.617 5.14198 114.9 5.14198 116.434C5.14198 117.968 5.65459 119.255 6.67566 120.289C7.69672 121.322 8.97618 121.843 10.514 121.843V121.835Z" fill="#68108A"/>
<path d="M35.9026 106.19C37.6863 106.19 39.3033 106.636 40.7578 107.528C42.2123 108.42 43.3501 109.649 44.1711 111.216C44.9921 112.783 45.4047 114.517 45.4047 116.426C45.4047 118.334 44.9921 120.072 44.1711 121.635C43.3459 123.202 42.2082 124.431 40.7578 125.323C39.3075 126.215 37.6863 126.661 35.9026 126.661C33.3312 126.661 31.2098 125.728 29.5386 123.856V133.475H24.5625V106.657H29.5386V108.978C31.1973 107.119 33.3186 106.19 35.9026 106.19ZM34.9107 121.835C36.4569 121.835 37.7405 121.318 38.7574 120.293C39.7743 119.264 40.2827 117.976 40.2827 116.43C40.2827 114.884 39.7743 113.596 38.7574 112.566C37.7405 111.537 36.4569 111.024 34.9107 111.024C33.3645 111.024 32.0975 111.541 31.0765 112.579C30.0554 113.617 29.5428 114.9 29.5428 116.434C29.5428 117.968 30.0554 119.255 31.0765 120.289C32.0975 121.322 33.377 121.843 34.9107 121.843V121.835Z" fill="#68108A"/>
<path d="M53.803 102.876C53.1987 103.476 52.4527 103.776 51.565 103.776C50.6773 103.776 49.9355 103.476 49.327 102.876C48.7227 102.276 48.4185 101.542 48.4185 100.667C48.4185 99.7919 48.7227 99.0584 49.327 98.4583C49.9313 97.8581 50.6773 97.5581 51.565 97.5581C52.4527 97.5581 53.1945 97.8581 53.803 98.4583C54.4073 99.0584 54.7116 99.7919 54.7116 100.667C54.7116 101.542 54.4073 102.276 53.803 102.876ZM49.0769 126.194V106.656H54.0531V126.194H49.0769Z" fill="#68108A"/>
<path d="M70.0019 106.19C72.3107 106.19 74.1611 106.878 75.549 108.257C76.9409 109.636 77.6369 111.474 77.6369 113.767V126.19H72.64V115.375C72.64 114.054 72.2482 112.996 71.4689 112.204C70.6895 111.412 69.6518 111.016 68.3515 111.016C67.0512 111.016 65.8926 111.424 65.0507 112.241C64.2089 113.058 63.788 114.133 63.788 115.471V126.194H58.8118V106.657H63.788V108.828C65.3591 107.069 67.4305 106.19 70.0019 106.19Z" fill="#68108A"/>
<path d="M86.7968 102.876C86.1925 103.476 85.4465 103.776 84.5588 103.776C83.6711 103.776 82.9293 103.476 82.3208 102.876C81.7165 102.276 81.4123 101.542 81.4123 100.667C81.4123 99.7919 81.7165 99.0584 82.3208 98.4583C82.9251 97.8581 83.6711 97.5581 84.5588 97.5581C85.4465 97.5581 86.1884 97.8581 86.7968 98.4583C87.4011 99.0584 87.7054 99.7919 87.7054 100.667C87.7054 101.542 87.4011 102.276 86.7968 102.876ZM82.0708 126.194V106.656H87.0469V126.194H82.0708Z" fill="#68108A"/>
<path d="M108.607 123.723C106.598 125.682 104.102 126.661 101.122 126.661C98.1419 126.661 95.6413 125.682 93.6284 123.723C91.6154 121.764 90.6069 119.33 90.6069 116.426C90.6069 113.521 91.6154 111.087 93.6284 109.128C95.6413 107.169 98.1419 106.19 101.122 106.19C104.102 106.19 106.598 107.169 108.607 109.128C110.616 111.087 111.62 113.521 111.62 116.426C111.62 119.33 110.616 121.764 108.607 123.723ZM101.122 121.835C102.668 121.835 103.947 121.318 104.956 120.293C105.965 119.264 106.473 117.976 106.473 116.43C106.473 114.884 105.969 113.596 104.956 112.566C103.943 111.537 102.668 111.024 101.122 111.024C99.5756 111.024 98.3086 111.541 97.2834 112.579C96.2623 113.617 95.7497 114.9 95.7497 116.434C95.7497 117.968 96.2623 119.255 97.2834 120.289C98.3044 121.322 99.5839 121.843 101.122 121.843V121.835Z" fill="#68108A"/>
<path d="M126.365 106.19C128.674 106.19 130.525 106.878 131.913 108.257C133.305 109.636 134.001 111.474 134.001 113.767V126.19H129.004V115.375C129.004 114.054 128.612 112.996 127.832 112.204C127.053 111.412 126.015 111.016 124.715 111.016C123.415 111.016 122.256 111.424 121.414 112.241C120.572 113.058 120.152 114.133 120.152 115.471V126.194H115.175V106.657H120.152V108.828C121.723 107.069 123.794 106.19 126.365 106.19Z" fill="#68108A"/>
</svg>
