<svg width="340" height="25" viewBox="0 0 340 25" fill="none" xmlns="http://www.w3.org/2000/svg">
<path d="M13.1252 10.5979V6.88696C13.1252 6.05816 12.7959 5.26331 12.2099 4.67725C11.6238 4.0912 10.829 3.76196 10.0002 3.76196C9.17138 3.76196 8.37653 4.0912 7.79047 4.67725C7.20442 5.26331 6.87518 6.05816 6.87518 6.88696V10.5979" stroke="#94A3B8" stroke-width="1.5" stroke-linecap="round" stroke-linejoin="round"/>
<path d="M14.3751 10.5979H5.62512C4.58959 10.5979 3.75012 11.4374 3.75012 12.4729V19.3479C3.75012 20.3834 4.58959 21.2229 5.62512 21.2229H14.3751C15.4107 21.2229 16.2501 20.3834 16.2501 19.3479V12.4729C16.2501 11.4374 15.4107 10.5979 14.3751 10.5979Z" stroke="#94A3B8" stroke-width="1.5" stroke-linecap="round" stroke-linejoin="round"/>
<path d="M34.746 18.6433C34.0833 18.6433 33.4813 18.5173 32.94 18.2653C32.3987 18.0133 31.9413 17.6773 31.568 17.2573C31.1947 16.828 30.9287 16.3567 30.77 15.8433L31.778 15.4653C32.0207 16.1747 32.3987 16.716 32.912 17.0893C33.4253 17.4533 34.0367 17.6353 34.746 17.6353C35.194 17.6353 35.586 17.5653 35.922 17.4253C36.2673 17.276 36.5333 17.0707 36.72 16.8093C36.9067 16.548 37 16.2447 37 15.8993C37 15.386 36.86 14.9893 36.58 14.7093C36.3 14.4293 35.8987 14.2147 35.376 14.0653L33.5 13.5053C32.7627 13.2907 32.1933 12.9313 31.792 12.4273C31.4 11.9233 31.204 11.3493 31.204 10.7053C31.204 10.1547 31.3393 9.66934 31.61 9.24934C31.8807 8.82001 32.2493 8.48401 32.716 8.24134C33.192 7.99867 33.7287 7.87734 34.326 7.87734C34.9513 7.87734 35.5113 7.99401 36.006 8.22734C36.51 8.45134 36.9347 8.75001 37.28 9.12334C37.6253 9.49667 37.8727 9.91201 38.022 10.3693L37.042 10.7613C36.818 10.1453 36.468 9.67867 35.992 9.36134C35.5253 9.04401 34.9747 8.88534 34.34 8.88534C33.9387 8.88534 33.584 8.95534 33.276 9.09534C32.9773 9.23534 32.744 9.43601 32.576 9.69734C32.408 9.95867 32.324 10.2667 32.324 10.6213C32.324 11.0507 32.4593 11.438 32.73 11.7833C33.0007 12.1193 33.416 12.3713 33.976 12.5393L35.628 13.0293C36.4493 13.272 37.07 13.622 37.49 14.0793C37.91 14.5367 38.12 15.1107 38.12 15.8013C38.12 16.3613 37.9753 16.856 37.686 17.2853C37.406 17.7053 37.0093 18.0367 36.496 18.2793C35.992 18.522 35.4087 18.6433 34.746 18.6433ZM34.914 21.6953C34.6433 21.6953 34.3727 21.6487 34.102 21.5553C33.8407 21.462 33.626 21.336 33.458 21.1773L33.752 20.4353C33.892 20.566 34.0507 20.6687 34.228 20.7433C34.4147 20.818 34.5967 20.8553 34.774 20.8553C34.9793 20.8553 35.1427 20.7993 35.264 20.6873C35.3947 20.5847 35.46 20.4493 35.46 20.2813C35.46 20.0667 35.3527 19.8987 35.138 19.7773C34.9233 19.656 34.5733 19.5673 34.088 19.5113L34.424 18.3353H35.18L34.998 19.0073C35.4833 19.11 35.8473 19.2733 36.09 19.4973C36.342 19.7307 36.468 20.0153 36.468 20.3513C36.468 20.7433 36.3187 21.0653 36.02 21.3173C35.7307 21.5693 35.362 21.6953 34.914 21.6953ZM40.1288 18.4753V10.9713H41.1788V18.4753H40.1288ZM40.1288 9.58534V8.04534H41.1788V9.58534H40.1288ZM44.098 18.4753V12.0213H42.6V10.9713H44.098V10.2993C44.098 9.77667 44.2147 9.33801 44.448 8.98334C44.6813 8.61934 44.9893 8.34401 45.372 8.15734C45.7547 7.97067 46.1653 7.87734 46.604 7.87734C46.6973 7.87734 46.8047 7.88667 46.926 7.90534C47.0473 7.91467 47.1453 7.92867 47.22 7.94734V8.89934C47.1547 8.88067 47.066 8.87134 46.954 8.87134C46.842 8.86201 46.7627 8.85734 46.716 8.85734C46.268 8.85734 45.8947 8.96467 45.596 9.17934C45.2973 9.39401 45.148 9.76734 45.148 10.2993V10.9713H46.982V12.0213H45.148V18.4753H44.098ZM48.6874 18.4753V10.9713H49.7374V12.2033L49.5974 12.0213C49.7747 11.6667 50.0407 11.3867 50.3954 11.1813C50.7594 10.976 51.198 10.8733 51.7114 10.8733H52.1874V11.9233H51.5294C50.988 11.9233 50.554 12.0913 50.2274 12.4273C49.9007 12.7633 49.7374 13.2393 49.7374 13.8553V18.4753H48.6874ZM56.8338 18.6433C56.1338 18.6433 55.4992 18.4753 54.9298 18.1393C54.3698 17.794 53.9265 17.3227 53.5998 16.7253C53.2732 16.128 53.1098 15.4513 53.1098 14.6953C53.1098 13.9393 53.2685 13.272 53.5858 12.6933C53.9032 12.1053 54.3325 11.6433 54.8738 11.3073C55.4245 10.9713 56.0405 10.8033 56.7218 10.8033C57.2632 10.8033 57.7438 10.906 58.1638 11.1113C58.5932 11.3073 58.9572 11.578 59.2558 11.9233C59.5545 12.2593 59.7832 12.642 59.9418 13.0713C60.1005 13.4913 60.1798 13.9253 60.1798 14.3733C60.1798 14.4667 60.1752 14.574 60.1658 14.6953C60.1565 14.8073 60.1425 14.924 60.1238 15.0453H53.7818V14.0653H59.5218L59.0178 14.4853C59.1018 13.972 59.0412 13.5147 58.8358 13.1133C58.6398 12.7027 58.3552 12.3807 57.9818 12.1473C57.6085 11.9047 57.1885 11.7833 56.7218 11.7833C56.2552 11.7833 55.8212 11.9047 55.4198 12.1473C55.0278 12.39 54.7198 12.7307 54.4958 13.1693C54.2718 13.5987 54.1832 14.112 54.2298 14.7093C54.1832 15.3067 54.2765 15.8293 54.5098 16.2773C54.7525 16.716 55.0792 17.0567 55.4898 17.2993C55.9098 17.542 56.3578 17.6633 56.8338 17.6633C57.3845 17.6633 57.8465 17.5327 58.2198 17.2713C58.5932 17.01 58.8965 16.6833 59.1298 16.2913L60.0258 16.7673C59.8765 17.1033 59.6478 17.416 59.3398 17.7053C59.0318 17.9853 58.6632 18.214 58.2338 18.3913C57.8138 18.5593 57.3472 18.6433 56.8338 18.6433Z" fill="#94A3B8"/>
<g opacity="0.5">
<path d="M337.47 2.94494C337.763 2.6521 338.237 2.65219 338.53 2.94494C338.823 3.23784 338.823 3.7126 338.53 4.00549L318.53 24.0055C318.237 24.2984 317.763 24.2984 317.47 24.0055C317.177 23.7126 317.177 23.2378 317.47 22.9449L320.841 19.5729C319.887 18.706 319.012 17.6636 318.257 16.4781C317.712 15.6238 317.465 14.529 317.465 13.4801C317.465 12.4311 317.713 11.3364 318.258 10.4821C320.649 6.72386 324.152 4.45569 328 4.45569C330.133 4.45572 332.182 5.16082 333.979 6.4342L337.47 2.94494ZM335.58 8.82092C335.903 8.56131 336.375 8.61242 336.635 8.93518C337.019 9.41236 337.395 9.92529 337.743 10.4733C338.288 11.3275 338.535 12.4218 338.535 13.4703C338.535 14.5193 338.287 15.614 337.742 16.4684C335.351 20.2266 331.848 22.4957 328 22.4957C326.663 22.4957 325.355 22.213 324.129 21.6969C323.747 21.5362 323.568 21.0961 323.728 20.7145C323.889 20.3328 324.329 20.1535 324.711 20.3141C325.765 20.7579 326.877 20.9957 328 20.9957C331.212 20.9957 334.288 19.1041 336.477 15.6627V15.6617C336.832 15.1062 337.035 14.3111 337.035 13.4703C337.035 12.6296 336.832 11.8344 336.477 11.2789L336.476 11.277C336.164 10.7852 335.822 10.3182 335.466 9.87561C335.206 9.55286 335.257 9.08054 335.58 8.82092ZM328 5.95569C324.788 5.95569 321.711 7.84637 319.522 11.2877V11.2887C319.168 11.8442 318.965 12.6394 318.965 13.4801C318.965 14.3209 319.168 15.117 319.522 15.6725C320.226 16.7766 321.035 17.7307 321.903 18.5104L324.455 15.9586C323.961 15.256 323.67 14.4015 323.67 13.4752C323.67 11.081 325.606 9.14514 328 9.14514C328.926 9.14515 329.781 9.43599 330.483 9.93029L332.901 7.51233C331.387 6.49466 329.712 5.95572 328 5.95569ZM330.772 14.0397C330.848 13.6323 331.238 13.363 331.645 13.4381C332.053 13.5132 332.322 13.9038 332.247 14.3112C331.931 16.027 330.541 17.4166 328.825 17.733C328.418 17.8079 328.027 17.5385 327.952 17.1315C327.877 16.7241 328.146 16.3326 328.554 16.2574C329.658 16.0538 330.569 15.1436 330.772 14.0397ZM328 10.6451C326.434 10.6451 325.17 11.9094 325.17 13.4752C325.17 13.9856 325.304 14.4621 325.54 14.8746L329.399 11.0153C328.987 10.7789 328.51 10.6452 328 10.6451Z" fill="#94A3B8"/>
</g>
</svg>
