<svg width="340" height="21" viewBox="0 0 340 21" fill="none" xmlns="http://www.w3.org/2000/svg">
<path d="M13.4342 6.09763C13.281 8.16286 11.7154 9.84763 9.99667 9.84763C8.27792 9.84763 6.70957 8.16325 6.55917 6.09763C6.40292 3.94919 7.92636 2.34763 9.99667 2.34763C12.067 2.34763 13.5904 3.98825 13.4342 6.09763Z" stroke="#94A3B8" stroke-width="1.49989" stroke-linecap="round" stroke-linejoin="round"/>
<path d="M9.99814 12.3477C6.5997 12.3477 3.15049 14.2227 2.5122 17.7618C2.43525 18.1883 2.67666 18.5977 3.12314 18.5977H16.8731C17.32 18.5977 17.5614 18.1883 17.4845 17.7618C16.8458 14.2227 13.3966 12.3477 9.99814 12.3477Z" stroke="#94A3B8" stroke-width="1.49989" stroke-miterlimit="10"/>
<path d="M31.232 16.4753V6.04534H32.352V16.4753H31.232ZM31.092 4.58934V3.18934H32.492V4.58934H31.092ZM37.264 16.6433C36.5454 16.6433 35.9154 16.4613 35.374 16.0973C34.8327 15.7333 34.4407 15.2387 34.198 14.6133L35.08 14.1933C35.2947 14.6507 35.5934 15.0147 35.976 15.2853C36.368 15.556 36.7974 15.6913 37.264 15.6913C37.712 15.6913 38.09 15.584 38.398 15.3693C38.706 15.1453 38.86 14.856 38.86 14.5013C38.86 14.24 38.7854 14.0347 38.636 13.8853C38.4867 13.7267 38.314 13.6053 38.118 13.5213C37.922 13.4373 37.7494 13.3767 37.6 13.3393L36.522 13.0313C35.8314 12.8353 35.332 12.56 35.024 12.2053C34.716 11.8507 34.562 11.44 34.562 10.9733C34.562 10.5347 34.674 10.152 34.898 9.82534C35.122 9.49867 35.4254 9.24667 35.808 9.06934C36.1907 8.89201 36.6154 8.80334 37.082 8.80334C37.7167 8.80334 38.2907 8.97134 38.804 9.30734C39.3267 9.63401 39.6954 10.0913 39.91 10.6793L39.014 11.0993C38.8274 10.6793 38.5567 10.3527 38.202 10.1193C37.8567 9.87667 37.4694 9.75534 37.04 9.75534C36.62 9.75534 36.284 9.86267 36.032 10.0773C35.78 10.292 35.654 10.5627 35.654 10.8893C35.654 11.1413 35.7194 11.342 35.85 11.4913C35.9807 11.6407 36.13 11.7527 36.298 11.8273C36.4754 11.902 36.6294 11.958 36.76 11.9953L38.006 12.3593C38.6127 12.5367 39.084 12.812 39.42 13.1853C39.7654 13.5587 39.938 13.9973 39.938 14.5013C39.938 14.912 39.8214 15.2807 39.588 15.6073C39.364 15.934 39.0514 16.1907 38.65 16.3773C38.2487 16.5547 37.7867 16.6433 37.264 16.6433ZM41.7831 16.4753V8.97134H42.8331V16.4753H41.7831ZM41.7831 7.58534V6.04534H42.8331V7.58534H41.7831ZM44.9823 16.4753V8.97134H46.0323V10.3993L45.8643 10.1893C46.0696 9.75067 46.373 9.41001 46.7743 9.16734C47.185 8.92467 47.633 8.80334 48.1183 8.80334C48.697 8.80334 49.2196 8.96667 49.6863 9.29334C50.153 9.62001 50.4843 10.0447 50.6803 10.5673L50.3863 10.5813C50.573 10.0027 50.895 9.56401 51.3523 9.26534C51.819 8.95734 52.3323 8.80334 52.8923 8.80334C53.3963 8.80334 53.8583 8.92467 54.2783 9.16734C54.7076 9.41001 55.0483 9.74601 55.3003 10.1753C55.5616 10.5953 55.6923 11.0713 55.6923 11.6033V16.4753H54.6423V12.0093C54.6423 11.552 54.5583 11.1647 54.3903 10.8473C54.2316 10.53 54.0123 10.2873 53.7323 10.1193C53.4523 9.94201 53.1303 9.85334 52.7663 9.85334C52.4116 9.85334 52.0896 9.94201 51.8003 10.1193C51.511 10.2873 51.2823 10.5347 51.1143 10.8613C50.9463 11.1787 50.8623 11.5613 50.8623 12.0093V16.4753H49.8123V12.0093C49.8123 11.552 49.7283 11.1647 49.5603 10.8473C49.4016 10.53 49.1823 10.2873 48.9023 10.1193C48.6223 9.94201 48.3003 9.85334 47.9363 9.85334C47.5723 9.85334 47.2456 9.94201 46.9563 10.1193C46.6763 10.2873 46.4523 10.5347 46.2843 10.8613C46.1163 11.1787 46.0323 11.5613 46.0323 12.0093V16.4753H44.9823ZM60.034 13.2133V12.2333H64.934V13.2133H60.034ZM73.0956 16.6433C72.4329 16.6433 71.8309 16.5173 71.2896 16.2653C70.7483 16.0133 70.2909 15.6773 69.9176 15.2573C69.5443 14.828 69.2783 14.3567 69.1196 13.8433L70.1276 13.4653C70.3703 14.1747 70.7483 14.716 71.2616 15.0893C71.7749 15.4533 72.3863 15.6353 73.0956 15.6353C73.5436 15.6353 73.9356 15.5653 74.2716 15.4253C74.6169 15.276 74.8829 15.0707 75.0696 14.8093C75.2563 14.548 75.3496 14.2447 75.3496 13.8993C75.3496 13.386 75.2096 12.9893 74.9296 12.7093C74.6496 12.4293 74.2483 12.2147 73.7256 12.0653L71.8496 11.5053C71.1123 11.2907 70.5429 10.9313 70.1416 10.4273C69.7496 9.92334 69.5536 9.34934 69.5536 8.70534C69.5536 8.15467 69.6889 7.66934 69.9596 7.24934C70.2303 6.82001 70.5989 6.48401 71.0656 6.24134C71.5416 5.99867 72.0783 5.87734 72.6756 5.87734C73.3009 5.87734 73.8609 5.99401 74.3556 6.22734C74.8596 6.45134 75.2843 6.75001 75.6296 7.12334C75.9749 7.49667 76.2223 7.91201 76.3716 8.36934L75.3916 8.76134C75.1676 8.14534 74.8176 7.67867 74.3416 7.36134C73.8749 7.04401 73.3243 6.88534 72.6896 6.88534C72.2883 6.88534 71.9336 6.95534 71.6256 7.09534C71.3269 7.23534 71.0936 7.43601 70.9256 7.69734C70.7576 7.95867 70.6736 8.26667 70.6736 8.62134C70.6736 9.05067 70.8089 9.43801 71.0796 9.78334C71.3503 10.1193 71.7656 10.3713 72.3256 10.5393L73.9776 11.0293C74.7989 11.272 75.4196 11.622 75.8396 12.0793C76.2596 12.5367 76.4696 13.1107 76.4696 13.8013C76.4696 14.3613 76.3249 14.856 76.0356 15.2853C75.7556 15.7053 75.3589 16.0367 74.8456 16.2793C74.3416 16.522 73.7583 16.6433 73.0956 16.6433ZM81.9924 16.6433C81.2831 16.6433 80.6391 16.4753 80.0604 16.1393C79.4817 15.794 79.0197 15.3273 78.6744 14.7393C78.3384 14.142 78.1704 13.4653 78.1704 12.7093C78.1704 11.9627 78.3384 11.2953 78.6744 10.7073C79.0104 10.1193 79.4631 9.65734 80.0324 9.32134C80.6111 8.97601 81.2644 8.80334 81.9924 8.80334C82.7204 8.80334 83.3691 8.97134 83.9384 9.30734C84.5171 9.64334 84.9697 10.1053 85.2964 10.6933C85.6324 11.2813 85.8004 11.9533 85.8004 12.7093C85.8004 13.4747 85.6277 14.156 85.2824 14.7533C84.9371 15.3413 84.4751 15.8033 83.8964 16.1393C83.3271 16.4753 82.6924 16.6433 81.9924 16.6433ZM81.9924 15.5933C82.4964 15.5933 82.9491 15.4673 83.3504 15.2153C83.7611 14.9633 84.0831 14.618 84.3164 14.1793C84.5591 13.7407 84.6804 13.2507 84.6804 12.7093C84.6804 12.168 84.5591 11.6827 84.3164 11.2533C84.0831 10.824 83.7611 10.4833 83.3504 10.2313C82.9491 9.97934 82.4964 9.85334 81.9924 9.85334C81.4884 9.85334 81.0311 9.97934 80.6204 10.2313C80.2191 10.4833 79.8971 10.824 79.6544 11.2533C79.4117 11.6827 79.2904 12.168 79.2904 12.7093C79.2904 13.2507 79.4117 13.7407 79.6544 14.1793C79.8971 14.618 80.2191 14.9633 80.6204 15.2153C81.0311 15.4673 81.4884 15.5933 81.9924 15.5933ZM87.6695 19.5553C87.5202 19.5553 87.3662 19.5413 87.2075 19.5133C87.0582 19.4947 86.9088 19.4573 86.7595 19.4013V18.4213C86.8528 18.4307 86.9695 18.4447 87.1095 18.4633C87.2588 18.4913 87.4082 18.5053 87.5575 18.5053C88.0148 18.5053 88.3648 18.4073 88.6075 18.2113C88.8502 18.0247 89.0882 17.6607 89.3215 17.1193L89.7975 15.9993L89.7695 16.9233L86.5915 8.97134H87.7255L90.3295 15.5373H90.0355L92.6255 8.97134H93.7875L90.3575 17.4273C90.2082 17.7913 90.0168 18.1367 89.7835 18.4633C89.5595 18.79 89.2748 19.0513 88.9295 19.2473C88.5842 19.4527 88.1642 19.5553 87.6695 19.5553ZM95.0214 16.4753V8.97134H96.0714V16.4753H95.0214ZM95.0214 7.58534V6.04534H96.0714V7.58534H95.0214ZM100.825 16.6433C100.106 16.6433 99.4759 16.4613 98.9346 16.0973C98.3932 15.7333 98.0012 15.2387 97.7586 14.6133L98.6406 14.1933C98.8552 14.6507 99.1539 15.0147 99.5366 15.2853C99.9286 15.556 100.358 15.6913 100.825 15.6913C101.273 15.6913 101.651 15.584 101.959 15.3693C102.267 15.1453 102.421 14.856 102.421 14.5013C102.421 14.24 102.346 14.0347 102.197 13.8853C102.047 13.7267 101.875 13.6053 101.679 13.5213C101.483 13.4373 101.31 13.3767 101.161 13.3393L100.083 13.0313C99.3919 12.8353 98.8926 12.56 98.5846 12.2053C98.2766 11.8507 98.1226 11.44 98.1226 10.9733C98.1226 10.5347 98.2346 10.152 98.4586 9.82534C98.6826 9.49867 98.9859 9.24667 99.3686 9.06934C99.7512 8.89201 100.176 8.80334 100.643 8.80334C101.277 8.80334 101.851 8.97134 102.365 9.30734C102.887 9.63401 103.256 10.0913 103.471 10.6793L102.575 11.0993C102.388 10.6793 102.117 10.3527 101.763 10.1193C101.417 9.87667 101.03 9.75534 100.601 9.75534C100.181 9.75534 99.8446 9.86267 99.5926 10.0773C99.3406 10.292 99.2146 10.5627 99.2146 10.8893C99.2146 11.1413 99.2799 11.342 99.4106 11.4913C99.5412 11.6407 99.6906 11.7527 99.8586 11.8273C100.036 11.902 100.19 11.958 100.321 11.9953L101.567 12.3593C102.173 12.5367 102.645 12.812 102.981 13.1853C103.326 13.5587 103.499 13.9973 103.499 14.5013C103.499 14.912 103.382 15.2807 103.149 15.6073C102.925 15.934 102.612 16.1907 102.211 16.3773C101.809 16.5547 101.347 16.6433 100.825 16.6433ZM105.344 16.4753V8.97134H106.394V16.4753H105.344ZM105.344 7.58534V6.04534H106.394V7.58534H105.344ZM108.543 16.4753V8.97134H109.593V10.3993L109.425 10.1893C109.63 9.75067 109.934 9.41001 110.335 9.16734C110.746 8.92467 111.194 8.80334 111.679 8.80334C112.258 8.80334 112.78 8.96667 113.247 9.29334C113.714 9.62001 114.045 10.0447 114.241 10.5673L113.947 10.5813C114.134 10.0027 114.456 9.56401 114.913 9.26534C115.38 8.95734 115.893 8.80334 116.453 8.80334C116.957 8.80334 117.419 8.92467 117.839 9.16734C118.268 9.41001 118.609 9.74601 118.861 10.1753C119.122 10.5953 119.253 11.0713 119.253 11.6033V16.4753H118.203V12.0093C118.203 11.552 118.119 11.1647 117.951 10.8473C117.792 10.53 117.573 10.2873 117.293 10.1193C117.013 9.94201 116.691 9.85334 116.327 9.85334C115.972 9.85334 115.65 9.94201 115.361 10.1193C115.072 10.2873 114.843 10.5347 114.675 10.8613C114.507 11.1787 114.423 11.5613 114.423 12.0093V16.4753H113.373V12.0093C113.373 11.552 113.289 11.1647 113.121 10.8473C112.962 10.53 112.743 10.2873 112.463 10.1193C112.183 9.94201 111.861 9.85334 111.497 9.85334C111.133 9.85334 110.806 9.94201 110.517 10.1193C110.237 10.2873 110.013 10.5347 109.845 10.8613C109.677 11.1787 109.593 11.5613 109.593 12.0093V16.4753H108.543Z" fill="#94A3B8"/>
</svg>
