<svg width="25" height="24" viewBox="0 0 25 24" fill="none" xmlns="http://www.w3.org/2000/svg">
<path d="M18.1697 12.8768H13.2332V17.8133C13.2332 18.0752 13.1292 18.3263 12.9441 18.5115C12.7589 18.6966 12.5078 18.8006 12.2459 18.8006C11.9841 18.8006 11.733 18.6966 11.5478 18.5115C11.3627 18.3263 11.2586 18.0752 11.2586 17.8133V12.8768H6.32214C6.06029 12.8768 5.80917 12.7728 5.62401 12.5877C5.43886 12.4025 5.33484 12.1514 5.33484 11.8895C5.33484 11.6277 5.43886 11.3766 5.62401 11.1914C5.80917 11.0063 6.06029 10.9022 6.32214 10.9022H11.2586V5.96575C11.2586 5.70391 11.3627 5.45278 11.5478 5.26763C11.733 5.08247 11.9841 4.97845 12.2459 4.97845C12.5078 4.97845 12.7589 5.08247 12.9441 5.26763C13.1292 5.45278 13.2332 5.70391 13.2332 5.96575V10.9022H18.1697C18.4316 10.9022 18.6827 11.0063 18.8679 11.1914C19.053 11.3766 19.157 11.6277 19.157 11.8895C19.157 12.1514 19.053 12.4025 18.8679 12.5877C18.6827 12.7728 18.4316 12.8768 18.1697 12.8768Z" fill="#718096"/>
</svg>
