<svg width="46" height="46" viewBox="0 0 46 46" fill="none" xmlns="http://www.w3.org/2000/svg">
<rect x="0.5" y="0.145142" width="45" height="45" rx="22.5" fill="#68108A"/>
<path d="M34.3217 13.963C34.9157 12.3198 33.3234 10.7276 31.6803 11.323L11.5984 18.5857C9.94978 19.1825 9.75041 21.432 11.267 22.3106L17.6773 26.0217L23.4014 20.2976C23.6607 20.0471 24.0081 19.9085 24.3686 19.9117C24.7291 19.9148 25.074 20.0594 25.3289 20.3143C25.5838 20.5693 25.7285 20.9141 25.7316 21.2747C25.7347 21.6352 25.5961 21.9825 25.3457 22.2418L19.6215 27.966L23.334 34.3762C24.2113 35.8928 26.4608 35.6921 27.0575 34.0448L34.3217 13.963Z" fill="white"/>
</svg>
